<?xml version="1.0" encoding="utf-8"?>
<svg xmlns="http://www.w3.org/2000/svg" xmlns:xlink="http://www.w3.org/1999/xlink" width="600" height="400" viewBox="0 0 2400 1600">
<defs>
  <clipPath id="clip430">
    <rect x="0" y="0" width="2400" height="1600"/>
  </clipPath>
</defs>
<path clip-path="url(#clip430)" d="M0 1600 L2400 1600 L2400 0 L0 0  Z" fill="#ffffff" fill-rule="evenodd" fill-opacity="1"/>
<defs>
  <clipPath id="clip431">
    <rect x="140" y="47" width="2213" height="1440"/>
  </clipPath>
</defs>
<path clip-path="url(#clip430)" d="M140.696 1486.45 L2352.76 1486.45 L2352.76 47.2441 L140.696 47.2441  Z" fill="#ffffff" fill-rule="evenodd" fill-opacity="1"/>
<polyline clip-path="url(#clip431)" style="stroke:#000000; stroke-linecap:round; stroke-linejoin:round; stroke-width:2; stroke-opacity:0.1; fill:none" points="203.301,1486.45 203.301,47.2441 "/>
<polyline clip-path="url(#clip431)" style="stroke:#000000; stroke-linecap:round; stroke-linejoin:round; stroke-width:2; stroke-opacity:0.1; fill:none" points="551.109,1486.45 551.109,47.2441 "/>
<polyline clip-path="url(#clip431)" style="stroke:#000000; stroke-linecap:round; stroke-linejoin:round; stroke-width:2; stroke-opacity:0.1; fill:none" points="898.917,1486.45 898.917,47.2441 "/>
<polyline clip-path="url(#clip431)" style="stroke:#000000; stroke-linecap:round; stroke-linejoin:round; stroke-width:2; stroke-opacity:0.1; fill:none" points="1246.73,1486.45 1246.73,47.2441 "/>
<polyline clip-path="url(#clip431)" style="stroke:#000000; stroke-linecap:round; stroke-linejoin:round; stroke-width:2; stroke-opacity:0.1; fill:none" points="1594.53,1486.45 1594.53,47.2441 "/>
<polyline clip-path="url(#clip431)" style="stroke:#000000; stroke-linecap:round; stroke-linejoin:round; stroke-width:2; stroke-opacity:0.1; fill:none" points="1942.34,1486.45 1942.34,47.2441 "/>
<polyline clip-path="url(#clip431)" style="stroke:#000000; stroke-linecap:round; stroke-linejoin:round; stroke-width:2; stroke-opacity:0.1; fill:none" points="2290.15,1486.45 2290.15,47.2441 "/>
<polyline clip-path="url(#clip431)" style="stroke:#000000; stroke-linecap:round; stroke-linejoin:round; stroke-width:2; stroke-opacity:0.1; fill:none" points="140.696,1445.72 2352.76,1445.72 "/>
<polyline clip-path="url(#clip431)" style="stroke:#000000; stroke-linecap:round; stroke-linejoin:round; stroke-width:2; stroke-opacity:0.1; fill:none" points="140.696,1151.67 2352.76,1151.67 "/>
<polyline clip-path="url(#clip431)" style="stroke:#000000; stroke-linecap:round; stroke-linejoin:round; stroke-width:2; stroke-opacity:0.1; fill:none" points="140.696,857.621 2352.76,857.621 "/>
<polyline clip-path="url(#clip431)" style="stroke:#000000; stroke-linecap:round; stroke-linejoin:round; stroke-width:2; stroke-opacity:0.1; fill:none" points="140.696,563.573 2352.76,563.573 "/>
<polyline clip-path="url(#clip431)" style="stroke:#000000; stroke-linecap:round; stroke-linejoin:round; stroke-width:2; stroke-opacity:0.1; fill:none" points="140.696,269.526 2352.76,269.526 "/>
<polyline clip-path="url(#clip430)" style="stroke:#000000; stroke-linecap:round; stroke-linejoin:round; stroke-width:4; stroke-opacity:1; fill:none" points="140.696,1486.45 2352.76,1486.45 "/>
<polyline clip-path="url(#clip430)" style="stroke:#000000; stroke-linecap:round; stroke-linejoin:round; stroke-width:4; stroke-opacity:1; fill:none" points="203.301,1486.45 203.301,1467.55 "/>
<polyline clip-path="url(#clip430)" style="stroke:#000000; stroke-linecap:round; stroke-linejoin:round; stroke-width:4; stroke-opacity:1; fill:none" points="551.109,1486.45 551.109,1467.55 "/>
<polyline clip-path="url(#clip430)" style="stroke:#000000; stroke-linecap:round; stroke-linejoin:round; stroke-width:4; stroke-opacity:1; fill:none" points="898.917,1486.45 898.917,1467.55 "/>
<polyline clip-path="url(#clip430)" style="stroke:#000000; stroke-linecap:round; stroke-linejoin:round; stroke-width:4; stroke-opacity:1; fill:none" points="1246.73,1486.45 1246.73,1467.55 "/>
<polyline clip-path="url(#clip430)" style="stroke:#000000; stroke-linecap:round; stroke-linejoin:round; stroke-width:4; stroke-opacity:1; fill:none" points="1594.53,1486.45 1594.53,1467.55 "/>
<polyline clip-path="url(#clip430)" style="stroke:#000000; stroke-linecap:round; stroke-linejoin:round; stroke-width:4; stroke-opacity:1; fill:none" points="1942.34,1486.45 1942.34,1467.55 "/>
<polyline clip-path="url(#clip430)" style="stroke:#000000; stroke-linecap:round; stroke-linejoin:round; stroke-width:4; stroke-opacity:1; fill:none" points="2290.15,1486.45 2290.15,1467.55 "/>
<path clip-path="url(#clip430)" d="M178.035 1544.91 L185.674 1544.91 L185.674 1518.55 L177.364 1520.21 L177.364 1515.95 L185.628 1514.29 L190.303 1514.29 L190.303 1544.91 L197.942 1544.91 L197.942 1548.85 L178.035 1548.85 L178.035 1544.91 Z" fill="#000000" fill-rule="nonzero" fill-opacity="1" /><path clip-path="url(#clip430)" d="M217.387 1532.44 Q214.053 1532.44 212.132 1534.22 Q210.234 1536 210.234 1539.13 Q210.234 1542.25 212.132 1544.03 Q214.053 1545.82 217.387 1545.82 Q220.72 1545.82 222.641 1544.03 Q224.562 1542.23 224.562 1539.13 Q224.562 1536 222.641 1534.22 Q220.743 1532.44 217.387 1532.44 M212.711 1530.45 Q209.701 1529.7 208.012 1527.64 Q206.345 1525.58 206.345 1522.62 Q206.345 1518.48 209.285 1516.07 Q212.248 1513.66 217.387 1513.66 Q222.549 1513.66 225.488 1516.07 Q228.428 1518.48 228.428 1522.62 Q228.428 1525.58 226.738 1527.64 Q225.072 1529.7 222.086 1530.45 Q225.465 1531.23 227.34 1533.52 Q229.238 1535.82 229.238 1539.13 Q229.238 1544.15 226.16 1546.83 Q223.104 1549.52 217.387 1549.52 Q211.669 1549.52 208.59 1546.83 Q205.535 1544.15 205.535 1539.13 Q205.535 1535.82 207.433 1533.52 Q209.331 1531.23 212.711 1530.45 M210.998 1523.06 Q210.998 1525.75 212.664 1527.25 Q214.354 1528.76 217.387 1528.76 Q220.396 1528.76 222.086 1527.25 Q223.799 1525.75 223.799 1523.06 Q223.799 1520.38 222.086 1518.87 Q220.396 1517.37 217.387 1517.37 Q214.354 1517.37 212.664 1518.87 Q210.998 1520.38 210.998 1523.06 Z" fill="#000000" fill-rule="nonzero" fill-opacity="1" /><path clip-path="url(#clip430)" d="M525.889 1544.91 L533.528 1544.91 L533.528 1518.55 L525.218 1520.21 L525.218 1515.95 L533.482 1514.29 L538.158 1514.29 L538.158 1544.91 L545.797 1544.91 L545.797 1548.85 L525.889 1548.85 L525.889 1544.91 Z" fill="#000000" fill-rule="nonzero" fill-opacity="1" /><path clip-path="url(#clip430)" d="M555.38 1548.13 L555.38 1543.87 Q557.139 1544.7 558.945 1545.14 Q560.75 1545.58 562.487 1545.58 Q567.116 1545.58 569.547 1542.48 Q572 1539.36 572.348 1533.01 Q571.005 1535.01 568.945 1536.07 Q566.885 1537.13 564.385 1537.13 Q559.199 1537.13 556.167 1534.01 Q553.158 1530.86 553.158 1525.42 Q553.158 1520.1 556.306 1516.88 Q559.454 1513.66 564.686 1513.66 Q570.681 1513.66 573.829 1518.27 Q577 1522.85 577 1531.6 Q577 1539.77 573.111 1544.66 Q569.246 1549.52 562.695 1549.52 Q560.936 1549.52 559.13 1549.17 Q557.325 1548.82 555.38 1548.13 M564.686 1533.48 Q567.834 1533.48 569.662 1531.32 Q571.514 1529.17 571.514 1525.42 Q571.514 1521.7 569.662 1519.54 Q567.834 1517.37 564.686 1517.37 Q561.537 1517.37 559.686 1519.54 Q557.857 1521.7 557.857 1525.42 Q557.857 1529.17 559.686 1531.32 Q561.537 1533.48 564.686 1533.48 Z" fill="#000000" fill-rule="nonzero" fill-opacity="1" /><path clip-path="url(#clip430)" d="M877.691 1544.91 L894.01 1544.91 L894.01 1548.85 L872.066 1548.85 L872.066 1544.91 Q874.728 1542.16 879.311 1537.53 Q883.918 1532.88 885.098 1531.53 Q887.343 1529.01 888.223 1527.27 Q889.126 1525.51 889.126 1523.82 Q889.126 1521.07 887.181 1519.33 Q885.26 1517.6 882.158 1517.6 Q879.959 1517.6 877.506 1518.36 Q875.075 1519.13 872.297 1520.68 L872.297 1515.95 Q875.121 1514.82 877.575 1514.24 Q880.029 1513.66 882.066 1513.66 Q887.436 1513.66 890.63 1516.35 Q893.825 1519.03 893.825 1523.52 Q893.825 1525.65 893.015 1527.57 Q892.228 1529.47 890.121 1532.07 Q889.543 1532.74 886.441 1535.95 Q883.339 1539.15 877.691 1544.91 Z" fill="#000000" fill-rule="nonzero" fill-opacity="1" /><path clip-path="url(#clip430)" d="M913.825 1517.37 Q910.214 1517.37 908.385 1520.93 Q906.579 1524.47 906.579 1531.6 Q906.579 1538.71 908.385 1542.27 Q910.214 1545.82 913.825 1545.82 Q917.459 1545.82 919.265 1542.27 Q921.093 1538.71 921.093 1531.6 Q921.093 1524.47 919.265 1520.93 Q917.459 1517.37 913.825 1517.37 M913.825 1513.66 Q919.635 1513.66 922.691 1518.27 Q925.769 1522.85 925.769 1531.6 Q925.769 1540.33 922.691 1544.94 Q919.635 1549.52 913.825 1549.52 Q908.015 1549.52 904.936 1544.94 Q901.88 1540.33 901.88 1531.6 Q901.88 1522.85 904.936 1518.27 Q908.015 1513.66 913.825 1513.66 Z" fill="#000000" fill-rule="nonzero" fill-opacity="1" /><path clip-path="url(#clip430)" d="M1226.11 1544.91 L1242.43 1544.91 L1242.43 1548.85 L1220.49 1548.85 L1220.49 1544.91 Q1223.15 1542.16 1227.73 1537.53 Q1232.34 1532.88 1233.52 1531.53 Q1235.77 1529.01 1236.64 1527.27 Q1237.55 1525.51 1237.55 1523.82 Q1237.55 1521.07 1235.6 1519.33 Q1233.68 1517.6 1230.58 1517.6 Q1228.38 1517.6 1225.93 1518.36 Q1223.5 1519.13 1220.72 1520.68 L1220.72 1515.95 Q1223.54 1514.82 1226 1514.24 Q1228.45 1513.66 1230.49 1513.66 Q1235.86 1513.66 1239.05 1516.35 Q1242.25 1519.03 1242.25 1523.52 Q1242.25 1525.65 1241.44 1527.57 Q1240.65 1529.47 1238.54 1532.07 Q1237.96 1532.74 1234.86 1535.95 Q1231.76 1539.15 1226.11 1544.91 Z" fill="#000000" fill-rule="nonzero" fill-opacity="1" /><path clip-path="url(#clip430)" d="M1253.06 1544.91 L1260.7 1544.91 L1260.7 1518.55 L1252.39 1520.21 L1252.39 1515.95 L1260.65 1514.29 L1265.33 1514.29 L1265.33 1544.91 L1272.96 1544.91 L1272.96 1548.85 L1253.06 1548.85 L1253.06 1544.91 Z" fill="#000000" fill-rule="nonzero" fill-opacity="1" /><path clip-path="url(#clip430)" d="M1574.11 1544.91 L1590.43 1544.91 L1590.43 1548.85 L1568.48 1548.85 L1568.48 1544.91 Q1571.14 1542.16 1575.73 1537.53 Q1580.33 1532.88 1581.51 1531.53 Q1583.76 1529.01 1584.64 1527.27 Q1585.54 1525.51 1585.54 1523.82 Q1585.54 1521.07 1583.6 1519.33 Q1581.68 1517.6 1578.57 1517.6 Q1576.37 1517.6 1573.92 1518.36 Q1571.49 1519.13 1568.71 1520.68 L1568.71 1515.95 Q1571.54 1514.82 1573.99 1514.24 Q1576.44 1513.66 1578.48 1513.66 Q1583.85 1513.66 1587.05 1516.35 Q1590.24 1519.03 1590.24 1523.52 Q1590.24 1525.65 1589.43 1527.57 Q1588.64 1529.47 1586.54 1532.07 Q1585.96 1532.74 1582.86 1535.95 Q1579.75 1539.15 1574.11 1544.91 Z" fill="#000000" fill-rule="nonzero" fill-opacity="1" /><path clip-path="url(#clip430)" d="M1604.27 1544.91 L1620.59 1544.91 L1620.59 1548.85 L1598.64 1548.85 L1598.64 1544.91 Q1601.3 1542.16 1605.89 1537.53 Q1610.49 1532.88 1611.68 1531.53 Q1613.92 1529.01 1614.8 1527.27 Q1615.7 1525.51 1615.7 1523.82 Q1615.7 1521.07 1613.76 1519.33 Q1611.84 1517.6 1608.74 1517.6 Q1606.54 1517.6 1604.08 1518.36 Q1601.65 1519.13 1598.87 1520.68 L1598.87 1515.95 Q1601.7 1514.82 1604.15 1514.24 Q1606.61 1513.66 1608.64 1513.66 Q1614.01 1513.66 1617.21 1516.35 Q1620.4 1519.03 1620.4 1523.52 Q1620.4 1525.65 1619.59 1527.57 Q1618.8 1529.47 1616.7 1532.07 Q1616.12 1532.74 1613.02 1535.95 Q1609.92 1539.15 1604.27 1544.91 Z" fill="#000000" fill-rule="nonzero" fill-opacity="1" /><path clip-path="url(#clip430)" d="M1921.44 1544.91 L1937.76 1544.91 L1937.76 1548.85 L1915.81 1548.85 L1915.81 1544.91 Q1918.48 1542.16 1923.06 1537.53 Q1927.67 1532.88 1928.85 1531.53 Q1931.09 1529.01 1931.97 1527.27 Q1932.87 1525.51 1932.87 1523.82 Q1932.87 1521.07 1930.93 1519.33 Q1929.01 1517.6 1925.91 1517.6 Q1923.71 1517.6 1921.25 1518.36 Q1918.82 1519.13 1916.05 1520.68 L1916.05 1515.95 Q1918.87 1514.82 1921.32 1514.24 Q1923.78 1513.66 1925.81 1513.66 Q1931.18 1513.66 1934.38 1516.35 Q1937.57 1519.03 1937.57 1523.52 Q1937.57 1525.65 1936.76 1527.57 Q1935.98 1529.47 1933.87 1532.07 Q1933.29 1532.74 1930.19 1535.95 Q1927.09 1539.15 1921.44 1544.91 Z" fill="#000000" fill-rule="nonzero" fill-opacity="1" /><path clip-path="url(#clip430)" d="M1961.74 1530.21 Q1965.1 1530.93 1966.97 1533.2 Q1968.87 1535.47 1968.87 1538.8 Q1968.87 1543.92 1965.35 1546.72 Q1961.83 1549.52 1955.35 1549.52 Q1953.18 1549.52 1950.86 1549.08 Q1948.57 1548.66 1946.12 1547.81 L1946.12 1543.29 Q1948.06 1544.43 1950.37 1545.01 Q1952.69 1545.58 1955.21 1545.58 Q1959.61 1545.58 1961.9 1543.85 Q1964.22 1542.11 1964.22 1538.8 Q1964.22 1535.75 1962.06 1534.03 Q1959.93 1532.3 1956.12 1532.3 L1952.09 1532.3 L1952.09 1528.45 L1956.3 1528.45 Q1959.75 1528.45 1961.58 1527.09 Q1963.41 1525.7 1963.41 1523.11 Q1963.41 1520.45 1961.51 1519.03 Q1959.63 1517.6 1956.12 1517.6 Q1954.19 1517.6 1951.99 1518.01 Q1949.8 1518.43 1947.16 1519.31 L1947.16 1515.14 Q1949.82 1514.4 1952.13 1514.03 Q1954.47 1513.66 1956.53 1513.66 Q1961.86 1513.66 1964.96 1516.09 Q1968.06 1518.5 1968.06 1522.62 Q1968.06 1525.49 1966.42 1527.48 Q1964.77 1529.45 1961.74 1530.21 Z" fill="#000000" fill-rule="nonzero" fill-opacity="1" /><path clip-path="url(#clip430)" d="M2268.68 1544.91 L2285 1544.91 L2285 1548.85 L2263.06 1548.85 L2263.06 1544.91 Q2265.72 1542.16 2270.3 1537.53 Q2274.91 1532.88 2276.09 1531.53 Q2278.33 1529.01 2279.21 1527.27 Q2280.12 1525.51 2280.12 1523.82 Q2280.12 1521.07 2278.17 1519.33 Q2276.25 1517.6 2273.15 1517.6 Q2270.95 1517.6 2268.5 1518.36 Q2266.06 1519.13 2263.29 1520.68 L2263.29 1515.95 Q2266.11 1514.82 2268.56 1514.24 Q2271.02 1513.66 2273.06 1513.66 Q2278.43 1513.66 2281.62 1516.35 Q2284.81 1519.03 2284.81 1523.52 Q2284.81 1525.65 2284 1527.57 Q2283.22 1529.47 2281.11 1532.07 Q2280.53 1532.74 2277.43 1535.95 Q2274.33 1539.15 2268.68 1544.91 Z" fill="#000000" fill-rule="nonzero" fill-opacity="1" /><path clip-path="url(#clip430)" d="M2307.66 1518.36 L2295.86 1536.81 L2307.66 1536.81 L2307.66 1518.36 M2306.44 1514.29 L2312.31 1514.29 L2312.31 1536.81 L2317.25 1536.81 L2317.25 1540.7 L2312.31 1540.7 L2312.31 1548.85 L2307.66 1548.85 L2307.66 1540.7 L2292.06 1540.7 L2292.06 1536.19 L2306.44 1514.29 Z" fill="#000000" fill-rule="nonzero" fill-opacity="1" /><polyline clip-path="url(#clip430)" style="stroke:#000000; stroke-linecap:round; stroke-linejoin:round; stroke-width:4; stroke-opacity:1; fill:none" points="140.696,1486.45 140.696,47.2441 "/>
<polyline clip-path="url(#clip430)" style="stroke:#000000; stroke-linecap:round; stroke-linejoin:round; stroke-width:4; stroke-opacity:1; fill:none" points="140.696,1445.72 159.593,1445.72 "/>
<polyline clip-path="url(#clip430)" style="stroke:#000000; stroke-linecap:round; stroke-linejoin:round; stroke-width:4; stroke-opacity:1; fill:none" points="140.696,1151.67 159.593,1151.67 "/>
<polyline clip-path="url(#clip430)" style="stroke:#000000; stroke-linecap:round; stroke-linejoin:round; stroke-width:4; stroke-opacity:1; fill:none" points="140.696,857.621 159.593,857.621 "/>
<polyline clip-path="url(#clip430)" style="stroke:#000000; stroke-linecap:round; stroke-linejoin:round; stroke-width:4; stroke-opacity:1; fill:none" points="140.696,563.573 159.593,563.573 "/>
<polyline clip-path="url(#clip430)" style="stroke:#000000; stroke-linecap:round; stroke-linejoin:round; stroke-width:4; stroke-opacity:1; fill:none" points="140.696,269.526 159.593,269.526 "/>
<path clip-path="url(#clip430)" d="M92.7512 1431.51 Q89.1401 1431.51 87.3114 1435.08 Q85.5058 1438.62 85.5058 1445.75 Q85.5058 1452.86 87.3114 1456.42 Q89.1401 1459.96 92.7512 1459.96 Q96.3854 1459.96 98.1909 1456.42 Q100.02 1452.86 100.02 1445.75 Q100.02 1438.62 98.1909 1435.08 Q96.3854 1431.51 92.7512 1431.51 M92.7512 1427.81 Q98.5613 1427.81 101.617 1432.42 Q104.696 1437 104.696 1445.75 Q104.696 1454.48 101.617 1459.08 Q98.5613 1463.67 92.7512 1463.67 Q86.941 1463.67 83.8623 1459.08 Q80.8068 1454.48 80.8068 1445.75 Q80.8068 1437 83.8623 1432.42 Q86.941 1427.81 92.7512 1427.81 Z" fill="#000000" fill-rule="nonzero" fill-opacity="1" /><path clip-path="url(#clip430)" d="M83.7929 1134.39 L102.149 1134.39 L102.149 1138.32 L88.0753 1138.32 L88.0753 1146.8 Q89.0938 1146.45 90.1123 1146.29 Q91.1308 1146.1 92.1493 1146.1 Q97.9363 1146.1 101.316 1149.27 Q104.696 1152.44 104.696 1157.86 Q104.696 1163.44 101.223 1166.54 Q97.7511 1169.62 91.4317 1169.62 Q89.2558 1169.62 86.9873 1169.25 Q84.7419 1168.88 82.3346 1168.14 L82.3346 1163.44 Q84.4179 1164.57 86.6401 1165.13 Q88.8623 1165.68 91.3391 1165.68 Q95.3437 1165.68 97.6817 1163.58 Q100.02 1161.47 100.02 1157.86 Q100.02 1154.25 97.6817 1152.14 Q95.3437 1150.04 91.3391 1150.04 Q89.4641 1150.04 87.5892 1150.45 Q85.7373 1150.87 83.7929 1151.75 L83.7929 1134.39 Z" fill="#000000" fill-rule="nonzero" fill-opacity="1" /><path clip-path="url(#clip430)" d="M53.3995 870.966 L61.0384 870.966 L61.0384 844.6 L52.7282 846.267 L52.7282 842.007 L60.9921 840.341 L65.668 840.341 L65.668 870.966 L73.3068 870.966 L73.3068 874.901 L53.3995 874.901 L53.3995 870.966 Z" fill="#000000" fill-rule="nonzero" fill-opacity="1" /><path clip-path="url(#clip430)" d="M92.7512 843.419 Q89.1401 843.419 87.3114 846.984 Q85.5058 850.526 85.5058 857.655 Q85.5058 864.762 87.3114 868.327 Q89.1401 871.868 92.7512 871.868 Q96.3854 871.868 98.1909 868.327 Q100.02 864.762 100.02 857.655 Q100.02 850.526 98.1909 846.984 Q96.3854 843.419 92.7512 843.419 M92.7512 839.716 Q98.5613 839.716 101.617 844.322 Q104.696 848.905 104.696 857.655 Q104.696 866.382 101.617 870.989 Q98.5613 875.572 92.7512 875.572 Q86.941 875.572 83.8623 870.989 Q80.8068 866.382 80.8068 857.655 Q80.8068 848.905 83.8623 844.322 Q86.941 839.716 92.7512 839.716 Z" fill="#000000" fill-rule="nonzero" fill-opacity="1" /><path clip-path="url(#clip430)" d="M54.3949 576.918 L62.0337 576.918 L62.0337 550.552 L53.7236 552.219 L53.7236 547.96 L61.9874 546.293 L66.6633 546.293 L66.6633 576.918 L74.3022 576.918 L74.3022 580.853 L54.3949 580.853 L54.3949 576.918 Z" fill="#000000" fill-rule="nonzero" fill-opacity="1" /><path clip-path="url(#clip430)" d="M83.7929 546.293 L102.149 546.293 L102.149 550.228 L88.0753 550.228 L88.0753 558.701 Q89.0938 558.353 90.1123 558.191 Q91.1308 558.006 92.1493 558.006 Q97.9363 558.006 101.316 561.177 Q104.696 564.349 104.696 569.765 Q104.696 575.344 101.223 578.446 Q97.7511 581.524 91.4317 581.524 Q89.2558 581.524 86.9873 581.154 Q84.7419 580.784 82.3346 580.043 L82.3346 575.344 Q84.4179 576.478 86.6401 577.034 Q88.8623 577.589 91.3391 577.589 Q95.3437 577.589 97.6817 575.483 Q100.02 573.376 100.02 569.765 Q100.02 566.154 97.6817 564.048 Q95.3437 561.941 91.3391 561.941 Q89.4641 561.941 87.5892 562.358 Q85.7373 562.775 83.7929 563.654 L83.7929 546.293 Z" fill="#000000" fill-rule="nonzero" fill-opacity="1" /><path clip-path="url(#clip430)" d="M56.6171 282.871 L72.9365 282.871 L72.9365 286.806 L50.9921 286.806 L50.9921 282.871 Q53.6541 280.116 58.2375 275.486 Q62.8439 270.834 64.0245 269.491 Q66.2698 266.968 67.1494 265.232 Q68.0522 263.472 68.0522 261.783 Q68.0522 259.028 66.1078 257.292 Q64.1865 255.556 61.0847 255.556 Q58.8856 255.556 56.4319 256.32 Q54.0014 257.084 51.2236 258.635 L51.2236 253.912 Q54.0477 252.778 56.5014 252.199 Q58.955 251.621 60.9921 251.621 Q66.3624 251.621 69.5568 254.306 Q72.7513 256.991 72.7513 261.482 Q72.7513 263.611 71.9411 265.533 Q71.1541 267.431 69.0476 270.023 Q68.4689 270.695 65.367 273.912 Q62.2652 277.107 56.6171 282.871 Z" fill="#000000" fill-rule="nonzero" fill-opacity="1" /><path clip-path="url(#clip430)" d="M92.7512 255.324 Q89.1401 255.324 87.3114 258.889 Q85.5058 262.431 85.5058 269.56 Q85.5058 276.667 87.3114 280.232 Q89.1401 283.773 92.7512 283.773 Q96.3854 283.773 98.1909 280.232 Q100.02 276.667 100.02 269.56 Q100.02 262.431 98.1909 258.889 Q96.3854 255.324 92.7512 255.324 M92.7512 251.621 Q98.5613 251.621 101.617 256.227 Q104.696 260.81 104.696 269.56 Q104.696 278.287 101.617 282.894 Q98.5613 287.477 92.7512 287.477 Q86.941 287.477 83.8623 282.894 Q80.8068 278.287 80.8068 269.56 Q80.8068 260.81 83.8623 256.227 Q86.941 251.621 92.7512 251.621 Z" fill="#000000" fill-rule="nonzero" fill-opacity="1" /><polyline clip-path="url(#clip431)" style="stroke:#009af9; stroke-linecap:round; stroke-linejoin:round; stroke-width:4; stroke-opacity:1; fill:none" points="203.301,1445.13 205.39,1445.14 207.479,1445.14 209.568,1445.14 211.657,1445.14 213.746,1445.14 215.835,1445.15 217.924,1445.15 220.013,1445.15 222.101,1445.15 224.19,1445.16 226.279,1445.16 228.368,1445.16 230.457,1445.16 232.546,1445.16 234.635,1445.17 236.724,1445.17 238.813,1445.17 240.902,1445.17 242.991,1445.18 245.08,1445.18 247.169,1445.18 249.258,1445.18 251.347,1445.18 253.436,1445.19 255.524,1445.19 257.613,1445.19 259.702,1445.19 261.791,1445.2 263.88,1445.2 265.969,1445.2 268.058,1445.2 270.147,1445.21 272.236,1445.21 274.325,1445.21 276.414,1445.21 278.503,1445.22 280.592,1445.22 282.681,1445.22 284.77,1445.22 286.859,1445.23 288.947,1445.23 291.036,1445.23 293.125,1445.23 295.214,1445.24 297.303,1445.24 299.392,1445.24 301.481,1445.24 303.57,1445.25 305.659,1445.25 307.748,1445.25 309.837,1445.25 311.926,1445.26 314.015,1445.26 316.104,1445.26 318.193,1445.26 320.282,1445.27 322.371,1445.27 324.459,1445.27 326.548,1445.27 328.637,1445.28 330.726,1445.28 332.815,1445.28 334.904,1445.29 336.993,1445.29 339.082,1445.29 341.171,1445.29 343.26,1445.3 345.349,1445.3 347.438,1445.3 349.527,1445.3 351.616,1445.31 353.705,1445.31 355.794,1445.31 357.882,1445.32 359.971,1445.32 362.06,1445.32 364.149,1445.32 366.238,1445.33 368.327,1445.33 370.416,1445.33 372.505,1445.34 374.594,1445.34 376.683,1445.34 378.772,1445.34 380.861,1445.35 382.95,1445.35 385.039,1445.35 387.128,1445.36 389.217,1445.36 391.305,1445.36 393.394,1445.36 395.483,1445.37 397.572,1445.37 399.661,1445.37 401.75,1445.38 403.839,1445.38 405.928,1445.38 408.017,1445.38 410.106,1445.39 412.195,1445.39 414.284,1445.39 416.373,1445.4 418.462,1445.4 420.551,1445.4 422.64,1445.41 424.728,1445.41 426.817,1445.41 428.906,1445.41 430.995,1445.42 433.084,1445.42 435.173,1445.42 437.262,1445.43 439.351,1445.43 441.44,1445.43 443.529,1445.44 445.618,1445.44 447.707,1445.44 449.796,1445.45 451.885,1445.45 453.974,1445.45 456.063,1445.45 458.152,1445.46 460.24,1445.46 462.329,1445.46 464.418,1445.47 466.507,1445.47 468.596,1445.47 470.685,1445.48 472.774,1445.48 474.863,1445.48 476.952,1445.49 479.041,1445.49 481.13,1445.49 483.219,1445.5 485.308,1445.5 487.397,1445.5 489.486,1445.5 491.575,1445.51 493.663,1445.51 495.752,1445.51 497.841,1445.52 499.93,1445.52 502.019,1445.52 504.108,1445.53 506.197,1445.53 508.286,1445.53 510.375,1445.54 512.464,1445.54 514.553,1445.54 516.642,1445.54 518.731,1445.55 520.82,1445.55 522.909,1445.55 524.998,1445.56 527.086,1445.56 529.175,1445.56 531.264,1445.57 533.353,1445.57 535.442,1445.57 537.531,1445.58 539.62,1445.58 541.709,1445.58 543.798,1445.58 545.887,1445.59 547.976,1445.59 550.065,1445.59 552.154,1445.6 554.243,1445.6 556.332,1445.6 558.421,1445.61 560.509,1445.61 562.598,1445.61 564.687,1445.61 566.776,1445.62 568.865,1445.62 570.954,1445.62 573.043,1445.63 575.132,1445.63 577.221,1445.63 579.31,1445.63 581.399,1445.64 583.488,1445.64 585.577,1445.64 587.666,1445.64 589.755,1445.65 591.844,1445.65 593.932,1445.65 596.021,1445.65 598.11,1445.66 600.199,1445.66 602.288,1445.66 604.377,1445.66 606.466,1445.67 608.555,1445.67 610.644,1445.67 612.733,1445.67 614.822,1445.68 616.911,1445.68 619,1445.68 621.089,1445.68 623.178,1445.68 625.267,1445.69 627.356,1445.69 629.444,1445.69 631.533,1445.69 633.622,1445.69 635.711,1445.7 637.8,1445.7 639.889,1445.7 641.978,1445.7 644.067,1445.7 646.156,1445.7 648.245,1445.7 650.334,1445.71 652.423,1445.71 654.512,1445.71 656.601,1445.71 658.69,1445.71 660.779,1445.71 662.867,1445.71 664.956,1445.71 667.045,1445.71 669.134,1445.71 671.223,1445.71 673.312,1445.71 675.401,1445.72 677.49,1445.72 679.579,1445.72 681.668,1445.72 683.757,1445.72 685.846,1445.72 687.935,1445.72 690.024,1445.71 692.113,1445.71 694.202,1445.71 696.29,1445.71 698.379,1445.71 700.468,1445.71 702.557,1445.71 704.646,1445.71 706.735,1445.71 708.824,1445.71 710.913,1445.7 713.002,1445.7 715.091,1445.7 717.18,1445.7 719.269,1445.69 721.358,1445.69 723.447,1445.69 725.536,1445.69 727.625,1445.68 729.713,1445.68 731.802,1445.68 733.891,1445.67 735.98,1445.67 738.069,1445.66 740.158,1445.66 742.247,1445.66 744.336,1445.65 746.425,1445.64 748.514,1445.64 750.603,1445.63 752.692,1445.63 754.781,1445.62 756.87,1445.62 758.959,1445.61 761.048,1445.6 763.136,1445.59 765.225,1445.59 767.314,1445.58 769.403,1445.57 771.492,1445.56 773.581,1445.55 775.67,1445.54 777.759,1445.53 779.848,1445.52 781.937,1445.51 784.026,1445.5 786.115,1445.49 788.204,1445.48 790.293,1445.46 792.382,1445.45 794.471,1445.44 796.56,1445.42 798.648,1445.41 800.737,1445.4 802.826,1445.38 804.915,1445.36 807.004,1445.35 809.093,1445.33 811.182,1445.31 813.271,1445.29 815.36,1445.28 817.449,1445.26 819.538,1445.24 821.627,1445.21 823.716,1445.19 825.805,1445.17 827.894,1445.15 829.983,1445.12 832.071,1445.1 834.16,1445.07 836.249,1445.05 838.338,1445.02 840.427,1444.99 842.516,1444.96 844.605,1444.93 846.694,1444.9 848.783,1444.87 850.872,1444.83 852.961,1444.8 855.05,1444.76 857.139,1444.73 859.228,1444.69 861.317,1444.65 863.406,1444.61 865.494,1444.57 867.583,1444.52 869.672,1444.48 871.761,1444.43 873.85,1444.39 875.939,1444.34 878.028,1444.29 880.117,1444.23 882.206,1444.18 884.295,1444.12 886.384,1444.07 888.473,1444.01 890.562,1443.95 892.651,1443.88 894.74,1443.82 896.829,1443.75 898.917,1443.68 901.006,1443.61 903.095,1443.53 905.184,1443.46 907.273,1443.38 909.362,1443.3 911.451,1443.21 913.54,1443.12 915.629,1443.03 917.718,1442.94 919.807,1442.84 921.896,1442.75 923.985,1442.64 926.074,1442.54 928.163,1442.43 930.252,1442.31 932.341,1442.2 934.429,1442.08 936.518,1441.95 938.607,1441.83 940.696,1441.69 942.785,1441.56 944.874,1441.42 946.963,1441.27 949.052,1441.12 951.141,1440.96 953.23,1440.8 955.319,1440.64 957.408,1440.46 959.497,1440.29 961.586,1440.11 963.675,1439.92 965.764,1439.72 967.852,1439.52 969.941,1439.31 972.03,1439.1 974.119,1438.88 976.208,1438.65 978.297,1438.41 980.386,1438.17 982.475,1437.92 984.564,1437.66 986.653,1437.39 988.742,1437.11 990.831,1436.83 992.92,1436.54 995.009,1436.23 997.098,1435.92 999.187,1435.6 1001.28,1435.27 1003.36,1434.92 1005.45,1434.57 1007.54,1434.21 1009.63,1433.83 1011.72,1433.45 1013.81,1433.05 1015.9,1432.64 1017.99,1432.22 1020.08,1431.79 1022.16,1431.34 1024.25,1430.89 1026.34,1430.42 1028.43,1429.94 1030.52,1429.44 1032.61,1428.94 1034.7,1428.42 1036.79,1427.88 1038.88,1427.34 1040.97,1426.78 1043.05,1426.21 1045.14,1425.63 1047.23,1425.03 1049.32,1424.43 1051.41,1423.81 1053.5,1423.18 1055.59,1422.54 1057.68,1421.89 1059.77,1421.23 1061.85,1420.56 1063.94,1419.89 1066.03,1419.2 1068.12,1418.51 1070.21,1417.81 1072.3,1417.11 1074.39,1416.4 1076.48,1415.69 1078.57,1414.98 1080.66,1414.27 1082.74,1413.56 1084.83,1412.85 1086.92,1412.15 1089.01,1411.45 1091.1,1410.76 1093.19,1410.08 1095.28,1409.41 1097.37,1408.75 1099.46,1408.1 1101.54,1407.47 1103.63,1406.85 1105.72,1406.26 1107.81,1405.68 1109.9,1405.12 1111.99,1404.59 1114.08,1404.08 1116.17,1403.59 1118.26,1403.14 1120.34,1402.7 1122.43,1402.3 1124.52,1401.93 1126.61,1401.58 1128.7,1401.26 1130.79,1400.98 1132.88,1400.73 1134.97,1400.5 1137.06,1400.31 1139.15,1400.15 1141.23,1400.02 1143.32,1399.92 1145.41,1399.85 1147.5,1399.81 1149.59,1399.79 1151.68,1399.81 1153.77,1399.85 1155.86,1399.92 1157.95,1400.01 1160.03,1400.13 1162.12,1400.27 1164.21,1400.43 1166.3,1400.61 1168.39,1400.81 1170.48,1401.03 1172.57,1401.27 1174.66,1401.52 1176.75,1401.79 1178.84,1402.08 1180.92,1402.37 1183.01,1402.68 1185.1,1403 1187.19,1403.33 1189.28,1403.67 1191.37,1404.01 1193.46,1404.36 1195.55,1404.72 1197.64,1405.09 1199.72,1405.46 1201.81,1405.83 1203.9,1406.2 1205.99,1406.58 1208.08,1406.96 1210.17,1407.34 1212.26,1407.72 1214.35,1408.1 1216.44,1408.49 1218.53,1408.87 1220.61,1409.25 1222.7,1409.62 1224.79,1410 1226.88,1410.38 1228.97,1410.75 1231.06,1411.12 1233.15,1411.48 1235.24,1411.85 1237.33,1412.21 1239.41,1412.56 1241.5,1412.91 1243.59,1413.26 1245.68,1413.61 1247.77,1413.95 1249.86,1414.29 1251.95,1414.62 1254.04,1414.95 1256.13,1415.27 1258.21,1415.59 1260.3,1415.91 1262.39,1416.22 1264.48,1416.52 1266.57,1416.83 1268.66,1417.12 1270.75,1417.42 1272.84,1417.71 1274.93,1417.99 1277.02,1418.27 1279.1,1418.55 1281.19,1418.82 1283.28,1419.09 1285.37,1419.35 1287.46,1419.61 1289.55,1419.87 1291.64,1420.12 1293.73,1420.37 1295.82,1420.61 1297.9,1420.85 1299.99,1421.09 1302.08,1421.32 1304.17,1421.55 1306.26,1421.77 1308.35,1421.99 1310.44,1422.21 1312.53,1422.42 1314.62,1422.63 1316.71,1422.84 1318.79,1423.04 1320.88,1423.24 1322.97,1423.44 1325.06,1423.63 1327.15,1423.82 1329.24,1424.01 1331.33,1424.2 1333.42,1424.38 1335.51,1424.56 1337.59,1424.73 1339.68,1424.91 1341.77,1425.08 1343.86,1425.24 1345.95,1425.41 1348.04,1425.57 1350.13,1425.73 1352.22,1425.89 1354.31,1426.04 1356.39,1426.2 1358.48,1426.35 1360.57,1426.49 1362.66,1426.64 1364.75,1426.78 1366.84,1426.92 1368.93,1427.06 1371.02,1427.2 1373.11,1427.33 1375.2,1427.47 1377.28,1427.6 1379.37,1427.72 1381.46,1427.85 1383.55,1427.98 1385.64,1428.1 1387.73,1428.22 1389.82,1428.34 1391.91,1428.46 1394,1428.57 1396.08,1428.69 1398.17,1428.8 1400.26,1428.91 1402.35,1429.02 1404.44,1429.13 1406.53,1429.23 1408.62,1429.34 1410.71,1429.44 1412.8,1429.54 1414.89,1429.64 1416.97,1429.74 1419.06,1429.84 1421.15,1429.93 1423.24,1430.03 1425.33,1430.12 1427.42,1430.21 1429.51,1430.3 1431.6,1430.39 1433.69,1430.48 1435.77,1430.57 1437.86,1430.66 1439.95,1430.74 1442.04,1430.82 1444.13,1430.91 1446.22,1430.99 1448.31,1431.07 1450.4,1431.15 1452.49,1431.23 1454.58,1431.3 1456.66,1431.38 1458.75,1431.45 1460.84,1431.53 1462.93,1431.6 1465.02,1431.67 1467.11,1431.75 1469.2,1431.82 1471.29,1431.89 1473.38,1431.96 1475.46,1432.02 1477.55,1432.09 1479.64,1432.16 1481.73,1432.22 1483.82,1432.29 1485.91,1432.35 1488,1432.41 1490.09,1432.48 1492.18,1432.54 1494.26,1432.6 1496.35,1432.66 1498.44,1432.72 1500.53,1432.78 1502.62,1432.83 1504.71,1432.89 1506.8,1432.95 1508.89,1433 1510.98,1433.06 1513.07,1433.11 1515.15,1433.17 1517.24,1433.22 1519.33,1433.28 1521.42,1433.33 1523.51,1433.38 1525.6,1433.43 1527.69,1433.48 1529.78,1433.53 1531.87,1433.58 1533.95,1433.63 1536.04,1433.68 1538.13,1433.72 1540.22,1433.77 1542.31,1433.82 1544.4,1433.86 1546.49,1433.91 1548.58,1433.95 1550.67,1434 1552.76,1434.04 1554.84,1434.09 1556.93,1434.13 1559.02,1434.17 1561.11,1434.22 1563.2,1434.26 1565.29,1434.3 1567.38,1434.34 1569.47,1434.38 1571.56,1434.42 1573.64,1434.46 1575.73,1434.5 1577.82,1434.54 1579.91,1434.58 1582,1434.62 1584.09,1434.65 1586.18,1434.69 1588.27,1434.73 1590.36,1434.76 1592.45,1434.8 1594.53,1434.84 1596.62,1434.87 1598.71,1434.91 1600.8,1434.94 1602.89,1434.98 1604.98,1435.01 1607.07,1435.04 1609.16,1435.08 1611.25,1435.11 1613.33,1435.14 1615.42,1435.18 1617.51,1435.21 1619.6,1435.24 1621.69,1435.27 1623.78,1435.3 1625.87,1435.33 1627.96,1435.36 1630.05,1435.39 1632.13,1435.42 1634.22,1435.45 1636.31,1435.48 1638.4,1435.51 1640.49,1435.54 1642.58,1435.57 1644.67,1435.6 1646.76,1435.63 1648.85,1435.65 1650.94,1435.68 1653.02,1435.71 1655.11,1435.74 1657.2,1435.76 1659.29,1435.79 1661.38,1435.82 1663.47,1435.84 1665.56,1435.87 1667.65,1435.89 1669.74,1435.92 1671.82,1435.95 1673.91,1435.97 1676,1436 1678.09,1436.02 1680.18,1436.04 1682.27,1436.07 1684.36,1436.09 1686.45,1436.12 1688.54,1436.14 1690.63,1436.16 1692.71,1436.19 1694.8,1436.21 1696.89,1436.23 1698.98,1436.25 1701.07,1436.28 1703.16,1436.3 1705.25,1436.32 1707.34,1436.34 1709.43,1436.36 1711.51,1436.39 1713.6,1436.41 1715.69,1436.43 1717.78,1436.45 1719.87,1436.47 1721.96,1436.49 1724.05,1436.51 1726.14,1436.53 1728.23,1436.55 1730.31,1436.57 1732.4,1436.59 1734.49,1436.61 1736.58,1436.63 1738.67,1436.65 1740.76,1436.67 1742.85,1436.69 1744.94,1436.71 1747.03,1436.72 1749.12,1436.74 1751.2,1436.76 1753.29,1436.78 1755.38,1436.8 1757.47,1436.81 1759.56,1436.83 1761.65,1436.85 1763.74,1436.87 1765.83,1436.88 1767.92,1436.9 1770,1436.92 1772.09,1436.94 1774.18,1436.95 1776.27,1436.97 1778.36,1436.99 1780.45,1437 1782.54,1437.02 1784.63,1437.03 1786.72,1437.05 1788.81,1437.07 1790.89,1437.08 1792.98,1437.1 1795.07,1437.11 1797.16,1437.13 1799.25,1437.14 1801.34,1437.16 1803.43,1437.18 1805.52,1437.19 1807.61,1437.2 1809.69,1437.22 1811.78,1437.23 1813.87,1437.25 1815.96,1437.26 1818.05,1437.28 1820.14,1437.29 1822.23,1437.31 1824.32,1437.32 1826.41,1437.33 1828.5,1437.35 1830.58,1437.36 1832.67,1437.38 1834.76,1437.39 1836.85,1437.4 1838.94,1437.42 1841.03,1437.43 1843.12,1437.44 1845.21,1437.45 1847.3,1437.47 1849.38,1437.48 1851.47,1437.49 1853.56,1437.51 1855.65,1437.52 1857.74,1437.53 1859.83,1437.54 1861.92,1437.56 1864.01,1437.57 1866.1,1437.58 1868.18,1437.59 1870.27,1437.6 1872.36,1437.62 1874.45,1437.63 1876.54,1437.64 1878.63,1437.65 1880.72,1437.66 1882.81,1437.67 1884.9,1437.69 1886.99,1437.7 1889.07,1437.71 1891.16,1437.72 1893.25,1437.73 1895.34,1437.74 1897.43,1437.75 1899.52,1437.76 1901.61,1437.77 1903.7,1437.78 1905.79,1437.8 1907.87,1437.81 1909.96,1437.82 1912.05,1437.83 1914.14,1437.84 1916.23,1437.85 1918.32,1437.86 1920.41,1437.87 1922.5,1437.88 1924.59,1437.89 1926.68,1437.9 1928.76,1437.91 1930.85,1437.92 1932.94,1437.93 1935.03,1437.94 1937.12,1437.95 1939.21,1437.96 1941.3,1437.97 1943.39,1437.98 1945.48,1437.98 1947.56,1437.99 1949.65,1438 1951.74,1438.01 1953.83,1438.02 1955.92,1438.03 1958.01,1438.04 1960.1,1438.05 1962.19,1438.06 1964.28,1438.07 1966.36,1438.08 1968.45,1438.08 1970.54,1438.09 1972.63,1438.1 1974.72,1438.11 1976.81,1438.12 1978.9,1438.13 1980.99,1438.14 1983.08,1438.14 1985.17,1438.15 1987.25,1438.16 1989.34,1438.17 1991.43,1438.18 1993.52,1438.18 1995.61,1438.19 1997.7,1438.2 1999.79,1438.21 2001.88,1438.22 2003.97,1438.22 2006.05,1438.23 2008.14,1438.24 2010.23,1438.25 2012.32,1438.26 2014.41,1438.26 2016.5,1438.27 2018.59,1438.28 2020.68,1438.29 2022.77,1438.29 2024.86,1438.3 2026.94,1438.31 2029.03,1438.31 2031.12,1438.32 2033.21,1438.33 2035.3,1438.34 2037.39,1438.34 2039.48,1438.35 2041.57,1438.36 2043.66,1438.36 2045.74,1438.37 2047.83,1438.38 2049.92,1438.38 2052.01,1438.39 2054.1,1438.4 2056.19,1438.41 2058.28,1438.41 2060.37,1438.42 2062.46,1438.42 2064.55,1438.43 2066.63,1438.44 2068.72,1438.44 2070.81,1438.45 2072.9,1438.46 2074.99,1438.46 2077.08,1438.47 2079.17,1438.48 2081.26,1438.48 2083.35,1438.49 2085.43,1438.49 2087.52,1438.5 2089.61,1438.51 2091.7,1438.51 2093.79,1438.52 2095.88,1438.53 2097.97,1438.53 2100.06,1438.54 2102.15,1438.54 2104.23,1438.55 2106.32,1438.55 2108.41,1438.56 2110.5,1438.57 2112.59,1438.57 2114.68,1438.58 2116.77,1438.58 2118.86,1438.59 2120.95,1438.59 2123.04,1438.6 2125.12,1438.61 2127.21,1438.61 2129.3,1438.62 2131.39,1438.62 2133.48,1438.63 2135.57,1438.63 2137.66,1438.64 2139.75,1438.64 2141.84,1438.65 2143.92,1438.65 2146.01,1438.66 2148.1,1438.66 2150.19,1438.67 2152.28,1438.67 2154.37,1438.68 2156.46,1438.68 2158.55,1438.69 2160.64,1438.69 2162.73,1438.7 2164.81,1438.7 2166.9,1438.71 2168.99,1438.71 2171.08,1438.72 2173.17,1438.72 2175.26,1438.73 2177.35,1438.73 2179.44,1438.74 2181.53,1438.74 2183.61,1438.75 2185.7,1438.75 2187.79,1438.76 2189.88,1438.76 2191.97,1438.77 2194.06,1438.77 2196.15,1438.78 2198.24,1438.78 2200.33,1438.78 2202.42,1438.79 2204.5,1438.79 2206.59,1438.8 2208.68,1438.8 2210.77,1438.81 2212.86,1438.81 2214.95,1438.81 2217.04,1438.82 2219.13,1438.82 2221.22,1438.83 2223.3,1438.83 2225.39,1438.84 2227.48,1438.84 2229.57,1438.84 2231.66,1438.85 2233.75,1438.85 2235.84,1438.86 2237.93,1438.86 2240.02,1438.86 2242.1,1438.87 2244.19,1438.87 2246.28,1438.88 2248.37,1438.88 2250.46,1438.88 2252.55,1438.89 2254.64,1438.89 2256.73,1438.9 2258.82,1438.9 2260.91,1438.9 2262.99,1438.91 2265.08,1438.91 2267.17,1438.91 2269.26,1438.92 2271.35,1438.92 2273.44,1438.93 2275.53,1438.93 2277.62,1438.93 2279.71,1438.94 2281.79,1438.94 2283.88,1438.94 2285.97,1438.95 2288.06,1438.95 2290.15,1438.95 "/>
<polyline clip-path="url(#clip431)" style="stroke:#e26f46; stroke-linecap:round; stroke-linejoin:round; stroke-width:4; stroke-opacity:1; fill:none" points="203.301,1442.98 205.39,1443.01 207.479,1443.05 209.568,1443.08 211.657,1443.11 213.746,1443.15 215.835,1443.18 217.924,1443.22 220.013,1443.25 222.101,1443.28 224.19,1443.32 226.279,1443.35 228.368,1443.38 230.457,1443.42 232.546,1443.45 234.635,1443.48 236.724,1443.52 238.813,1443.55 240.902,1443.58 242.991,1443.62 245.08,1443.65 247.169,1443.68 249.258,1443.71 251.347,1443.75 253.436,1443.78 255.524,1443.81 257.613,1443.84 259.702,1443.87 261.791,1443.91 263.88,1443.94 265.969,1443.97 268.058,1444 270.147,1444.03 272.236,1444.06 274.325,1444.09 276.414,1444.13 278.503,1444.16 280.592,1444.19 282.681,1444.22 284.77,1444.25 286.859,1444.28 288.947,1444.31 291.036,1444.34 293.125,1444.37 295.214,1444.4 297.303,1444.43 299.392,1444.45 301.481,1444.48 303.57,1444.51 305.659,1444.54 307.748,1444.57 309.837,1444.6 311.926,1444.63 314.015,1444.65 316.104,1444.68 318.193,1444.71 320.282,1444.74 322.371,1444.76 324.459,1444.79 326.548,1444.81 328.637,1444.84 330.726,1444.87 332.815,1444.89 334.904,1444.92 336.993,1444.94 339.082,1444.97 341.171,1444.99 343.26,1445.02 345.349,1445.04 347.438,1445.06 349.527,1445.09 351.616,1445.11 353.705,1445.13 355.794,1445.16 357.882,1445.18 359.971,1445.2 362.06,1445.22 364.149,1445.24 366.238,1445.26 368.327,1445.28 370.416,1445.3 372.505,1445.32 374.594,1445.34 376.683,1445.36 378.772,1445.38 380.861,1445.4 382.95,1445.42 385.039,1445.43 387.128,1445.45 389.217,1445.47 391.305,1445.48 393.394,1445.5 395.483,1445.51 397.572,1445.53 399.661,1445.54 401.75,1445.56 403.839,1445.57 405.928,1445.58 408.017,1445.59 410.106,1445.61 412.195,1445.62 414.284,1445.63 416.373,1445.64 418.462,1445.65 420.551,1445.66 422.64,1445.66 424.728,1445.67 426.817,1445.68 428.906,1445.69 430.995,1445.69 433.084,1445.7 435.173,1445.7 437.262,1445.71 439.351,1445.71 441.44,1445.71 443.529,1445.71 445.618,1445.72 447.707,1445.72 449.796,1445.72 451.885,1445.71 453.974,1445.71 456.063,1445.71 458.152,1445.71 460.24,1445.7 462.329,1445.7 464.418,1445.69 466.507,1445.69 468.596,1445.68 470.685,1445.67 472.774,1445.66 474.863,1445.65 476.952,1445.64 479.041,1445.63 481.13,1445.61 483.219,1445.6 485.308,1445.59 487.397,1445.57 489.486,1445.55 491.575,1445.53 493.663,1445.51 495.752,1445.49 497.841,1445.47 499.93,1445.45 502.019,1445.43 504.108,1445.4 506.197,1445.38 508.286,1445.35 510.375,1445.32 512.464,1445.29 514.553,1445.26 516.642,1445.23 518.731,1445.19 520.82,1445.16 522.909,1445.12 524.998,1445.08 527.086,1445.04 529.175,1445 531.264,1444.96 533.353,1444.91 535.442,1444.87 537.531,1444.82 539.62,1444.77 541.709,1444.72 543.798,1444.67 545.887,1444.61 547.976,1444.56 550.065,1444.5 552.154,1444.44 554.243,1444.38 556.332,1444.32 558.421,1444.25 560.509,1444.18 562.598,1444.11 564.687,1444.04 566.776,1443.97 568.865,1443.89 570.954,1443.82 573.043,1443.74 575.132,1443.65 577.221,1443.57 579.31,1443.48 581.399,1443.39 583.488,1443.3 585.577,1443.21 587.666,1443.11 589.755,1443.01 591.844,1442.91 593.932,1442.8 596.021,1442.7 598.11,1442.59 600.199,1442.47 602.288,1442.36 604.377,1442.24 606.466,1442.12 608.555,1441.99 610.644,1441.86 612.733,1441.73 614.822,1441.6 616.911,1441.46 619,1441.32 621.089,1441.17 623.178,1441.02 625.267,1440.87 627.356,1440.71 629.444,1440.55 631.533,1440.39 633.622,1440.22 635.711,1440.05 637.8,1439.88 639.889,1439.7 641.978,1439.51 644.067,1439.32 646.156,1439.13 648.245,1438.93 650.334,1438.73 652.423,1438.52 654.512,1438.31 656.601,1438.09 658.69,1437.87 660.779,1437.64 662.867,1437.41 664.956,1437.17 667.045,1436.93 669.134,1436.68 671.223,1436.43 673.312,1436.17 675.401,1435.9 677.49,1435.63 679.579,1435.35 681.668,1435.06 683.757,1434.77 685.846,1434.47 687.935,1434.17 690.024,1433.86 692.113,1433.54 694.202,1433.21 696.29,1432.88 698.379,1432.53 700.468,1432.18 702.557,1431.83 704.646,1431.46 706.735,1431.09 708.824,1430.71 710.913,1430.31 713.002,1429.91 715.091,1429.51 717.18,1429.09 719.269,1428.66 721.358,1428.22 723.447,1427.77 725.536,1427.32 727.625,1426.85 729.713,1426.37 731.802,1425.88 733.891,1425.38 735.98,1424.87 738.069,1424.34 740.158,1423.81 742.247,1423.26 744.336,1422.7 746.425,1422.13 748.514,1421.54 750.603,1420.94 752.692,1420.33 754.781,1419.7 756.87,1419.06 758.959,1418.4 761.048,1417.73 763.136,1417.04 765.225,1416.33 767.314,1415.61 769.403,1414.88 771.492,1414.12 773.581,1413.35 775.67,1412.56 777.759,1411.75 779.848,1410.93 781.937,1410.08 784.026,1409.21 786.115,1408.33 788.204,1407.42 790.293,1406.49 792.382,1405.54 794.471,1404.57 796.56,1403.57 798.648,1402.55 800.737,1401.51 802.826,1400.44 804.915,1399.34 807.004,1398.22 809.093,1397.07 811.182,1395.9 813.271,1394.69 815.36,1393.46 817.449,1392.2 819.538,1390.9 821.627,1389.58 823.716,1388.22 825.805,1386.83 827.894,1385.4 829.983,1383.94 832.071,1382.44 834.16,1380.91 836.249,1379.34 838.338,1377.73 840.427,1376.08 842.516,1374.38 844.605,1372.65 846.694,1370.87 848.783,1369.05 850.872,1367.18 852.961,1365.26 855.05,1363.29 857.139,1361.28 859.228,1359.21 861.317,1357.09 863.406,1354.92 865.494,1352.68 867.583,1350.4 869.672,1348.05 871.761,1345.64 873.85,1343.17 875.939,1340.63 878.028,1338.03 880.117,1335.35 882.206,1332.61 884.295,1329.8 886.384,1326.91 888.473,1323.94 890.562,1320.89 892.651,1317.77 894.74,1314.55 896.829,1311.26 898.917,1307.87 901.006,1304.39 903.095,1300.82 905.184,1297.15 907.273,1293.38 909.362,1289.51 911.451,1285.53 913.54,1281.44 915.629,1277.24 917.718,1272.93 919.807,1268.49 921.896,1263.93 923.985,1259.25 926.074,1254.44 928.163,1249.49 930.252,1244.4 932.341,1239.17 934.429,1233.8 936.518,1228.27 938.607,1222.59 940.696,1216.76 942.785,1210.75 944.874,1204.58 946.963,1198.24 949.052,1191.71 951.141,1185.01 953.23,1178.11 955.319,1171.02 957.408,1163.73 959.497,1156.24 961.586,1148.54 963.675,1140.62 965.764,1132.48 967.852,1124.11 969.941,1115.51 972.03,1106.67 974.119,1097.59 976.208,1088.26 978.297,1078.67 980.386,1068.82 982.475,1058.7 984.564,1048.3 986.653,1037.63 988.742,1026.68 990.831,1015.43 992.92,1003.89 995.009,992.052 997.098,979.908 999.187,967.455 1001.28,954.689 1003.36,941.606 1005.45,928.204 1007.54,914.48 1009.63,900.432 1011.72,886.058 1013.81,871.358 1015.9,856.331 1017.99,840.979 1020.08,825.304 1022.16,809.307 1024.25,792.994 1026.34,776.369 1028.43,759.439 1030.52,742.212 1032.61,724.695 1034.7,706.902 1036.79,688.842 1038.88,670.532 1040.97,651.986 1043.05,633.222 1045.14,614.259 1047.23,595.12 1049.32,575.827 1051.41,556.407 1053.5,536.886 1055.59,517.295 1057.68,497.665 1059.77,478.03 1061.85,458.426 1063.94,438.889 1066.03,419.46 1068.12,400.179 1070.21,381.089 1072.3,362.232 1074.39,343.655 1076.48,325.402 1078.57,307.519 1080.66,290.052 1082.74,273.049 1084.83,256.555 1086.92,240.616 1089.01,225.276 1091.1,210.577 1093.19,196.562 1095.28,183.27 1097.37,170.737 1099.46,158.999 1101.54,148.086 1103.63,138.027 1105.72,128.847 1107.81,120.567 1109.9,113.204 1111.99,106.772 1114.08,101.28 1116.17,96.7336 1118.26,93.1346 1120.34,90.4804 1122.43,88.7643 1124.52,87.9763 1126.61,88.1025 1128.7,89.1257 1130.79,91.0255 1132.88,93.7786 1134.97,97.3589 1137.06,101.738 1139.15,106.885 1141.23,112.769 1143.32,119.354 1145.41,126.606 1147.5,134.489 1149.59,142.966 1151.68,152 1153.77,161.553 1155.86,171.588 1157.95,182.069 1160.03,192.958 1162.12,204.219 1164.21,215.819 1166.3,227.722 1168.39,239.895 1170.48,252.307 1172.57,264.926 1174.66,277.724 1176.75,290.672 1178.84,303.743 1180.92,316.912 1183.01,330.156 1185.1,343.451 1187.19,356.777 1189.28,370.113 1191.37,383.442 1193.46,396.746 1195.55,410.009 1197.64,423.217 1199.72,436.356 1201.81,449.413 1203.9,462.378 1205.99,475.241 1208.08,487.991 1210.17,500.621 1212.26,513.122 1214.35,525.49 1216.44,537.717 1218.53,549.798 1220.61,561.729 1222.7,573.506 1224.79,585.126 1226.88,596.586 1228.97,607.883 1231.06,619.017 1233.15,629.985 1235.24,640.787 1237.33,651.422 1239.41,661.89 1241.5,672.191 1243.59,682.326 1245.68,692.294 1247.77,702.097 1249.86,711.736 1251.95,721.211 1254.04,730.525 1256.13,739.679 1258.21,748.675 1260.3,757.513 1262.39,766.197 1264.48,774.728 1266.57,783.108 1268.66,791.339 1270.75,799.424 1272.84,807.364 1274.93,815.162 1277.02,822.821 1279.1,830.341 1281.19,837.727 1283.28,844.979 1285.37,852.101 1287.46,859.095 1289.55,865.962 1291.64,872.706 1293.73,879.328 1295.82,885.831 1297.9,892.218 1299.99,898.489 1302.08,904.649 1304.17,910.698 1306.26,916.639 1308.35,922.474 1310.44,928.206 1312.53,933.835 1314.62,939.365 1316.71,944.798 1318.79,950.134 1320.88,955.377 1322.97,960.529 1325.06,965.59 1327.15,970.563 1329.24,975.45 1331.33,980.252 1333.42,984.972 1335.51,989.611 1337.59,994.17 1339.68,998.651 1341.77,1003.06 1343.86,1007.39 1345.95,1011.65 1348.04,1015.83 1350.13,1019.95 1352.22,1024 1354.31,1027.98 1356.39,1031.89 1358.48,1035.74 1360.57,1039.53 1362.66,1043.25 1364.75,1046.92 1366.84,1050.53 1368.93,1054.07 1371.02,1057.56 1373.11,1061 1375.2,1064.38 1377.28,1067.71 1379.37,1070.98 1381.46,1074.2 1383.55,1077.38 1385.64,1080.5 1387.73,1083.57 1389.82,1086.6 1391.91,1089.58 1394,1092.52 1396.08,1095.41 1398.17,1098.26 1400.26,1101.06 1402.35,1103.82 1404.44,1106.55 1406.53,1109.23 1408.62,1111.87 1410.71,1114.47 1412.8,1117.03 1414.89,1119.56 1416.97,1122.05 1419.06,1124.51 1421.15,1126.92 1423.24,1129.31 1425.33,1131.66 1427.42,1133.98 1429.51,1136.26 1431.6,1138.51 1433.69,1140.73 1435.77,1142.92 1437.86,1145.08 1439.95,1147.21 1442.04,1149.31 1444.13,1151.39 1446.22,1153.43 1448.31,1155.45 1450.4,1157.43 1452.49,1159.4 1454.58,1161.33 1456.66,1163.24 1458.75,1165.13 1460.84,1166.99 1462.93,1168.82 1465.02,1170.64 1467.11,1172.43 1469.2,1174.19 1471.29,1175.93 1473.38,1177.65 1475.46,1179.35 1477.55,1181.03 1479.64,1182.68 1481.73,1184.32 1483.82,1185.93 1485.91,1187.53 1488,1189.1 1490.09,1190.66 1492.18,1192.19 1494.26,1193.71 1496.35,1195.21 1498.44,1196.69 1500.53,1198.15 1502.62,1199.6 1504.71,1201.03 1506.8,1202.44 1508.89,1203.83 1510.98,1205.21 1513.07,1206.57 1515.15,1207.91 1517.24,1209.24 1519.33,1210.56 1521.42,1211.86 1523.51,1213.14 1525.6,1214.41 1527.69,1215.67 1529.78,1216.91 1531.87,1218.13 1533.95,1219.35 1536.04,1220.55 1538.13,1221.73 1540.22,1222.9 1542.31,1224.06 1544.4,1225.21 1546.49,1226.35 1548.58,1227.47 1550.67,1228.58 1552.76,1229.67 1554.84,1230.76 1556.93,1231.83 1559.02,1232.9 1561.11,1233.95 1563.2,1234.99 1565.29,1236.02 1567.38,1237.04 1569.47,1238.04 1571.56,1239.04 1573.64,1240.03 1575.73,1241 1577.82,1241.97 1579.91,1242.93 1582,1243.87 1584.09,1244.81 1586.18,1245.74 1588.27,1246.66 1590.36,1247.57 1592.45,1248.47 1594.53,1249.36 1596.62,1250.24 1598.71,1251.11 1600.8,1251.98 1602.89,1252.83 1604.98,1253.68 1607.07,1254.52 1609.16,1255.35 1611.25,1256.17 1613.33,1256.99 1615.42,1257.8 1617.51,1258.6 1619.6,1259.39 1621.69,1260.17 1623.78,1260.95 1625.87,1261.72 1627.96,1262.48 1630.05,1263.24 1632.13,1263.99 1634.22,1264.73 1636.31,1265.46 1638.4,1266.19 1640.49,1266.91 1642.58,1267.63 1644.67,1268.34 1646.76,1269.04 1648.85,1269.73 1650.94,1270.42 1653.02,1271.1 1655.11,1271.78 1657.2,1272.45 1659.29,1273.12 1661.38,1273.78 1663.47,1274.43 1665.56,1275.08 1667.65,1275.72 1669.74,1276.35 1671.82,1276.98 1673.91,1277.61 1676,1278.23 1678.09,1278.84 1680.18,1279.45 1682.27,1280.06 1684.36,1280.66 1686.45,1281.25 1688.54,1281.84 1690.63,1282.42 1692.71,1283 1694.8,1283.57 1696.89,1284.14 1698.98,1284.71 1701.07,1285.27 1703.16,1285.82 1705.25,1286.37 1707.34,1286.92 1709.43,1287.46 1711.51,1288 1713.6,1288.53 1715.69,1289.06 1717.78,1289.59 1719.87,1290.11 1721.96,1290.62 1724.05,1291.13 1726.14,1291.64 1728.23,1292.14 1730.31,1292.64 1732.4,1293.14 1734.49,1293.63 1736.58,1294.12 1738.67,1294.61 1740.76,1295.09 1742.85,1295.56 1744.94,1296.04 1747.03,1296.51 1749.12,1296.97 1751.2,1297.43 1753.29,1297.89 1755.38,1298.35 1757.47,1298.8 1759.56,1299.25 1761.65,1299.69 1763.74,1300.14 1765.83,1300.57 1767.92,1301.01 1770,1301.44 1772.09,1301.87 1774.18,1302.3 1776.27,1302.72 1778.36,1303.14 1780.45,1303.56 1782.54,1303.97 1784.63,1304.38 1786.72,1304.79 1788.81,1305.19 1790.89,1305.59 1792.98,1305.99 1795.07,1306.39 1797.16,1306.78 1799.25,1307.17 1801.34,1307.56 1803.43,1307.94 1805.52,1308.33 1807.61,1308.71 1809.69,1309.08 1811.78,1309.46 1813.87,1309.83 1815.96,1310.2 1818.05,1310.56 1820.14,1310.93 1822.23,1311.29 1824.32,1311.65 1826.41,1312 1828.5,1312.36 1830.58,1312.71 1832.67,1313.06 1834.76,1313.41 1836.85,1313.75 1838.94,1314.09 1841.03,1314.43 1843.12,1314.77 1845.21,1315.11 1847.3,1315.44 1849.38,1315.77 1851.47,1316.1 1853.56,1316.43 1855.65,1316.75 1857.74,1317.07 1859.83,1317.39 1861.92,1317.71 1864.01,1318.03 1866.1,1318.34 1868.18,1318.65 1870.27,1318.96 1872.36,1319.27 1874.45,1319.58 1876.54,1319.88 1878.63,1320.18 1880.72,1320.49 1882.81,1320.78 1884.9,1321.08 1886.99,1321.37 1889.07,1321.67 1891.16,1321.96 1893.25,1322.25 1895.34,1322.54 1897.43,1322.82 1899.52,1323.11 1901.61,1323.39 1903.7,1323.67 1905.79,1323.95 1907.87,1324.22 1909.96,1324.5 1912.05,1324.77 1914.14,1325.04 1916.23,1325.31 1918.32,1325.58 1920.41,1325.85 1922.5,1326.12 1924.59,1326.38 1926.68,1326.64 1928.76,1326.9 1930.85,1327.16 1932.94,1327.42 1935.03,1327.68 1937.12,1327.93 1939.21,1328.18 1941.3,1328.44 1943.39,1328.69 1945.48,1328.93 1947.56,1329.18 1949.65,1329.43 1951.74,1329.67 1953.83,1329.92 1955.92,1330.16 1958.01,1330.4 1960.1,1330.64 1962.19,1330.87 1964.28,1331.11 1966.36,1331.35 1968.45,1331.58 1970.54,1331.81 1972.63,1332.04 1974.72,1332.27 1976.81,1332.5 1978.9,1332.73 1980.99,1332.95 1983.08,1333.18 1985.17,1333.4 1987.25,1333.62 1989.34,1333.84 1991.43,1334.06 1993.52,1334.28 1995.61,1334.5 1997.7,1334.71 1999.79,1334.93 2001.88,1335.14 2003.97,1335.36 2006.05,1335.57 2008.14,1335.78 2010.23,1335.99 2012.32,1336.19 2014.41,1336.4 2016.5,1336.61 2018.59,1336.81 2020.68,1337.01 2022.77,1337.22 2024.86,1337.42 2026.94,1337.62 2029.03,1337.82 2031.12,1338.02 2033.21,1338.21 2035.3,1338.41 2037.39,1338.6 2039.48,1338.8 2041.57,1338.99 2043.66,1339.18 2045.74,1339.38 2047.83,1339.57 2049.92,1339.75 2052.01,1339.94 2054.1,1340.13 2056.19,1340.32 2058.28,1340.5 2060.37,1340.69 2062.46,1340.87 2064.55,1341.05 2066.63,1341.23 2068.72,1341.41 2070.81,1341.59 2072.9,1341.77 2074.99,1341.95 2077.08,1342.13 2079.17,1342.3 2081.26,1342.48 2083.35,1342.65 2085.43,1342.83 2087.52,1343 2089.61,1343.17 2091.7,1343.34 2093.79,1343.51 2095.88,1343.68 2097.97,1343.85 2100.06,1344.02 2102.15,1344.19 2104.23,1344.35 2106.32,1344.52 2108.41,1344.68 2110.5,1344.85 2112.59,1345.01 2114.68,1345.17 2116.77,1345.33 2118.86,1345.49 2120.95,1345.65 2123.04,1345.81 2125.12,1345.97 2127.21,1346.13 2129.3,1346.28 2131.39,1346.44 2133.48,1346.6 2135.57,1346.75 2137.66,1346.9 2139.75,1347.06 2141.84,1347.21 2143.92,1347.36 2146.01,1347.51 2148.1,1347.66 2150.19,1347.81 2152.28,1347.96 2154.37,1348.11 2156.46,1348.26 2158.55,1348.41 2160.64,1348.55 2162.73,1348.7 2164.81,1348.84 2166.9,1348.99 2168.99,1349.13 2171.08,1349.27 2173.17,1349.42 2175.26,1349.56 2177.35,1349.7 2179.44,1349.84 2181.53,1349.98 2183.61,1350.12 2185.7,1350.26 2187.79,1350.39 2189.88,1350.53 2191.97,1350.67 2194.06,1350.8 2196.15,1350.94 2198.24,1351.07 2200.33,1351.21 2202.42,1351.34 2204.5,1351.48 2206.59,1351.61 2208.68,1351.74 2210.77,1351.87 2212.86,1352 2214.95,1352.13 2217.04,1352.26 2219.13,1352.39 2221.22,1352.52 2223.3,1352.65 2225.39,1352.78 2227.48,1352.9 2229.57,1353.03 2231.66,1353.16 2233.75,1353.28 2235.84,1353.41 2237.93,1353.53 2240.02,1353.65 2242.1,1353.78 2244.19,1353.9 2246.28,1354.02 2248.37,1354.15 2250.46,1354.27 2252.55,1354.39 2254.64,1354.51 2256.73,1354.63 2258.82,1354.75 2260.91,1354.87 2262.99,1354.98 2265.08,1355.1 2267.17,1355.22 2269.26,1355.34 2271.35,1355.45 2273.44,1355.57 2275.53,1355.68 2277.62,1355.8 2279.71,1355.91 2281.79,1356.03 2283.88,1356.14 2285.97,1356.25 2288.06,1356.37 2290.15,1356.48 "/>
<polyline clip-path="url(#clip431)" style="stroke:#3da44d; stroke-linecap:round; stroke-linejoin:round; stroke-width:4; stroke-opacity:1; fill:none" points="203.301,1445.13 205.39,1445.14 207.479,1445.14 209.568,1445.14 211.657,1445.14 213.746,1445.14 215.835,1445.15 217.924,1445.15 220.013,1445.15 222.101,1445.15 224.19,1445.16 226.279,1445.16 228.368,1445.16 230.457,1445.16 232.546,1445.16 234.635,1445.17 236.724,1445.17 238.813,1445.17 240.902,1445.17 242.991,1445.18 245.08,1445.18 247.169,1445.18 249.258,1445.18 251.347,1445.18 253.436,1445.19 255.524,1445.19 257.613,1445.19 259.702,1445.19 261.791,1445.2 263.88,1445.2 265.969,1445.2 268.058,1445.2 270.147,1445.21 272.236,1445.21 274.325,1445.21 276.414,1445.21 278.503,1445.22 280.592,1445.22 282.681,1445.22 284.77,1445.22 286.859,1445.23 288.947,1445.23 291.036,1445.23 293.125,1445.23 295.214,1445.24 297.303,1445.24 299.392,1445.24 301.481,1445.24 303.57,1445.25 305.659,1445.25 307.748,1445.25 309.837,1445.25 311.926,1445.26 314.015,1445.26 316.104,1445.26 318.193,1445.26 320.282,1445.27 322.371,1445.27 324.459,1445.27 326.548,1445.27 328.637,1445.28 330.726,1445.28 332.815,1445.28 334.904,1445.29 336.993,1445.29 339.082,1445.29 341.171,1445.29 343.26,1445.3 345.349,1445.3 347.438,1445.3 349.527,1445.3 351.616,1445.31 353.705,1445.31 355.794,1445.31 357.882,1445.32 359.971,1445.32 362.06,1445.32 364.149,1445.32 366.238,1445.33 368.327,1445.33 370.416,1445.33 372.505,1445.34 374.594,1445.34 376.683,1445.34 378.772,1445.34 380.861,1445.35 382.95,1445.35 385.039,1445.35 387.128,1445.36 389.217,1445.36 391.305,1445.36 393.394,1445.36 395.483,1445.37 397.572,1445.37 399.661,1445.37 401.75,1445.38 403.839,1445.38 405.928,1445.38 408.017,1445.38 410.106,1445.39 412.195,1445.39 414.284,1445.39 416.373,1445.4 418.462,1445.4 420.551,1445.4 422.64,1445.41 424.728,1445.41 426.817,1445.41 428.906,1445.41 430.995,1445.42 433.084,1445.42 435.173,1445.42 437.262,1445.43 439.351,1445.43 441.44,1445.43 443.529,1445.44 445.618,1445.44 447.707,1445.44 449.796,1445.45 451.885,1445.45 453.974,1445.45 456.063,1445.45 458.152,1445.46 460.24,1445.46 462.329,1445.46 464.418,1445.47 466.507,1445.47 468.596,1445.47 470.685,1445.48 472.774,1445.48 474.863,1445.48 476.952,1445.49 479.041,1445.49 481.13,1445.49 483.219,1445.5 485.308,1445.5 487.397,1445.5 489.486,1445.5 491.575,1445.51 493.663,1445.51 495.752,1445.51 497.841,1445.52 499.93,1445.52 502.019,1445.52 504.108,1445.53 506.197,1445.53 508.286,1445.53 510.375,1445.54 512.464,1445.54 514.553,1445.54 516.642,1445.54 518.731,1445.55 520.82,1445.55 522.909,1445.55 524.998,1445.56 527.086,1445.56 529.175,1445.56 531.264,1445.57 533.353,1445.57 535.442,1445.57 537.531,1445.58 539.62,1445.58 541.709,1445.58 543.798,1445.58 545.887,1445.59 547.976,1445.59 550.065,1445.59 552.154,1445.6 554.243,1445.6 556.332,1445.6 558.421,1445.61 560.509,1445.61 562.598,1445.61 564.687,1445.61 566.776,1445.62 568.865,1445.62 570.954,1445.62 573.043,1445.63 575.132,1445.63 577.221,1445.63 579.31,1445.63 581.399,1445.64 583.488,1445.64 585.577,1445.64 587.666,1445.64 589.755,1445.65 591.844,1445.65 593.932,1445.65 596.021,1445.65 598.11,1445.66 600.199,1445.66 602.288,1445.66 604.377,1445.66 606.466,1445.67 608.555,1445.67 610.644,1445.67 612.733,1445.67 614.822,1445.68 616.911,1445.68 619,1445.68 621.089,1445.68 623.178,1445.68 625.267,1445.69 627.356,1445.69 629.444,1445.69 631.533,1445.69 633.622,1445.69 635.711,1445.7 637.8,1445.7 639.889,1445.7 641.978,1445.7 644.067,1445.7 646.156,1445.7 648.245,1445.7 650.334,1445.71 652.423,1445.71 654.512,1445.71 656.601,1445.71 658.69,1445.71 660.779,1445.71 662.867,1445.71 664.956,1445.71 667.045,1445.71 669.134,1445.71 671.223,1445.71 673.312,1445.71 675.401,1445.72 677.49,1445.72 679.579,1445.72 681.668,1445.72 683.757,1445.72 685.846,1445.72 687.935,1445.72 690.024,1445.71 692.113,1445.71 694.202,1445.71 696.29,1445.71 698.379,1445.71 700.468,1445.71 702.557,1445.71 704.646,1445.71 706.735,1445.71 708.824,1445.71 710.913,1445.7 713.002,1445.7 715.091,1445.7 717.18,1445.7 719.269,1445.69 721.358,1445.69 723.447,1445.69 725.536,1445.69 727.625,1445.68 729.713,1445.68 731.802,1445.68 733.891,1445.67 735.98,1445.67 738.069,1445.66 740.158,1445.66 742.247,1445.66 744.336,1445.65 746.425,1445.64 748.514,1445.64 750.603,1445.63 752.692,1445.63 754.781,1445.62 756.87,1445.62 758.959,1445.61 761.048,1445.6 763.136,1445.59 765.225,1445.59 767.314,1445.58 769.403,1445.57 771.492,1445.56 773.581,1445.55 775.67,1445.54 777.759,1445.53 779.848,1445.52 781.937,1445.51 784.026,1445.5 786.115,1445.49 788.204,1445.48 790.293,1445.46 792.382,1445.45 794.471,1445.44 796.56,1445.42 798.648,1445.41 800.737,1445.4 802.826,1445.38 804.915,1445.36 807.004,1445.35 809.093,1445.33 811.182,1445.31 813.271,1445.29 815.36,1445.28 817.449,1445.26 819.538,1445.24 821.627,1445.21 823.716,1445.19 825.805,1445.17 827.894,1445.15 829.983,1445.12 832.071,1445.1 834.16,1445.07 836.249,1445.05 838.338,1445.02 840.427,1444.99 842.516,1444.96 844.605,1444.93 846.694,1444.9 848.783,1444.87 850.872,1444.83 852.961,1444.8 855.05,1444.76 857.139,1444.73 859.228,1444.69 861.317,1444.65 863.406,1444.61 865.494,1444.57 867.583,1444.52 869.672,1444.48 871.761,1444.43 873.85,1444.39 875.939,1444.34 878.028,1444.29 880.117,1444.23 882.206,1444.18 884.295,1444.12 886.384,1444.07 888.473,1444.01 890.562,1443.95 892.651,1443.88 894.74,1443.82 896.829,1443.75 898.917,1443.68 901.006,1443.61 903.095,1443.53 905.184,1443.46 907.273,1443.38 909.362,1443.3 911.451,1443.21 913.54,1443.12 915.629,1443.03 917.718,1442.94 919.807,1442.84 921.896,1442.75 923.985,1442.64 926.074,1442.54 928.163,1442.43 930.252,1442.31 932.341,1442.2 934.429,1442.08 936.518,1441.95 938.607,1441.83 940.696,1441.69 942.785,1441.56 944.874,1441.42 946.963,1441.27 949.052,1441.12 951.141,1440.96 953.23,1440.8 955.319,1440.64 957.408,1440.46 959.497,1440.29 961.586,1440.11 963.675,1439.92 965.764,1439.72 967.852,1439.52 969.941,1439.31 972.03,1439.1 974.119,1438.88 976.208,1438.65 978.297,1438.41 980.386,1438.17 982.475,1437.92 984.564,1437.66 986.653,1437.39 988.742,1437.11 990.831,1436.83 992.92,1436.54 995.009,1436.23 997.098,1435.92 999.187,1435.6 1001.28,1435.27 1003.36,1434.92 1005.45,1434.57 1007.54,1434.21 1009.63,1433.83 1011.72,1433.45 1013.81,1433.05 1015.9,1432.64 1017.99,1432.22 1020.08,1431.79 1022.16,1431.34 1024.25,1430.89 1026.34,1430.42 1028.43,1429.94 1030.52,1429.44 1032.61,1428.94 1034.7,1428.42 1036.79,1427.88 1038.88,1427.34 1040.97,1426.78 1043.05,1426.21 1045.14,1425.63 1047.23,1425.03 1049.32,1424.43 1051.41,1423.81 1053.5,1423.18 1055.59,1422.54 1057.68,1421.89 1059.77,1421.23 1061.85,1420.56 1063.94,1419.89 1066.03,1419.2 1068.12,1418.51 1070.21,1417.81 1072.3,1417.11 1074.39,1416.4 1076.48,1415.69 1078.57,1414.98 1080.66,1414.27 1082.74,1413.56 1084.83,1412.85 1086.92,1412.15 1089.01,1411.45 1091.1,1410.76 1093.19,1410.08 1095.28,1409.41 1097.37,1408.75 1099.46,1408.1 1101.54,1407.47 1103.63,1406.85 1105.72,1406.26 1107.81,1405.68 1109.9,1405.12 1111.99,1404.59 1114.08,1404.08 1116.17,1403.59 1118.26,1403.14 1120.34,1402.7 1122.43,1402.3 1124.52,1401.93 1126.61,1401.58 1128.7,1401.26 1130.79,1400.98 1132.88,1400.73 1134.97,1400.5 1137.06,1400.31 1139.15,1400.15 1141.23,1400.02 1143.32,1399.92 1145.41,1399.85 1147.5,1399.81 1149.59,1399.79 1151.68,1399.81 1153.77,1399.85 1155.86,1399.92 1157.95,1400.01 1160.03,1400.13 1162.12,1400.27 1164.21,1400.43 1166.3,1400.61 1168.39,1400.81 1170.48,1401.03 1172.57,1401.27 1174.66,1401.52 1176.75,1401.79 1178.84,1402.08 1180.92,1402.37 1183.01,1402.68 1185.1,1403 1187.19,1403.33 1189.28,1403.67 1191.37,1404.01 1193.46,1404.36 1195.55,1404.72 1197.64,1405.09 1199.72,1405.46 1201.81,1405.83 1203.9,1406.2 1205.99,1406.58 1208.08,1406.96 1210.17,1407.34 1212.26,1407.72 1214.35,1408.1 1216.44,1408.49 1218.53,1408.87 1220.61,1409.25 1222.7,1409.62 1224.79,1410 1226.88,1410.38 1228.97,1410.75 1231.06,1411.12 1233.15,1411.48 1235.24,1411.85 1237.33,1412.21 1239.41,1412.56 1241.5,1412.91 1243.59,1413.26 1245.68,1413.61 1247.77,1413.95 1249.86,1414.29 1251.95,1414.62 1254.04,1414.95 1256.13,1415.27 1258.21,1415.59 1260.3,1415.91 1262.39,1416.22 1264.48,1416.52 1266.57,1416.83 1268.66,1417.12 1270.75,1417.42 1272.84,1417.71 1274.93,1417.99 1277.02,1418.27 1279.1,1418.55 1281.19,1418.82 1283.28,1419.09 1285.37,1419.35 1287.46,1419.61 1289.55,1419.87 1291.64,1420.12 1293.73,1420.37 1295.82,1420.61 1297.9,1420.85 1299.99,1421.09 1302.08,1421.32 1304.17,1421.55 1306.26,1421.77 1308.35,1421.99 1310.44,1422.21 1312.53,1422.42 1314.62,1422.63 1316.71,1422.84 1318.79,1423.04 1320.88,1423.24 1322.97,1423.44 1325.06,1423.63 1327.15,1423.82 1329.24,1424.01 1331.33,1424.2 1333.42,1424.38 1335.51,1424.56 1337.59,1424.73 1339.68,1424.91 1341.77,1425.08 1343.86,1425.24 1345.95,1425.41 1348.04,1425.57 1350.13,1425.73 1352.22,1425.89 1354.31,1426.04 1356.39,1426.2 1358.48,1426.35 1360.57,1426.49 1362.66,1426.64 1364.75,1426.78 1366.84,1426.92 1368.93,1427.06 1371.02,1427.2 1373.11,1427.33 1375.2,1427.47 1377.28,1427.6 1379.37,1427.72 1381.46,1427.85 1383.55,1427.98 1385.64,1428.1 1387.73,1428.22 1389.82,1428.34 1391.91,1428.46 1394,1428.57 1396.08,1428.69 1398.17,1428.8 1400.26,1428.91 1402.35,1429.02 1404.44,1429.13 1406.53,1429.23 1408.62,1429.34 1410.71,1429.44 1412.8,1429.54 1414.89,1429.64 1416.97,1429.74 1419.06,1429.84 1421.15,1429.93 1423.24,1430.03 1425.33,1430.12 1427.42,1430.21 1429.51,1430.3 1431.6,1430.39 1433.69,1430.48 1435.77,1430.57 1437.86,1430.66 1439.95,1430.74 1442.04,1430.82 1444.13,1430.91 1446.22,1430.99 1448.31,1431.07 1450.4,1431.15 1452.49,1431.23 1454.58,1431.3 1456.66,1431.38 1458.75,1431.45 1460.84,1431.53 1462.93,1431.6 1465.02,1431.67 1467.11,1431.75 1469.2,1431.82 1471.29,1431.89 1473.38,1431.96 1475.46,1432.02 1477.55,1432.09 1479.64,1432.16 1481.73,1432.22 1483.82,1432.29 1485.91,1432.35 1488,1432.41 1490.09,1432.48 1492.18,1432.54 1494.26,1432.6 1496.35,1432.66 1498.44,1432.72 1500.53,1432.78 1502.62,1432.83 1504.71,1432.89 1506.8,1432.95 1508.89,1433 1510.98,1433.06 1513.07,1433.11 1515.15,1433.17 1517.24,1433.22 1519.33,1433.28 1521.42,1433.33 1523.51,1433.38 1525.6,1433.43 1527.69,1433.48 1529.78,1433.53 1531.87,1433.58 1533.95,1433.63 1536.04,1433.68 1538.13,1433.72 1540.22,1433.77 1542.31,1433.82 1544.4,1433.86 1546.49,1433.91 1548.58,1433.95 1550.67,1434 1552.76,1434.04 1554.84,1434.09 1556.93,1434.13 1559.02,1434.17 1561.11,1434.22 1563.2,1434.26 1565.29,1434.3 1567.38,1434.34 1569.47,1434.38 1571.56,1434.42 1573.64,1434.46 1575.73,1434.5 1577.82,1434.54 1579.91,1434.58 1582,1434.62 1584.09,1434.65 1586.18,1434.69 1588.27,1434.73 1590.36,1434.76 1592.45,1434.8 1594.53,1434.84 1596.62,1434.87 1598.71,1434.91 1600.8,1434.94 1602.89,1434.98 1604.98,1435.01 1607.07,1435.04 1609.16,1435.08 1611.25,1435.11 1613.33,1435.14 1615.42,1435.18 1617.51,1435.21 1619.6,1435.24 1621.69,1435.27 1623.78,1435.3 1625.87,1435.33 1627.96,1435.36 1630.05,1435.39 1632.13,1435.42 1634.22,1435.45 1636.31,1435.48 1638.4,1435.51 1640.49,1435.54 1642.58,1435.57 1644.67,1435.6 1646.76,1435.63 1648.85,1435.65 1650.94,1435.68 1653.02,1435.71 1655.11,1435.74 1657.2,1435.76 1659.29,1435.79 1661.38,1435.82 1663.47,1435.84 1665.56,1435.87 1667.65,1435.89 1669.74,1435.92 1671.82,1435.95 1673.91,1435.97 1676,1436 1678.09,1436.02 1680.18,1436.04 1682.27,1436.07 1684.36,1436.09 1686.45,1436.12 1688.54,1436.14 1690.63,1436.16 1692.71,1436.19 1694.8,1436.21 1696.89,1436.23 1698.98,1436.25 1701.07,1436.28 1703.16,1436.3 1705.25,1436.32 1707.34,1436.34 1709.43,1436.36 1711.51,1436.39 1713.6,1436.41 1715.69,1436.43 1717.78,1436.45 1719.87,1436.47 1721.96,1436.49 1724.05,1436.51 1726.14,1436.53 1728.23,1436.55 1730.31,1436.57 1732.4,1436.59 1734.49,1436.61 1736.58,1436.63 1738.67,1436.65 1740.76,1436.67 1742.85,1436.69 1744.94,1436.71 1747.03,1436.72 1749.12,1436.74 1751.2,1436.76 1753.29,1436.78 1755.38,1436.8 1757.47,1436.81 1759.56,1436.83 1761.65,1436.85 1763.74,1436.87 1765.83,1436.88 1767.92,1436.9 1770,1436.92 1772.09,1436.94 1774.18,1436.95 1776.27,1436.97 1778.36,1436.99 1780.45,1437 1782.54,1437.02 1784.63,1437.03 1786.72,1437.05 1788.81,1437.07 1790.89,1437.08 1792.98,1437.1 1795.07,1437.11 1797.16,1437.13 1799.25,1437.14 1801.34,1437.16 1803.43,1437.18 1805.52,1437.19 1807.61,1437.2 1809.69,1437.22 1811.78,1437.23 1813.87,1437.25 1815.96,1437.26 1818.05,1437.28 1820.14,1437.29 1822.23,1437.31 1824.32,1437.32 1826.41,1437.33 1828.5,1437.35 1830.58,1437.36 1832.67,1437.38 1834.76,1437.39 1836.85,1437.4 1838.94,1437.42 1841.03,1437.43 1843.12,1437.44 1845.21,1437.45 1847.3,1437.47 1849.38,1437.48 1851.47,1437.49 1853.56,1437.51 1855.65,1437.52 1857.74,1437.53 1859.83,1437.54 1861.92,1437.56 1864.01,1437.57 1866.1,1437.58 1868.18,1437.59 1870.27,1437.6 1872.36,1437.62 1874.45,1437.63 1876.54,1437.64 1878.63,1437.65 1880.72,1437.66 1882.81,1437.67 1884.9,1437.69 1886.99,1437.7 1889.07,1437.71 1891.16,1437.72 1893.25,1437.73 1895.34,1437.74 1897.43,1437.75 1899.52,1437.76 1901.61,1437.77 1903.7,1437.78 1905.79,1437.8 1907.87,1437.81 1909.96,1437.82 1912.05,1437.83 1914.14,1437.84 1916.23,1437.85 1918.32,1437.86 1920.41,1437.87 1922.5,1437.88 1924.59,1437.89 1926.68,1437.9 1928.76,1437.91 1930.85,1437.92 1932.94,1437.93 1935.03,1437.94 1937.12,1437.95 1939.21,1437.96 1941.3,1437.97 1943.39,1437.98 1945.48,1437.98 1947.56,1437.99 1949.65,1438 1951.74,1438.01 1953.83,1438.02 1955.92,1438.03 1958.01,1438.04 1960.1,1438.05 1962.19,1438.06 1964.28,1438.07 1966.36,1438.08 1968.45,1438.08 1970.54,1438.09 1972.63,1438.1 1974.72,1438.11 1976.81,1438.12 1978.9,1438.13 1980.99,1438.14 1983.08,1438.14 1985.17,1438.15 1987.25,1438.16 1989.34,1438.17 1991.43,1438.18 1993.52,1438.18 1995.61,1438.19 1997.7,1438.2 1999.79,1438.21 2001.88,1438.22 2003.97,1438.22 2006.05,1438.23 2008.14,1438.24 2010.23,1438.25 2012.32,1438.26 2014.41,1438.26 2016.5,1438.27 2018.59,1438.28 2020.68,1438.29 2022.77,1438.29 2024.86,1438.3 2026.94,1438.31 2029.03,1438.31 2031.12,1438.32 2033.21,1438.33 2035.3,1438.34 2037.39,1438.34 2039.48,1438.35 2041.57,1438.36 2043.66,1438.36 2045.74,1438.37 2047.83,1438.38 2049.92,1438.38 2052.01,1438.39 2054.1,1438.4 2056.19,1438.41 2058.28,1438.41 2060.37,1438.42 2062.46,1438.42 2064.55,1438.43 2066.63,1438.44 2068.72,1438.44 2070.81,1438.45 2072.9,1438.46 2074.99,1438.46 2077.08,1438.47 2079.17,1438.48 2081.26,1438.48 2083.35,1438.49 2085.43,1438.49 2087.52,1438.5 2089.61,1438.51 2091.7,1438.51 2093.79,1438.52 2095.88,1438.53 2097.97,1438.53 2100.06,1438.54 2102.15,1438.54 2104.23,1438.55 2106.32,1438.55 2108.41,1438.56 2110.5,1438.57 2112.59,1438.57 2114.68,1438.58 2116.77,1438.58 2118.86,1438.59 2120.95,1438.59 2123.04,1438.6 2125.12,1438.61 2127.21,1438.61 2129.3,1438.62 2131.39,1438.62 2133.48,1438.63 2135.57,1438.63 2137.66,1438.64 2139.75,1438.64 2141.84,1438.65 2143.92,1438.65 2146.01,1438.66 2148.1,1438.66 2150.19,1438.67 2152.28,1438.67 2154.37,1438.68 2156.46,1438.68 2158.55,1438.69 2160.64,1438.69 2162.73,1438.7 2164.81,1438.7 2166.9,1438.71 2168.99,1438.71 2171.08,1438.72 2173.17,1438.72 2175.26,1438.73 2177.35,1438.73 2179.44,1438.74 2181.53,1438.74 2183.61,1438.75 2185.7,1438.75 2187.79,1438.76 2189.88,1438.76 2191.97,1438.77 2194.06,1438.77 2196.15,1438.78 2198.24,1438.78 2200.33,1438.78 2202.42,1438.79 2204.5,1438.79 2206.59,1438.8 2208.68,1438.8 2210.77,1438.81 2212.86,1438.81 2214.95,1438.81 2217.04,1438.82 2219.13,1438.82 2221.22,1438.83 2223.3,1438.83 2225.39,1438.84 2227.48,1438.84 2229.57,1438.84 2231.66,1438.85 2233.75,1438.85 2235.84,1438.86 2237.93,1438.86 2240.02,1438.86 2242.1,1438.87 2244.19,1438.87 2246.28,1438.88 2248.37,1438.88 2250.46,1438.88 2252.55,1438.89 2254.64,1438.89 2256.73,1438.9 2258.82,1438.9 2260.91,1438.9 2262.99,1438.91 2265.08,1438.91 2267.17,1438.91 2269.26,1438.92 2271.35,1438.92 2273.44,1438.93 2275.53,1438.93 2277.62,1438.93 2279.71,1438.94 2281.79,1438.94 2283.88,1438.94 2285.97,1438.95 2288.06,1438.95 2290.15,1438.95 "/>
<path clip-path="url(#clip430)" d="M1923.28 302.578 L2279.02 302.578 L2279.02 95.2176 L1923.28 95.2176  Z" fill="#ffffff" fill-rule="evenodd" fill-opacity="1"/>
<polyline clip-path="url(#clip430)" style="stroke:#000000; stroke-linecap:round; stroke-linejoin:round; stroke-width:4; stroke-opacity:1; fill:none" points="1923.28,302.578 2279.02,302.578 2279.02,95.2176 1923.28,95.2176 1923.28,302.578 "/>
<polyline clip-path="url(#clip430)" style="stroke:#009af9; stroke-linecap:round; stroke-linejoin:round; stroke-width:4; stroke-opacity:1; fill:none" points="1947.86,147.058 2095.33,147.058 "/>
<path clip-path="url(#clip430)" d="M2119.91 129.778 L2124.58 129.778 L2124.58 160.402 L2141.41 160.402 L2141.41 164.338 L2119.91 164.338 L2119.91 129.778 Z" fill="#000000" fill-rule="nonzero" fill-opacity="1" /><path clip-path="url(#clip430)" d="M2150.76 160.402 L2167.08 160.402 L2167.08 164.338 L2145.14 164.338 L2145.14 160.402 Q2147.8 157.648 2152.38 153.018 Q2156.99 148.365 2158.17 147.023 Q2160.41 144.5 2161.29 142.764 Q2162.2 141.004 2162.2 139.315 Q2162.2 136.56 2160.25 134.824 Q2158.33 133.088 2155.23 133.088 Q2153.03 133.088 2150.58 133.852 Q2148.15 134.615 2145.37 136.166 L2145.37 131.444 Q2148.19 130.31 2150.65 129.731 Q2153.1 129.153 2155.14 129.153 Q2160.51 129.153 2163.7 131.838 Q2166.9 134.523 2166.9 139.014 Q2166.9 141.143 2166.09 143.065 Q2165.3 144.963 2163.19 147.555 Q2162.61 148.227 2159.51 151.444 Q2156.41 154.639 2150.76 160.402 Z" fill="#000000" fill-rule="nonzero" fill-opacity="1" /><path clip-path="url(#clip430)" d="M2176.85 142.81 L2206.53 142.81 L2206.53 146.699 L2176.85 146.699 L2176.85 142.81 M2176.85 152.254 L2206.53 152.254 L2206.53 156.189 L2176.85 156.189 L2176.85 152.254 Z" fill="#000000" fill-rule="nonzero" fill-opacity="1" /><path clip-path="url(#clip430)" d="M2213.86 149.453 L2226.34 149.453 L2226.34 153.25 L2213.86 153.25 L2213.86 149.453 Z" fill="#000000" fill-rule="nonzero" fill-opacity="1" /><path clip-path="url(#clip430)" d="M2234.53 160.402 L2242.17 160.402 L2242.17 134.037 L2233.86 135.703 L2233.86 131.444 L2242.13 129.778 L2246.8 129.778 L2246.8 160.402 L2254.44 160.402 L2254.44 164.338 L2234.53 164.338 L2234.53 160.402 Z" fill="#000000" fill-rule="nonzero" fill-opacity="1" /><polyline clip-path="url(#clip430)" style="stroke:#e26f46; stroke-linecap:round; stroke-linejoin:round; stroke-width:4; stroke-opacity:1; fill:none" points="1947.86,198.898 2095.33,198.898 "/>
<path clip-path="url(#clip430)" d="M2119.91 181.618 L2124.58 181.618 L2124.58 212.242 L2141.41 212.242 L2141.41 216.178 L2119.91 216.178 L2119.91 181.618 Z" fill="#000000" fill-rule="nonzero" fill-opacity="1" /><path clip-path="url(#clip430)" d="M2150.76 212.242 L2167.08 212.242 L2167.08 216.178 L2145.14 216.178 L2145.14 212.242 Q2147.8 209.488 2152.38 204.858 Q2156.99 200.205 2158.17 198.863 Q2160.41 196.34 2161.29 194.604 Q2162.2 192.844 2162.2 191.155 Q2162.2 188.4 2160.25 186.664 Q2158.33 184.928 2155.23 184.928 Q2153.03 184.928 2150.58 185.692 Q2148.15 186.455 2145.37 188.006 L2145.37 183.284 Q2148.19 182.15 2150.65 181.571 Q2153.1 180.993 2155.14 180.993 Q2160.51 180.993 2163.7 183.678 Q2166.9 186.363 2166.9 190.854 Q2166.9 192.983 2166.09 194.905 Q2165.3 196.803 2163.19 199.395 Q2162.61 200.067 2159.51 203.284 Q2156.41 206.479 2150.76 212.242 Z" fill="#000000" fill-rule="nonzero" fill-opacity="1" /><path clip-path="url(#clip430)" d="M2176.85 194.65 L2206.53 194.65 L2206.53 198.539 L2176.85 198.539 L2176.85 194.65 M2176.85 204.094 L2206.53 204.094 L2206.53 208.029 L2176.85 208.029 L2176.85 204.094 Z" fill="#000000" fill-rule="nonzero" fill-opacity="1" /><path clip-path="url(#clip430)" d="M2241.69 184.696 Q2238.08 184.696 2236.25 188.261 Q2234.44 191.803 2234.44 198.932 Q2234.44 206.039 2236.25 209.604 Q2238.08 213.145 2241.69 213.145 Q2245.32 213.145 2247.13 209.604 Q2248.96 206.039 2248.96 198.932 Q2248.96 191.803 2247.13 188.261 Q2245.32 184.696 2241.69 184.696 M2241.69 180.993 Q2247.5 180.993 2250.55 185.599 Q2253.63 190.182 2253.63 198.932 Q2253.63 207.659 2250.55 212.266 Q2247.5 216.849 2241.69 216.849 Q2235.88 216.849 2232.8 212.266 Q2229.74 207.659 2229.74 198.932 Q2229.74 190.182 2232.8 185.599 Q2235.88 180.993 2241.69 180.993 Z" fill="#000000" fill-rule="nonzero" fill-opacity="1" /><polyline clip-path="url(#clip430)" style="stroke:#3da44d; stroke-linecap:round; stroke-linejoin:round; stroke-width:4; stroke-opacity:1; fill:none" points="1947.86,250.738 2095.33,250.738 "/>
<path clip-path="url(#clip430)" d="M2119.91 233.458 L2124.58 233.458 L2124.58 264.082 L2141.41 264.082 L2141.41 268.018 L2119.91 268.018 L2119.91 233.458 Z" fill="#000000" fill-rule="nonzero" fill-opacity="1" /><path clip-path="url(#clip430)" d="M2150.76 264.082 L2167.08 264.082 L2167.08 268.018 L2145.14 268.018 L2145.14 264.082 Q2147.8 261.328 2152.38 256.698 Q2156.99 252.045 2158.17 250.703 Q2160.41 248.18 2161.29 246.444 Q2162.2 244.684 2162.2 242.995 Q2162.2 240.24 2160.25 238.504 Q2158.33 236.768 2155.23 236.768 Q2153.03 236.768 2150.58 237.532 Q2148.15 238.295 2145.37 239.846 L2145.37 235.124 Q2148.19 233.99 2150.65 233.411 Q2153.1 232.833 2155.14 232.833 Q2160.51 232.833 2163.7 235.518 Q2166.9 238.203 2166.9 242.694 Q2166.9 244.823 2166.09 246.745 Q2165.3 248.643 2163.19 251.235 Q2162.61 251.907 2159.51 255.124 Q2156.41 258.319 2150.76 264.082 Z" fill="#000000" fill-rule="nonzero" fill-opacity="1" /><path clip-path="url(#clip430)" d="M2176.85 246.49 L2206.53 246.49 L2206.53 250.379 L2176.85 250.379 L2176.85 246.49 M2176.85 255.934 L2206.53 255.934 L2206.53 259.869 L2176.85 259.869 L2176.85 255.934 Z" fill="#000000" fill-rule="nonzero" fill-opacity="1" /><path clip-path="url(#clip430)" d="M2232.5 264.082 L2240.14 264.082 L2240.14 237.717 L2231.83 239.383 L2231.83 235.124 L2240.09 233.458 L2244.77 233.458 L2244.77 264.082 L2252.41 264.082 L2252.41 268.018 L2232.5 268.018 L2232.5 264.082 Z" fill="#000000" fill-rule="nonzero" fill-opacity="1" /></svg>
