<?xml version="1.0" encoding="utf-8"?>
<svg xmlns="http://www.w3.org/2000/svg" xmlns:xlink="http://www.w3.org/1999/xlink" width="600" height="400" viewBox="0 0 2400 1600">
<defs>
  <clipPath id="clip880">
    <rect x="0" y="0" width="2400" height="1600"/>
  </clipPath>
</defs>
<path clip-path="url(#clip880)" d="M0 1600 L2400 1600 L2400 0 L0 0  Z" fill="#ffffff" fill-rule="evenodd" fill-opacity="1"/>
<defs>
  <clipPath id="clip881">
    <rect x="141" y="47" width="2212" height="1440"/>
  </clipPath>
</defs>
<path clip-path="url(#clip880)" d="M141.853 1486.45 L2352.76 1486.45 L2352.76 47.2441 L141.853 47.2441  Z" fill="#ffffff" fill-rule="evenodd" fill-opacity="1"/>
<polyline clip-path="url(#clip881)" style="stroke:#000000; stroke-linecap:round; stroke-linejoin:round; stroke-width:2; stroke-opacity:0.1; fill:none" points="204.426,1486.45 204.426,47.2441 "/>
<polyline clip-path="url(#clip881)" style="stroke:#000000; stroke-linecap:round; stroke-linejoin:round; stroke-width:2; stroke-opacity:0.1; fill:none" points="552.052,1486.45 552.052,47.2441 "/>
<polyline clip-path="url(#clip881)" style="stroke:#000000; stroke-linecap:round; stroke-linejoin:round; stroke-width:2; stroke-opacity:0.1; fill:none" points="899.678,1486.45 899.678,47.2441 "/>
<polyline clip-path="url(#clip881)" style="stroke:#000000; stroke-linecap:round; stroke-linejoin:round; stroke-width:2; stroke-opacity:0.1; fill:none" points="1247.3,1486.45 1247.3,47.2441 "/>
<polyline clip-path="url(#clip881)" style="stroke:#000000; stroke-linecap:round; stroke-linejoin:round; stroke-width:2; stroke-opacity:0.1; fill:none" points="1594.93,1486.45 1594.93,47.2441 "/>
<polyline clip-path="url(#clip881)" style="stroke:#000000; stroke-linecap:round; stroke-linejoin:round; stroke-width:2; stroke-opacity:0.1; fill:none" points="1942.56,1486.45 1942.56,47.2441 "/>
<polyline clip-path="url(#clip881)" style="stroke:#000000; stroke-linecap:round; stroke-linejoin:round; stroke-width:2; stroke-opacity:0.1; fill:none" points="2290.18,1486.45 2290.18,47.2441 "/>
<polyline clip-path="url(#clip881)" style="stroke:#000000; stroke-linecap:round; stroke-linejoin:round; stroke-width:2; stroke-opacity:0.1; fill:none" points="141.853,1445.72 2352.76,1445.72 "/>
<polyline clip-path="url(#clip881)" style="stroke:#000000; stroke-linecap:round; stroke-linejoin:round; stroke-width:2; stroke-opacity:0.1; fill:none" points="141.853,1170.36 2352.76,1170.36 "/>
<polyline clip-path="url(#clip881)" style="stroke:#000000; stroke-linecap:round; stroke-linejoin:round; stroke-width:2; stroke-opacity:0.1; fill:none" points="141.853,895.002 2352.76,895.002 "/>
<polyline clip-path="url(#clip881)" style="stroke:#000000; stroke-linecap:round; stroke-linejoin:round; stroke-width:2; stroke-opacity:0.1; fill:none" points="141.853,619.645 2352.76,619.645 "/>
<polyline clip-path="url(#clip881)" style="stroke:#000000; stroke-linecap:round; stroke-linejoin:round; stroke-width:2; stroke-opacity:0.1; fill:none" points="141.853,344.288 2352.76,344.288 "/>
<polyline clip-path="url(#clip881)" style="stroke:#000000; stroke-linecap:round; stroke-linejoin:round; stroke-width:2; stroke-opacity:0.1; fill:none" points="141.853,68.9315 2352.76,68.9315 "/>
<polyline clip-path="url(#clip880)" style="stroke:#000000; stroke-linecap:round; stroke-linejoin:round; stroke-width:4; stroke-opacity:1; fill:none" points="141.853,1486.45 2352.76,1486.45 "/>
<polyline clip-path="url(#clip880)" style="stroke:#000000; stroke-linecap:round; stroke-linejoin:round; stroke-width:4; stroke-opacity:1; fill:none" points="204.426,1486.45 204.426,1467.55 "/>
<polyline clip-path="url(#clip880)" style="stroke:#000000; stroke-linecap:round; stroke-linejoin:round; stroke-width:4; stroke-opacity:1; fill:none" points="552.052,1486.45 552.052,1467.55 "/>
<polyline clip-path="url(#clip880)" style="stroke:#000000; stroke-linecap:round; stroke-linejoin:round; stroke-width:4; stroke-opacity:1; fill:none" points="899.678,1486.45 899.678,1467.55 "/>
<polyline clip-path="url(#clip880)" style="stroke:#000000; stroke-linecap:round; stroke-linejoin:round; stroke-width:4; stroke-opacity:1; fill:none" points="1247.3,1486.45 1247.3,1467.55 "/>
<polyline clip-path="url(#clip880)" style="stroke:#000000; stroke-linecap:round; stroke-linejoin:round; stroke-width:4; stroke-opacity:1; fill:none" points="1594.93,1486.45 1594.93,1467.55 "/>
<polyline clip-path="url(#clip880)" style="stroke:#000000; stroke-linecap:round; stroke-linejoin:round; stroke-width:4; stroke-opacity:1; fill:none" points="1942.56,1486.45 1942.56,1467.55 "/>
<polyline clip-path="url(#clip880)" style="stroke:#000000; stroke-linecap:round; stroke-linejoin:round; stroke-width:4; stroke-opacity:1; fill:none" points="2290.18,1486.45 2290.18,1467.55 "/>
<path clip-path="url(#clip880)" d="M179.16 1544.91 L186.798 1544.91 L186.798 1518.55 L178.488 1520.21 L178.488 1515.95 L186.752 1514.29 L191.428 1514.29 L191.428 1544.91 L199.067 1544.91 L199.067 1548.85 L179.16 1548.85 L179.16 1544.91 Z" fill="#000000" fill-rule="nonzero" fill-opacity="1" /><path clip-path="url(#clip880)" d="M218.511 1532.44 Q215.178 1532.44 213.257 1534.22 Q211.359 1536 211.359 1539.13 Q211.359 1542.25 213.257 1544.03 Q215.178 1545.82 218.511 1545.82 Q221.845 1545.82 223.766 1544.03 Q225.687 1542.23 225.687 1539.13 Q225.687 1536 223.766 1534.22 Q221.868 1532.44 218.511 1532.44 M213.835 1530.45 Q210.826 1529.7 209.136 1527.64 Q207.47 1525.58 207.47 1522.62 Q207.47 1518.48 210.409 1516.07 Q213.372 1513.66 218.511 1513.66 Q223.673 1513.66 226.613 1516.07 Q229.553 1518.48 229.553 1522.62 Q229.553 1525.58 227.863 1527.64 Q226.196 1529.7 223.21 1530.45 Q226.59 1531.23 228.465 1533.52 Q230.363 1535.82 230.363 1539.13 Q230.363 1544.15 227.284 1546.83 Q224.229 1549.52 218.511 1549.52 Q212.794 1549.52 209.715 1546.83 Q206.659 1544.15 206.659 1539.13 Q206.659 1535.82 208.558 1533.52 Q210.456 1531.23 213.835 1530.45 M212.122 1523.06 Q212.122 1525.75 213.789 1527.25 Q215.479 1528.76 218.511 1528.76 Q221.52 1528.76 223.21 1527.25 Q224.923 1525.75 224.923 1523.06 Q224.923 1520.38 223.21 1518.87 Q221.52 1517.37 218.511 1517.37 Q215.479 1517.37 213.789 1518.87 Q212.122 1520.38 212.122 1523.06 Z" fill="#000000" fill-rule="nonzero" fill-opacity="1" /><path clip-path="url(#clip880)" d="M526.832 1544.91 L534.471 1544.91 L534.471 1518.55 L526.161 1520.21 L526.161 1515.95 L534.425 1514.29 L539.101 1514.29 L539.101 1544.91 L546.739 1544.91 L546.739 1548.85 L526.832 1548.85 L526.832 1544.91 Z" fill="#000000" fill-rule="nonzero" fill-opacity="1" /><path clip-path="url(#clip880)" d="M556.323 1548.13 L556.323 1543.87 Q558.082 1544.7 559.888 1545.14 Q561.693 1545.58 563.429 1545.58 Q568.059 1545.58 570.489 1542.48 Q572.943 1539.36 573.29 1533.01 Q571.948 1535.01 569.887 1536.07 Q567.827 1537.13 565.327 1537.13 Q560.142 1537.13 557.11 1534.01 Q554.101 1530.86 554.101 1525.42 Q554.101 1520.1 557.249 1516.88 Q560.397 1513.66 565.628 1513.66 Q571.624 1513.66 574.772 1518.27 Q577.943 1522.85 577.943 1531.6 Q577.943 1539.77 574.054 1544.66 Q570.188 1549.52 563.638 1549.52 Q561.878 1549.52 560.073 1549.17 Q558.267 1548.82 556.323 1548.13 M565.628 1533.48 Q568.776 1533.48 570.605 1531.32 Q572.457 1529.17 572.457 1525.42 Q572.457 1521.7 570.605 1519.54 Q568.776 1517.37 565.628 1517.37 Q562.48 1517.37 560.628 1519.54 Q558.8 1521.7 558.8 1525.42 Q558.8 1529.17 560.628 1531.32 Q562.48 1533.48 565.628 1533.48 Z" fill="#000000" fill-rule="nonzero" fill-opacity="1" /><path clip-path="url(#clip880)" d="M878.451 1544.91 L894.771 1544.91 L894.771 1548.85 L872.826 1548.85 L872.826 1544.91 Q875.488 1542.16 880.072 1537.53 Q884.678 1532.88 885.859 1531.53 Q888.104 1529.01 888.984 1527.27 Q889.887 1525.51 889.887 1523.82 Q889.887 1521.07 887.942 1519.33 Q886.021 1517.6 882.919 1517.6 Q880.72 1517.6 878.266 1518.36 Q875.836 1519.13 873.058 1520.68 L873.058 1515.95 Q875.882 1514.82 878.336 1514.24 Q880.789 1513.66 882.826 1513.66 Q888.197 1513.66 891.391 1516.35 Q894.586 1519.03 894.586 1523.52 Q894.586 1525.65 893.775 1527.57 Q892.988 1529.47 890.882 1532.07 Q890.303 1532.74 887.201 1535.95 Q884.1 1539.15 878.451 1544.91 Z" fill="#000000" fill-rule="nonzero" fill-opacity="1" /><path clip-path="url(#clip880)" d="M914.585 1517.37 Q910.974 1517.37 909.146 1520.93 Q907.34 1524.47 907.34 1531.6 Q907.34 1538.71 909.146 1542.27 Q910.974 1545.82 914.585 1545.82 Q918.22 1545.82 920.025 1542.27 Q921.854 1538.71 921.854 1531.6 Q921.854 1524.47 920.025 1520.93 Q918.22 1517.37 914.585 1517.37 M914.585 1513.66 Q920.396 1513.66 923.451 1518.27 Q926.53 1522.85 926.53 1531.6 Q926.53 1540.33 923.451 1544.94 Q920.396 1549.52 914.585 1549.52 Q908.775 1549.52 905.697 1544.94 Q902.641 1540.33 902.641 1531.6 Q902.641 1522.85 905.697 1518.27 Q908.775 1513.66 914.585 1513.66 Z" fill="#000000" fill-rule="nonzero" fill-opacity="1" /><path clip-path="url(#clip880)" d="M1226.69 1544.91 L1243.01 1544.91 L1243.01 1548.85 L1221.07 1548.85 L1221.07 1544.91 Q1223.73 1542.16 1228.31 1537.53 Q1232.92 1532.88 1234.1 1531.53 Q1236.34 1529.01 1237.22 1527.27 Q1238.13 1525.51 1238.13 1523.82 Q1238.13 1521.07 1236.18 1519.33 Q1234.26 1517.6 1231.16 1517.6 Q1228.96 1517.6 1226.51 1518.36 Q1224.08 1519.13 1221.3 1520.68 L1221.3 1515.95 Q1224.12 1514.82 1226.58 1514.24 Q1229.03 1513.66 1231.07 1513.66 Q1236.44 1513.66 1239.63 1516.35 Q1242.83 1519.03 1242.83 1523.52 Q1242.83 1525.65 1242.02 1527.57 Q1241.23 1529.47 1239.12 1532.07 Q1238.54 1532.74 1235.44 1535.95 Q1232.34 1539.15 1226.69 1544.91 Z" fill="#000000" fill-rule="nonzero" fill-opacity="1" /><path clip-path="url(#clip880)" d="M1253.64 1544.91 L1261.27 1544.91 L1261.27 1518.55 L1252.96 1520.21 L1252.96 1515.95 L1261.23 1514.29 L1265.9 1514.29 L1265.9 1544.91 L1273.54 1544.91 L1273.54 1548.85 L1253.64 1548.85 L1253.64 1544.91 Z" fill="#000000" fill-rule="nonzero" fill-opacity="1" /><path clip-path="url(#clip880)" d="M1574.5 1544.91 L1590.82 1544.91 L1590.82 1548.85 L1568.88 1548.85 L1568.88 1544.91 Q1571.54 1542.16 1576.12 1537.53 Q1580.73 1532.88 1581.91 1531.53 Q1584.16 1529.01 1585.03 1527.27 Q1585.94 1525.51 1585.94 1523.82 Q1585.94 1521.07 1583.99 1519.33 Q1582.07 1517.6 1578.97 1517.6 Q1576.77 1517.6 1574.32 1518.36 Q1571.89 1519.13 1569.11 1520.68 L1569.11 1515.95 Q1571.93 1514.82 1574.39 1514.24 Q1576.84 1513.66 1578.88 1513.66 Q1584.25 1513.66 1587.44 1516.35 Q1590.64 1519.03 1590.64 1523.52 Q1590.64 1525.65 1589.83 1527.57 Q1589.04 1529.47 1586.93 1532.07 Q1586.35 1532.74 1583.25 1535.95 Q1580.15 1539.15 1574.5 1544.91 Z" fill="#000000" fill-rule="nonzero" fill-opacity="1" /><path clip-path="url(#clip880)" d="M1604.66 1544.91 L1620.98 1544.91 L1620.98 1548.85 L1599.04 1548.85 L1599.04 1544.91 Q1601.7 1542.16 1606.28 1537.53 Q1610.89 1532.88 1612.07 1531.53 Q1614.32 1529.01 1615.2 1527.27 Q1616.1 1525.51 1616.1 1523.82 Q1616.1 1521.07 1614.16 1519.33 Q1612.23 1517.6 1609.13 1517.6 Q1606.93 1517.6 1604.48 1518.36 Q1602.05 1519.13 1599.27 1520.68 L1599.27 1515.95 Q1602.09 1514.82 1604.55 1514.24 Q1607 1513.66 1609.04 1513.66 Q1614.41 1513.66 1617.6 1516.35 Q1620.8 1519.03 1620.8 1523.52 Q1620.8 1525.65 1619.99 1527.57 Q1619.2 1529.47 1617.09 1532.07 Q1616.52 1532.74 1613.41 1535.95 Q1610.31 1539.15 1604.66 1544.91 Z" fill="#000000" fill-rule="nonzero" fill-opacity="1" /><path clip-path="url(#clip880)" d="M1921.65 1544.91 L1937.97 1544.91 L1937.97 1548.85 L1916.03 1548.85 L1916.03 1544.91 Q1918.69 1542.16 1923.27 1537.53 Q1927.88 1532.88 1929.06 1531.53 Q1931.31 1529.01 1932.19 1527.27 Q1933.09 1525.51 1933.09 1523.82 Q1933.09 1521.07 1931.14 1519.33 Q1929.22 1517.6 1926.12 1517.6 Q1923.92 1517.6 1921.47 1518.36 Q1919.04 1519.13 1916.26 1520.68 L1916.26 1515.95 Q1919.08 1514.82 1921.54 1514.24 Q1923.99 1513.66 1926.03 1513.66 Q1931.4 1513.66 1934.59 1516.35 Q1937.79 1519.03 1937.79 1523.52 Q1937.79 1525.65 1936.98 1527.57 Q1936.19 1529.47 1934.08 1532.07 Q1933.51 1532.74 1930.4 1535.95 Q1927.3 1539.15 1921.65 1544.91 Z" fill="#000000" fill-rule="nonzero" fill-opacity="1" /><path clip-path="url(#clip880)" d="M1961.95 1530.21 Q1965.31 1530.93 1967.19 1533.2 Q1969.08 1535.47 1969.08 1538.8 Q1969.08 1543.92 1965.57 1546.72 Q1962.05 1549.52 1955.57 1549.52 Q1953.39 1549.52 1951.08 1549.08 Q1948.78 1548.66 1946.33 1547.81 L1946.33 1543.29 Q1948.27 1544.43 1950.59 1545.01 Q1952.9 1545.58 1955.43 1545.58 Q1959.83 1545.58 1962.12 1543.85 Q1964.43 1542.11 1964.43 1538.8 Q1964.43 1535.75 1962.28 1534.03 Q1960.15 1532.3 1956.33 1532.3 L1952.3 1532.3 L1952.3 1528.45 L1956.52 1528.45 Q1959.96 1528.45 1961.79 1527.09 Q1963.62 1525.7 1963.62 1523.11 Q1963.62 1520.45 1961.72 1519.03 Q1959.85 1517.6 1956.33 1517.6 Q1954.41 1517.6 1952.21 1518.01 Q1950.01 1518.43 1947.37 1519.31 L1947.37 1515.14 Q1950.03 1514.4 1952.35 1514.03 Q1954.69 1513.66 1956.75 1513.66 Q1962.07 1513.66 1965.17 1516.09 Q1968.27 1518.5 1968.27 1522.62 Q1968.27 1525.49 1966.63 1527.48 Q1964.99 1529.45 1961.95 1530.21 Z" fill="#000000" fill-rule="nonzero" fill-opacity="1" /><path clip-path="url(#clip880)" d="M2268.71 1544.91 L2285.03 1544.91 L2285.03 1548.85 L2263.09 1548.85 L2263.09 1544.91 Q2265.75 1542.16 2270.33 1537.53 Q2274.94 1532.88 2276.12 1531.53 Q2278.37 1529.01 2279.25 1527.27 Q2280.15 1525.51 2280.15 1523.82 Q2280.15 1521.07 2278.2 1519.33 Q2276.28 1517.6 2273.18 1517.6 Q2270.98 1517.6 2268.53 1518.36 Q2266.1 1519.13 2263.32 1520.68 L2263.32 1515.95 Q2266.14 1514.82 2268.6 1514.24 Q2271.05 1513.66 2273.09 1513.66 Q2278.46 1513.66 2281.65 1516.35 Q2284.85 1519.03 2284.85 1523.52 Q2284.85 1525.65 2284.04 1527.57 Q2283.25 1529.47 2281.14 1532.07 Q2280.57 1532.74 2277.46 1535.95 Q2274.36 1539.15 2268.71 1544.91 Z" fill="#000000" fill-rule="nonzero" fill-opacity="1" /><path clip-path="url(#clip880)" d="M2307.69 1518.36 L2295.89 1536.81 L2307.69 1536.81 L2307.69 1518.36 M2306.47 1514.29 L2312.35 1514.29 L2312.35 1536.81 L2317.28 1536.81 L2317.28 1540.7 L2312.35 1540.7 L2312.35 1548.85 L2307.69 1548.85 L2307.69 1540.7 L2292.09 1540.7 L2292.09 1536.19 L2306.47 1514.29 Z" fill="#000000" fill-rule="nonzero" fill-opacity="1" /><polyline clip-path="url(#clip880)" style="stroke:#000000; stroke-linecap:round; stroke-linejoin:round; stroke-width:4; stroke-opacity:1; fill:none" points="141.853,1486.45 141.853,47.2441 "/>
<polyline clip-path="url(#clip880)" style="stroke:#000000; stroke-linecap:round; stroke-linejoin:round; stroke-width:4; stroke-opacity:1; fill:none" points="141.853,1445.72 160.751,1445.72 "/>
<polyline clip-path="url(#clip880)" style="stroke:#000000; stroke-linecap:round; stroke-linejoin:round; stroke-width:4; stroke-opacity:1; fill:none" points="141.853,1170.36 160.751,1170.36 "/>
<polyline clip-path="url(#clip880)" style="stroke:#000000; stroke-linecap:round; stroke-linejoin:round; stroke-width:4; stroke-opacity:1; fill:none" points="141.853,895.002 160.751,895.002 "/>
<polyline clip-path="url(#clip880)" style="stroke:#000000; stroke-linecap:round; stroke-linejoin:round; stroke-width:4; stroke-opacity:1; fill:none" points="141.853,619.645 160.751,619.645 "/>
<polyline clip-path="url(#clip880)" style="stroke:#000000; stroke-linecap:round; stroke-linejoin:round; stroke-width:4; stroke-opacity:1; fill:none" points="141.853,344.288 160.751,344.288 "/>
<polyline clip-path="url(#clip880)" style="stroke:#000000; stroke-linecap:round; stroke-linejoin:round; stroke-width:4; stroke-opacity:1; fill:none" points="141.853,68.9315 160.751,68.9315 "/>
<path clip-path="url(#clip880)" d="M93.9086 1431.51 Q90.2975 1431.51 88.4688 1435.08 Q86.6632 1438.62 86.6632 1445.75 Q86.6632 1452.86 88.4688 1456.42 Q90.2975 1459.96 93.9086 1459.96 Q97.5428 1459.96 99.3483 1456.42 Q101.177 1452.86 101.177 1445.75 Q101.177 1438.62 99.3483 1435.08 Q97.5428 1431.51 93.9086 1431.51 M93.9086 1427.81 Q99.7187 1427.81 102.774 1432.42 Q105.853 1437 105.853 1445.75 Q105.853 1454.48 102.774 1459.08 Q99.7187 1463.67 93.9086 1463.67 Q88.0984 1463.67 85.0197 1459.08 Q81.9642 1454.48 81.9642 1445.75 Q81.9642 1437 85.0197 1432.42 Q88.0984 1427.81 93.9086 1427.81 Z" fill="#000000" fill-rule="nonzero" fill-opacity="1" /><path clip-path="url(#clip880)" d="M54.5569 1183.7 L62.1958 1183.7 L62.1958 1157.34 L53.8856 1159 L53.8856 1154.75 L62.1495 1153.08 L66.8254 1153.08 L66.8254 1183.7 L74.4642 1183.7 L74.4642 1187.64 L54.5569 1187.64 L54.5569 1183.7 Z" fill="#000000" fill-rule="nonzero" fill-opacity="1" /><path clip-path="url(#clip880)" d="M93.9086 1156.16 Q90.2975 1156.16 88.4688 1159.72 Q86.6632 1163.26 86.6632 1170.39 Q86.6632 1177.5 88.4688 1181.06 Q90.2975 1184.61 93.9086 1184.61 Q97.5428 1184.61 99.3483 1181.06 Q101.177 1177.5 101.177 1170.39 Q101.177 1163.26 99.3483 1159.72 Q97.5428 1156.16 93.9086 1156.16 M93.9086 1152.45 Q99.7187 1152.45 102.774 1157.06 Q105.853 1161.64 105.853 1170.39 Q105.853 1179.12 102.774 1183.73 Q99.7187 1188.31 93.9086 1188.31 Q88.0984 1188.31 85.0197 1183.73 Q81.9642 1179.12 81.9642 1170.39 Q81.9642 1161.64 85.0197 1157.06 Q88.0984 1152.45 93.9086 1152.45 Z" fill="#000000" fill-rule="nonzero" fill-opacity="1" /><path clip-path="url(#clip880)" d="M57.7745 908.347 L74.0939 908.347 L74.0939 912.282 L52.1495 912.282 L52.1495 908.347 Q54.8115 905.592 59.3949 900.963 Q64.0013 896.31 65.1819 894.967 Q67.4272 892.444 68.3068 890.708 Q69.2096 888.949 69.2096 887.259 Q69.2096 884.504 67.2652 882.768 Q65.3439 881.032 62.2421 881.032 Q60.043 881.032 57.5893 881.796 Q55.1588 882.56 52.381 884.111 L52.381 879.389 Q55.2051 878.254 57.6588 877.676 Q60.1124 877.097 62.1495 877.097 Q67.5198 877.097 70.7142 879.782 Q73.9087 882.467 73.9087 886.958 Q73.9087 889.088 73.0985 891.009 Q72.3115 892.907 70.205 895.5 Q69.6263 896.171 66.5245 899.389 Q63.4226 902.583 57.7745 908.347 Z" fill="#000000" fill-rule="nonzero" fill-opacity="1" /><path clip-path="url(#clip880)" d="M93.9086 880.801 Q90.2975 880.801 88.4688 884.365 Q86.6632 887.907 86.6632 895.037 Q86.6632 902.143 88.4688 905.708 Q90.2975 909.25 93.9086 909.25 Q97.5428 909.25 99.3483 905.708 Q101.177 902.143 101.177 895.037 Q101.177 887.907 99.3483 884.365 Q97.5428 880.801 93.9086 880.801 M93.9086 877.097 Q99.7187 877.097 102.774 881.703 Q105.853 886.287 105.853 895.037 Q105.853 903.764 102.774 908.37 Q99.7187 912.953 93.9086 912.953 Q88.0984 912.953 85.0197 908.37 Q81.9642 903.764 81.9642 895.037 Q81.9642 886.287 85.0197 881.703 Q88.0984 877.097 93.9086 877.097 Z" fill="#000000" fill-rule="nonzero" fill-opacity="1" /><path clip-path="url(#clip880)" d="M67.9133 618.291 Q71.2698 619.009 73.1448 621.277 Q75.0429 623.546 75.0429 626.879 Q75.0429 631.995 71.5244 634.796 Q68.0059 637.596 61.5245 637.596 Q59.3486 637.596 57.0338 637.157 Q54.7421 636.74 52.2884 635.883 L52.2884 631.37 Q54.2328 632.504 56.5477 633.083 Q58.8625 633.661 61.3856 633.661 Q65.7837 633.661 68.0754 631.925 Q70.3902 630.189 70.3902 626.879 Q70.3902 623.823 68.2374 622.11 Q66.1078 620.374 62.2884 620.374 L58.2606 620.374 L58.2606 616.532 L62.4735 616.532 Q65.9226 616.532 67.7513 615.166 Q69.58 613.777 69.58 611.185 Q69.58 608.523 67.6819 607.11 Q65.8069 605.675 62.2884 605.675 Q60.3671 605.675 58.168 606.092 Q55.969 606.509 53.3301 607.388 L53.3301 603.222 Q55.9921 602.481 58.3069 602.111 Q60.6449 601.74 62.705 601.74 Q68.0291 601.74 71.1309 604.171 Q74.2327 606.578 74.2327 610.698 Q74.2327 613.569 72.5892 615.56 Q70.9457 617.527 67.9133 618.291 Z" fill="#000000" fill-rule="nonzero" fill-opacity="1" /><path clip-path="url(#clip880)" d="M93.9086 605.444 Q90.2975 605.444 88.4688 609.009 Q86.6632 612.55 86.6632 619.68 Q86.6632 626.786 88.4688 630.351 Q90.2975 633.893 93.9086 633.893 Q97.5428 633.893 99.3483 630.351 Q101.177 626.786 101.177 619.68 Q101.177 612.55 99.3483 609.009 Q97.5428 605.444 93.9086 605.444 M93.9086 601.74 Q99.7187 601.74 102.774 606.347 Q105.853 610.93 105.853 619.68 Q105.853 628.407 102.774 633.013 Q99.7187 637.596 93.9086 637.596 Q88.0984 637.596 85.0197 633.013 Q81.9642 628.407 81.9642 619.68 Q81.9642 610.93 85.0197 606.347 Q88.0984 601.74 93.9086 601.74 Z" fill="#000000" fill-rule="nonzero" fill-opacity="1" /><path clip-path="url(#clip880)" d="M66.5939 331.082 L54.7884 349.531 L66.5939 349.531 L66.5939 331.082 M65.367 327.008 L71.2466 327.008 L71.2466 349.531 L76.1772 349.531 L76.1772 353.42 L71.2466 353.42 L71.2466 361.568 L66.5939 361.568 L66.5939 353.42 L50.9921 353.42 L50.9921 348.906 L65.367 327.008 Z" fill="#000000" fill-rule="nonzero" fill-opacity="1" /><path clip-path="url(#clip880)" d="M93.9086 330.087 Q90.2975 330.087 88.4688 333.652 Q86.6632 337.193 86.6632 344.323 Q86.6632 351.429 88.4688 354.994 Q90.2975 358.536 93.9086 358.536 Q97.5428 358.536 99.3483 354.994 Q101.177 351.429 101.177 344.323 Q101.177 337.193 99.3483 333.652 Q97.5428 330.087 93.9086 330.087 M93.9086 326.383 Q99.7187 326.383 102.774 330.99 Q105.853 335.573 105.853 344.323 Q105.853 353.05 102.774 357.656 Q99.7187 362.24 93.9086 362.24 Q88.0984 362.24 85.0197 357.656 Q81.9642 353.05 81.9642 344.323 Q81.9642 335.573 85.0197 330.99 Q88.0984 326.383 93.9086 326.383 Z" fill="#000000" fill-rule="nonzero" fill-opacity="1" /><path clip-path="url(#clip880)" d="M53.793 51.6515 L72.1494 51.6515 L72.1494 55.5866 L58.0754 55.5866 L58.0754 64.0588 Q59.0939 63.7116 60.1124 63.5495 Q61.131 63.3644 62.1495 63.3644 Q67.9365 63.3644 71.3161 66.5356 Q74.6957 69.7069 74.6957 75.1235 Q74.6957 80.7022 71.2235 83.8041 Q67.7513 86.8827 61.4319 86.8827 Q59.256 86.8827 56.9875 86.5124 Q54.7421 86.142 52.3347 85.4013 L52.3347 80.7022 Q54.418 81.8365 56.6402 82.392 Q58.8625 82.9476 61.3393 82.9476 Q65.3439 82.9476 67.6819 80.8411 Q70.0198 78.7346 70.0198 75.1235 Q70.0198 71.5125 67.6819 69.406 Q65.3439 67.2995 61.3393 67.2995 Q59.4643 67.2995 57.5893 67.7162 Q55.7375 68.1328 53.793 69.0125 L53.793 51.6515 Z" fill="#000000" fill-rule="nonzero" fill-opacity="1" /><path clip-path="url(#clip880)" d="M93.9086 54.7301 Q90.2975 54.7301 88.4688 58.2949 Q86.6632 61.8366 86.6632 68.9662 Q86.6632 76.0726 88.4688 79.6374 Q90.2975 83.1791 93.9086 83.1791 Q97.5428 83.1791 99.3483 79.6374 Q101.177 76.0726 101.177 68.9662 Q101.177 61.8366 99.3483 58.2949 Q97.5428 54.7301 93.9086 54.7301 M93.9086 51.0265 Q99.7187 51.0265 102.774 55.6329 Q105.853 60.2162 105.853 68.9662 Q105.853 77.693 102.774 82.2994 Q99.7187 86.8827 93.9086 86.8827 Q88.0984 86.8827 85.0197 82.2994 Q81.9642 77.693 81.9642 68.9662 Q81.9642 60.2162 85.0197 55.6329 Q88.0984 51.0265 93.9086 51.0265 Z" fill="#000000" fill-rule="nonzero" fill-opacity="1" /><polyline clip-path="url(#clip881)" style="stroke:#009af9; stroke-linecap:round; stroke-linejoin:round; stroke-width:4; stroke-opacity:1; fill:none" points="204.426,1445.72 206.514,1445.72 208.601,1445.72 210.689,1445.72 212.777,1445.72 214.865,1445.72 216.953,1445.72 219.041,1445.72 221.128,1445.72 223.216,1445.72 225.304,1445.72 227.392,1445.72 229.48,1445.72 231.568,1445.72 233.656,1445.72 235.743,1445.72 237.831,1445.72 239.919,1445.72 242.007,1445.72 244.095,1445.72 246.183,1445.72 248.27,1445.72 250.358,1445.72 252.446,1445.72 254.534,1445.72 256.622,1445.72 258.71,1445.72 260.797,1445.72 262.885,1445.72 264.973,1445.72 267.061,1445.72 269.149,1445.72 271.237,1445.72 273.325,1445.72 275.412,1445.72 277.5,1445.72 279.588,1445.72 281.676,1445.72 283.764,1445.72 285.852,1445.72 287.939,1445.72 290.027,1445.72 292.115,1445.72 294.203,1445.72 296.291,1445.72 298.379,1445.72 300.467,1445.72 302.554,1445.72 304.642,1445.72 306.73,1445.72 308.818,1445.72 310.906,1445.72 312.994,1445.72 315.081,1445.72 317.169,1445.72 319.257,1445.72 321.345,1445.72 323.433,1445.72 325.521,1445.72 327.609,1445.72 329.696,1445.72 331.784,1445.72 333.872,1445.72 335.96,1445.72 338.048,1445.72 340.136,1445.72 342.223,1445.72 344.311,1445.72 346.399,1445.72 348.487,1445.72 350.575,1445.72 352.663,1445.72 354.751,1445.72 356.838,1445.72 358.926,1445.72 361.014,1445.72 363.102,1445.72 365.19,1445.72 367.278,1445.72 369.365,1445.72 371.453,1445.72 373.541,1445.72 375.629,1445.72 377.717,1445.72 379.805,1445.72 381.893,1445.72 383.98,1445.72 386.068,1445.72 388.156,1445.72 390.244,1445.72 392.332,1445.72 394.42,1445.72 396.507,1445.72 398.595,1445.72 400.683,1445.72 402.771,1445.72 404.859,1445.72 406.947,1445.72 409.035,1445.72 411.122,1445.72 413.21,1445.72 415.298,1445.72 417.386,1445.72 419.474,1445.72 421.562,1445.72 423.649,1445.72 425.737,1445.72 427.825,1445.72 429.913,1445.72 432.001,1445.72 434.089,1445.72 436.177,1445.72 438.264,1445.72 440.352,1445.72 442.44,1445.72 444.528,1445.72 446.616,1445.72 448.704,1445.72 450.791,1445.72 452.879,1445.72 454.967,1445.72 457.055,1445.72 459.143,1445.72 461.231,1445.72 463.318,1445.72 465.406,1445.72 467.494,1445.72 469.582,1445.72 471.67,1445.72 473.758,1445.72 475.846,1445.72 477.933,1445.72 480.021,1445.72 482.109,1445.72 484.197,1445.72 486.285,1445.72 488.373,1445.72 490.46,1445.72 492.548,1445.72 494.636,1445.72 496.724,1445.72 498.812,1445.72 500.9,1445.72 502.988,1445.72 505.075,1445.72 507.163,1445.72 509.251,1445.72 511.339,1445.72 513.427,1445.72 515.515,1445.72 517.602,1445.72 519.69,1445.72 521.778,1445.72 523.866,1445.72 525.954,1445.72 528.042,1445.72 530.13,1445.72 532.217,1445.72 534.305,1445.72 536.393,1445.72 538.481,1445.72 540.569,1445.72 542.657,1445.72 544.744,1445.72 546.832,1445.72 548.92,1445.72 551.008,1445.72 553.096,1445.72 555.184,1445.72 557.272,1445.72 559.359,1445.72 561.447,1445.72 563.535,1445.72 565.623,1445.72 567.711,1445.72 569.799,1445.72 571.886,1445.72 573.974,1445.72 576.062,1445.72 578.15,1445.72 580.238,1445.72 582.326,1445.72 584.414,1445.72 586.501,1445.72 588.589,1445.72 590.677,1445.72 592.765,1445.72 594.853,1445.72 596.941,1445.72 599.028,1445.72 601.116,1445.72 603.204,1445.72 605.292,1445.72 607.38,1445.72 609.468,1445.72 611.556,1445.72 613.643,1445.72 615.731,1445.72 617.819,1445.72 619.907,1445.72 621.995,1445.72 624.083,1445.72 626.17,1445.72 628.258,1445.72 630.346,1445.72 632.434,1445.72 634.522,1445.72 636.61,1445.72 638.698,1445.72 640.785,1445.72 642.873,1445.72 644.961,1445.72 647.049,1445.72 649.137,1445.72 651.225,1445.72 653.312,1445.72 655.4,1445.72 657.488,1445.72 659.576,1445.72 661.664,1445.72 663.752,1445.72 665.839,1445.72 667.927,1445.72 670.015,1445.72 672.103,1445.72 674.191,1445.72 676.279,1445.72 678.367,1445.72 680.454,1445.72 682.542,1445.72 684.63,1445.72 686.718,1445.72 688.806,1445.72 690.894,1445.72 692.981,1445.72 695.069,1445.72 697.157,1445.72 699.245,1445.72 701.333,1445.72 703.421,1445.72 705.509,1445.72 707.596,1445.72 709.684,1445.72 711.772,1445.72 713.86,1445.72 715.948,1445.72 718.036,1445.72 720.123,1445.72 722.211,1445.72 724.299,1445.72 726.387,1445.72 728.475,1445.72 730.563,1445.72 732.651,1445.72 734.738,1445.72 736.826,1445.72 738.914,1445.72 741.002,1445.72 743.09,1445.72 745.178,1445.72 747.265,1445.72 749.353,1445.72 751.441,1445.72 753.529,1445.72 755.617,1445.72 757.705,1445.72 759.793,1445.72 761.88,1445.72 763.968,1445.72 766.056,1445.72 768.144,1445.72 770.232,1445.72 772.32,1445.72 774.407,1445.72 776.495,1445.72 778.583,1445.72 780.671,1445.72 782.759,1445.72 784.847,1445.72 786.935,1445.72 789.022,1445.72 791.11,1445.72 793.198,1445.72 795.286,1445.72 797.374,1445.72 799.462,1445.72 801.549,1445.72 803.637,1445.72 805.725,1445.72 807.813,1445.72 809.901,1445.72 811.989,1445.72 814.077,1445.72 816.164,1445.72 818.252,1445.72 820.34,1445.72 822.428,1445.72 824.516,1445.72 826.604,1445.72 828.691,1445.72 830.779,1445.72 832.867,1445.72 834.955,1445.72 837.043,1445.72 839.131,1445.72 841.219,1445.72 843.306,1445.72 845.394,1445.72 847.482,1445.72 849.57,1445.72 851.658,1445.72 853.746,1445.72 855.833,1445.72 857.921,1445.72 860.009,1445.72 862.097,1445.72 864.185,1445.72 866.273,1445.72 868.36,1445.72 870.448,1445.72 872.536,1445.72 874.624,1445.72 876.712,1445.72 878.8,1445.72 880.888,1445.72 882.975,1445.72 885.063,1445.72 887.151,1445.72 889.239,1445.72 891.327,1445.72 893.415,1445.72 895.502,1445.72 897.59,1445.72 899.678,1445.72 901.766,1445.72 903.854,1445.72 905.942,1445.72 908.03,1445.72 910.117,1445.72 912.205,1445.72 914.293,1445.72 916.381,1445.72 918.469,1445.72 920.557,1445.72 922.644,1445.72 924.732,1445.72 926.82,1445.72 928.908,1445.72 930.996,1445.72 933.084,1445.72 935.172,1445.72 937.259,1445.72 939.347,1445.72 941.435,1445.72 943.523,1445.72 945.611,1445.72 947.699,1445.72 949.786,1445.72 951.874,1445.72 953.962,1445.72 956.05,1445.72 958.138,1445.72 960.226,1445.72 962.314,1445.72 964.401,1445.72 966.489,1445.72 968.577,1445.72 970.665,1445.72 972.753,1445.72 974.841,1445.72 976.928,1445.72 979.016,1445.72 981.104,1445.72 983.192,1445.72 985.28,1445.72 987.368,1445.72 989.456,1445.72 991.543,1445.72 993.631,1445.72 995.719,1445.72 997.807,1445.72 999.895,1445.72 1001.98,1445.72 1004.07,1445.72 1006.16,1445.72 1008.25,1445.72 1010.33,1445.72 1012.42,1445.72 1014.51,1445.72 1016.6,1445.72 1018.69,1445.72 1020.77,1445.72 1022.86,1445.72 1024.95,1445.72 1027.04,1445.72 1029.12,1445.72 1031.21,1445.72 1033.3,1445.72 1035.39,1445.72 1037.48,1445.72 1039.56,1445.72 1041.65,1445.72 1043.74,1445.72 1045.83,1445.72 1047.92,1445.72 1050,1445.72 1052.09,1445.72 1054.18,1445.72 1056.27,1445.72 1058.35,1445.72 1060.44,1445.72 1062.53,1445.72 1064.62,1445.72 1066.71,1445.72 1068.79,1445.72 1070.88,1445.72 1072.97,1445.72 1075.06,1445.72 1077.15,1445.72 1079.23,1445.72 1081.32,1445.72 1083.41,1445.72 1085.5,1445.72 1087.58,1445.72 1089.67,1445.72 1091.76,1445.72 1093.85,1445.72 1095.94,1445.72 1098.02,1445.72 1100.11,1445.72 1102.2,1445.72 1104.29,1445.72 1106.37,1445.72 1108.46,1445.72 1110.55,1445.72 1112.64,1445.72 1114.73,1445.72 1116.81,1445.72 1118.9,1445.72 1120.99,1445.72 1123.08,1445.72 1125.17,1445.72 1127.25,1445.72 1129.34,1445.72 1131.43,1445.72 1133.52,1445.72 1135.6,1445.72 1137.69,1445.72 1139.78,1445.72 1141.87,1445.72 1143.96,1445.72 1146.04,1445.72 1148.13,1445.72 1150.22,1445.72 1152.31,1445.72 1154.4,1445.72 1156.48,1445.72 1158.57,1445.72 1160.66,1445.72 1162.75,1445.72 1164.83,1445.72 1166.92,1445.72 1169.01,1445.72 1171.1,1445.72 1173.19,1445.72 1175.27,1445.72 1177.36,1445.72 1179.45,1445.72 1181.54,1445.72 1183.63,1445.72 1185.71,1445.72 1187.8,1445.72 1189.89,1445.72 1191.98,1445.72 1194.06,1445.72 1196.15,1445.72 1198.24,1445.72 1200.33,1445.72 1202.42,1445.72 1204.5,1445.72 1206.59,1445.72 1208.68,1445.72 1210.77,1445.72 1212.85,1445.72 1214.94,1445.72 1217.03,1445.72 1219.12,1445.72 1221.21,1445.72 1223.29,1445.72 1225.38,1445.72 1227.47,1445.72 1229.56,1445.72 1231.65,1445.72 1233.73,1445.72 1235.82,1445.72 1237.91,1445.72 1240,1445.72 1242.08,1445.72 1244.17,1445.72 1246.26,1445.72 1248.35,1445.72 1250.44,1445.72 1252.52,1445.72 1254.61,1445.72 1256.7,1445.72 1258.79,1445.72 1260.88,1445.72 1262.96,1445.72 1265.05,1445.72 1267.14,1445.72 1269.23,1445.72 1271.31,1445.72 1273.4,1445.72 1275.49,1445.72 1277.58,1445.72 1279.67,1445.72 1281.75,1445.72 1283.84,1445.72 1285.93,1445.72 1288.02,1445.72 1290.11,1445.72 1292.19,1445.72 1294.28,1445.72 1296.37,1445.72 1298.46,1445.72 1300.54,1445.72 1302.63,1445.72 1304.72,1445.72 1306.81,1445.72 1308.9,1445.72 1310.98,1445.72 1313.07,1445.72 1315.16,1445.72 1317.25,1445.72 1319.34,1445.72 1321.42,1445.72 1323.51,1445.72 1325.6,1445.72 1327.69,1445.72 1329.77,1445.72 1331.86,1445.72 1333.95,1445.72 1336.04,1445.72 1338.13,1445.72 1340.21,1445.72 1342.3,1445.72 1344.39,1445.72 1346.48,1445.72 1348.56,1445.72 1350.65,1445.72 1352.74,1445.72 1354.83,1445.72 1356.92,1445.72 1359,1445.72 1361.09,1445.72 1363.18,1445.72 1365.27,1445.72 1367.36,1445.72 1369.44,1445.72 1371.53,1445.72 1373.62,1445.72 1375.71,1445.72 1377.79,1445.72 1379.88,1445.72 1381.97,1445.72 1384.06,1445.72 1386.15,1445.72 1388.23,1445.72 1390.32,1445.72 1392.41,1445.72 1394.5,1445.72 1396.59,1445.72 1398.67,1445.72 1400.76,1445.72 1402.85,1445.72 1404.94,1445.72 1407.02,1445.72 1409.11,1445.72 1411.2,1445.72 1413.29,1445.72 1415.38,1445.72 1417.46,1445.72 1419.55,1445.72 1421.64,1445.72 1423.73,1445.72 1425.82,1445.72 1427.9,1445.72 1429.99,1445.72 1432.08,1445.72 1434.17,1445.72 1436.25,1445.72 1438.34,1445.72 1440.43,1445.72 1442.52,1445.72 1444.61,1445.72 1446.69,1445.72 1448.78,1445.72 1450.87,1445.72 1452.96,1445.72 1455.05,1445.72 1457.13,1445.72 1459.22,1445.72 1461.31,1445.72 1463.4,1445.72 1465.48,1445.72 1467.57,1445.72 1469.66,1445.72 1471.75,1445.72 1473.84,1445.72 1475.92,1445.72 1478.01,1445.72 1480.1,1445.72 1482.19,1445.72 1484.27,1445.72 1486.36,1445.72 1488.45,1445.72 1490.54,1445.72 1492.63,1445.72 1494.71,1445.72 1496.8,1445.72 1498.89,1445.72 1500.98,1445.72 1503.07,1445.72 1505.15,1445.72 1507.24,1445.72 1509.33,1445.72 1511.42,1445.72 1513.5,1445.72 1515.59,1445.72 1517.68,1445.72 1519.77,1445.72 1521.86,1445.72 1523.94,1445.72 1526.03,1445.72 1528.12,1445.72 1530.21,1445.72 1532.3,1445.72 1534.38,1445.72 1536.47,1445.72 1538.56,1445.72 1540.65,1445.72 1542.73,1445.72 1544.82,1445.72 1546.91,1445.72 1549,1445.72 1551.09,1445.72 1553.17,1445.72 1555.26,1445.72 1557.35,1445.72 1559.44,1445.72 1561.53,1445.72 1563.61,1445.72 1565.7,1445.72 1567.79,1445.72 1569.88,1445.72 1571.96,1445.72 1574.05,1445.72 1576.14,1445.72 1578.23,1445.72 1580.32,1445.72 1582.4,1445.72 1584.49,1445.72 1586.58,1445.72 1588.67,1445.72 1590.75,1445.72 1592.84,1445.72 1594.93,1445.72 1597.02,1445.72 1599.11,1445.72 1601.19,1445.72 1603.28,1445.72 1605.37,1445.72 1607.46,1445.72 1609.55,1445.72 1611.63,1445.72 1613.72,1445.72 1615.81,1445.72 1617.9,1445.72 1619.98,1445.72 1622.07,1445.72 1624.16,1445.72 1626.25,1445.72 1628.34,1445.72 1630.42,1445.72 1632.51,1445.72 1634.6,1445.72 1636.69,1445.72 1638.78,1445.72 1640.86,1445.72 1642.95,1445.72 1645.04,1445.72 1647.13,1445.72 1649.21,1445.72 1651.3,1445.72 1653.39,1445.72 1655.48,1445.72 1657.57,1445.72 1659.65,1445.72 1661.74,1445.72 1663.83,1445.72 1665.92,1445.72 1668.01,1445.72 1670.09,1445.72 1672.18,1445.72 1674.27,1445.72 1676.36,1445.72 1678.44,1445.72 1680.53,1445.72 1682.62,1445.72 1684.71,1445.72 1686.8,1445.72 1688.88,1445.72 1690.97,1445.72 1693.06,1445.72 1695.15,1445.72 1697.24,1445.72 1699.32,1445.72 1701.41,1445.72 1703.5,1445.72 1705.59,1445.72 1707.67,1445.72 1709.76,1445.72 1711.85,1445.72 1713.94,1445.72 1716.03,1445.72 1718.11,1445.72 1720.2,1445.72 1722.29,1445.72 1724.38,1445.72 1726.46,1445.72 1728.55,1445.72 1730.64,1445.72 1732.73,1445.72 1734.82,1445.72 1736.9,1445.72 1738.99,1445.72 1741.08,1445.72 1743.17,1445.72 1745.26,1445.72 1747.34,1445.72 1749.43,1445.72 1751.52,1445.72 1753.61,1445.72 1755.69,1445.72 1757.78,1445.72 1759.87,1445.72 1761.96,1445.72 1764.05,1445.72 1766.13,1445.72 1768.22,1445.72 1770.31,1445.72 1772.4,1445.72 1774.49,1445.72 1776.57,1445.72 1778.66,1445.72 1780.75,1445.72 1782.84,1445.72 1784.92,1445.72 1787.01,1445.72 1789.1,1445.72 1791.19,1445.72 1793.28,1445.72 1795.36,1445.72 1797.45,1445.72 1799.54,1445.72 1801.63,1445.72 1803.72,1445.72 1805.8,1445.72 1807.89,1445.72 1809.98,1445.72 1812.07,1445.72 1814.15,1445.72 1816.24,1445.72 1818.33,1445.72 1820.42,1445.72 1822.51,1445.72 1824.59,1445.72 1826.68,1445.72 1828.77,1445.72 1830.86,1445.72 1832.95,1445.72 1835.03,1445.72 1837.12,1445.72 1839.21,1445.72 1841.3,1445.72 1843.38,1445.72 1845.47,1445.72 1847.56,1445.72 1849.65,1445.72 1851.74,1445.72 1853.82,1445.72 1855.91,1445.72 1858,1445.72 1860.09,1445.72 1862.17,1445.72 1864.26,1445.72 1866.35,1445.72 1868.44,1445.72 1870.53,1445.72 1872.61,1445.72 1874.7,1445.72 1876.79,1445.72 1878.88,1445.72 1880.97,1445.72 1883.05,1445.72 1885.14,1445.72 1887.23,1445.72 1889.32,1445.72 1891.4,1445.72 1893.49,1445.72 1895.58,1445.72 1897.67,1445.72 1899.76,1445.72 1901.84,1445.72 1903.93,1445.72 1906.02,1445.72 1908.11,1445.72 1910.2,1445.72 1912.28,1445.72 1914.37,1445.72 1916.46,1445.72 1918.55,1445.72 1920.63,1445.72 1922.72,1445.72 1924.81,1445.72 1926.9,1445.72 1928.99,1445.72 1931.07,1445.72 1933.16,1445.72 1935.25,1445.72 1937.34,1445.72 1939.43,1445.72 1941.51,1445.72 1943.6,1445.72 1945.69,1445.72 1947.78,1445.72 1949.86,1445.72 1951.95,1445.72 1954.04,1445.72 1956.13,1445.72 1958.22,1445.72 1960.3,1445.72 1962.39,1445.72 1964.48,1445.72 1966.57,1445.72 1968.65,1445.72 1970.74,1445.72 1972.83,1445.72 1974.92,1445.72 1977.01,1445.72 1979.09,1445.72 1981.18,1445.72 1983.27,1445.72 1985.36,1445.72 1987.45,1445.72 1989.53,1445.72 1991.62,1445.72 1993.71,1445.72 1995.8,1445.72 1997.88,1445.72 1999.97,1445.72 2002.06,1445.72 2004.15,1445.72 2006.24,1445.72 2008.32,1445.72 2010.41,1445.72 2012.5,1445.72 2014.59,1445.72 2016.68,1445.72 2018.76,1445.72 2020.85,1445.72 2022.94,1445.72 2025.03,1445.72 2027.11,1445.72 2029.2,1445.72 2031.29,1445.72 2033.38,1445.72 2035.47,1445.72 2037.55,1445.72 2039.64,1445.72 2041.73,1445.72 2043.82,1445.72 2045.91,1445.72 2047.99,1445.72 2050.08,1445.72 2052.17,1445.72 2054.26,1445.72 2056.34,1445.72 2058.43,1445.72 2060.52,1445.72 2062.61,1445.72 2064.7,1445.72 2066.78,1445.72 2068.87,1445.72 2070.96,1445.72 2073.05,1445.72 2075.14,1445.72 2077.22,1445.72 2079.31,1445.72 2081.4,1445.72 2083.49,1445.72 2085.57,1445.72 2087.66,1445.72 2089.75,1445.72 2091.84,1445.72 2093.93,1445.72 2096.01,1445.72 2098.1,1445.72 2100.19,1445.72 2102.28,1445.72 2104.36,1445.72 2106.45,1445.72 2108.54,1445.72 2110.63,1445.72 2112.72,1445.72 2114.8,1445.72 2116.89,1445.72 2118.98,1445.72 2121.07,1445.72 2123.16,1445.72 2125.24,1445.72 2127.33,1445.72 2129.42,1445.72 2131.51,1445.72 2133.59,1445.72 2135.68,1445.72 2137.77,1445.72 2139.86,1445.72 2141.95,1445.72 2144.03,1445.72 2146.12,1445.72 2148.21,1445.72 2150.3,1445.72 2152.39,1445.72 2154.47,1445.72 2156.56,1445.72 2158.65,1445.72 2160.74,1445.72 2162.82,1445.72 2164.91,1445.72 2167,1445.72 2169.09,1445.72 2171.18,1445.72 2173.26,1445.72 2175.35,1445.72 2177.44,1445.72 2179.53,1445.72 2181.62,1445.72 2183.7,1445.72 2185.79,1445.72 2187.88,1445.72 2189.97,1445.72 2192.05,1445.72 2194.14,1445.72 2196.23,1445.72 2198.32,1445.72 2200.41,1445.72 2202.49,1445.72 2204.58,1445.72 2206.67,1445.72 2208.76,1445.72 2210.85,1445.72 2212.93,1445.72 2215.02,1445.72 2217.11,1445.72 2219.2,1445.72 2221.28,1445.72 2223.37,1445.72 2225.46,1445.72 2227.55,1445.72 2229.64,1445.72 2231.72,1445.72 2233.81,1445.72 2235.9,1445.72 2237.99,1445.72 2240.07,1445.72 2242.16,1445.72 2244.25,1445.72 2246.34,1445.72 2248.43,1445.72 2250.51,1445.72 2252.6,1445.72 2254.69,1445.72 2256.78,1445.72 2258.87,1445.72 2260.95,1445.72 2263.04,1445.72 2265.13,1445.72 2267.22,1445.72 2269.3,1445.72 2271.39,1445.72 2273.48,1445.72 2275.57,1445.72 2277.66,1445.72 2279.74,1445.72 2281.83,1445.72 2283.92,1445.72 2286.01,1445.72 2288.1,1445.72 2290.18,1445.72 "/>
<polyline clip-path="url(#clip881)" style="stroke:#e26f46; stroke-linecap:round; stroke-linejoin:round; stroke-width:4; stroke-opacity:1; fill:none" points="204.426,1445.66 206.514,1445.67 208.601,1445.67 210.689,1445.68 212.777,1445.68 214.865,1445.68 216.953,1445.69 219.041,1445.69 221.128,1445.69 223.216,1445.7 225.304,1445.7 227.392,1445.7 229.48,1445.7 231.568,1445.71 233.656,1445.71 235.743,1445.71 237.831,1445.71 239.919,1445.71 242.007,1445.71 244.095,1445.71 246.183,1445.72 248.27,1445.72 250.358,1445.72 252.446,1445.72 254.534,1445.72 256.622,1445.71 258.71,1445.71 260.797,1445.71 262.885,1445.71 264.973,1445.71 267.061,1445.71 269.149,1445.71 271.237,1445.7 273.325,1445.7 275.412,1445.7 277.5,1445.69 279.588,1445.69 281.676,1445.69 283.764,1445.68 285.852,1445.68 287.939,1445.67 290.027,1445.67 292.115,1445.66 294.203,1445.66 296.291,1445.65 298.379,1445.65 300.467,1445.64 302.554,1445.63 304.642,1445.62 306.73,1445.62 308.818,1445.61 310.906,1445.6 312.994,1445.59 315.081,1445.58 317.169,1445.57 319.257,1445.56 321.345,1445.55 323.433,1445.54 325.521,1445.53 327.609,1445.52 329.696,1445.51 331.784,1445.49 333.872,1445.48 335.96,1445.47 338.048,1445.46 340.136,1445.44 342.223,1445.43 344.311,1445.41 346.399,1445.4 348.487,1445.38 350.575,1445.36 352.663,1445.35 354.751,1445.33 356.838,1445.31 358.926,1445.29 361.014,1445.27 363.102,1445.25 365.19,1445.23 367.278,1445.21 369.365,1445.19 371.453,1445.17 373.541,1445.15 375.629,1445.13 377.717,1445.1 379.805,1445.08 381.893,1445.06 383.98,1445.03 386.068,1445 388.156,1444.98 390.244,1444.95 392.332,1444.92 394.42,1444.9 396.507,1444.87 398.595,1444.84 400.683,1444.81 402.771,1444.78 404.859,1444.74 406.947,1444.71 409.035,1444.68 411.122,1444.64 413.21,1444.61 415.298,1444.57 417.386,1444.54 419.474,1444.5 421.562,1444.46 423.649,1444.42 425.737,1444.39 427.825,1444.35 429.913,1444.3 432.001,1444.26 434.089,1444.22 436.177,1444.18 438.264,1444.13 440.352,1444.09 442.44,1444.04 444.528,1443.99 446.616,1443.94 448.704,1443.89 450.791,1443.84 452.879,1443.79 454.967,1443.74 457.055,1443.69 459.143,1443.63 461.231,1443.58 463.318,1443.52 465.406,1443.46 467.494,1443.41 469.582,1443.35 471.67,1443.28 473.758,1443.22 475.846,1443.16 477.933,1443.09 480.021,1443.03 482.109,1442.96 484.197,1442.89 486.285,1442.82 488.373,1442.75 490.46,1442.68 492.548,1442.61 494.636,1442.53 496.724,1442.45 498.812,1442.38 500.9,1442.3 502.988,1442.22 505.075,1442.13 507.163,1442.05 509.251,1441.97 511.339,1441.88 513.427,1441.79 515.515,1441.7 517.602,1441.61 519.69,1441.52 521.778,1441.42 523.866,1441.32 525.954,1441.22 528.042,1441.12 530.13,1441.02 532.217,1440.92 534.305,1440.81 536.393,1440.7 538.481,1440.59 540.569,1440.48 542.657,1440.37 544.744,1440.25 546.832,1440.14 548.92,1440.02 551.008,1439.89 553.096,1439.77 555.184,1439.64 557.272,1439.51 559.359,1439.38 561.447,1439.25 563.535,1439.11 565.623,1438.97 567.711,1438.83 569.799,1438.69 571.886,1438.54 573.974,1438.4 576.062,1438.24 578.15,1438.09 580.238,1437.93 582.326,1437.78 584.414,1437.61 586.501,1437.45 588.589,1437.28 590.677,1437.11 592.765,1436.94 594.853,1436.76 596.941,1436.58 599.028,1436.39 601.116,1436.21 603.204,1436.02 605.292,1435.82 607.38,1435.63 609.468,1435.43 611.556,1435.22 613.643,1435.02 615.731,1434.8 617.819,1434.59 619.907,1434.37 621.995,1434.15 624.083,1433.92 626.17,1433.69 628.258,1433.45 630.346,1433.21 632.434,1432.97 634.522,1432.72 636.61,1432.47 638.698,1432.21 640.785,1431.95 642.873,1431.68 644.961,1431.41 647.049,1431.14 649.137,1430.86 651.225,1430.57 653.312,1430.28 655.4,1429.98 657.488,1429.68 659.576,1429.37 661.664,1429.06 663.752,1428.74 665.839,1428.41 667.927,1428.08 670.015,1427.74 672.103,1427.4 674.191,1427.05 676.279,1426.7 678.367,1426.33 680.454,1425.96 682.542,1425.59 684.63,1425.2 686.718,1424.81 688.806,1424.42 690.894,1424.01 692.981,1423.6 695.069,1423.18 697.157,1422.75 699.245,1422.31 701.333,1421.87 703.421,1421.41 705.509,1420.95 707.596,1420.48 709.684,1420 711.772,1419.51 713.86,1419.02 715.948,1418.51 718.036,1417.99 720.123,1417.47 722.211,1416.93 724.299,1416.38 726.387,1415.82 728.475,1415.25 730.563,1414.67 732.651,1414.08 734.738,1413.48 736.826,1412.86 738.914,1412.24 741.002,1411.6 743.09,1410.95 745.178,1410.28 747.265,1409.6 749.353,1408.91 751.441,1408.21 753.529,1407.49 755.617,1406.76 757.705,1406.01 759.793,1405.24 761.88,1404.47 763.968,1403.67 766.056,1402.86 768.144,1402.03 770.232,1401.19 772.32,1400.33 774.407,1399.45 776.495,1398.55 778.583,1397.64 780.671,1396.7 782.759,1395.75 784.847,1394.77 786.935,1393.78 789.022,1392.76 791.11,1391.73 793.198,1390.67 795.286,1389.59 797.374,1388.48 799.462,1387.36 801.549,1386.2 803.637,1385.03 805.725,1383.83 807.813,1382.6 809.901,1381.34 811.989,1380.06 814.077,1378.75 816.164,1377.42 818.252,1376.05 820.34,1374.65 822.428,1373.22 824.516,1371.76 826.604,1370.27 828.691,1368.75 830.779,1367.19 832.867,1365.59 834.955,1363.96 837.043,1362.29 839.131,1360.59 841.219,1358.84 843.306,1357.06 845.394,1355.23 847.482,1353.37 849.57,1351.46 851.658,1349.5 853.746,1347.5 855.833,1345.45 857.921,1343.36 860.009,1341.22 862.097,1339.02 864.185,1336.77 866.273,1334.47 868.36,1332.12 870.448,1329.71 872.536,1327.24 874.624,1324.71 876.712,1322.12 878.8,1319.47 880.888,1316.75 882.975,1313.97 885.063,1311.12 887.151,1308.2 889.239,1305.2 891.327,1302.13 893.415,1298.99 895.502,1295.77 897.59,1292.46 899.678,1289.08 901.766,1285.61 903.854,1282.05 905.942,1278.4 908.03,1274.66 910.117,1270.82 912.205,1266.88 914.293,1262.85 916.381,1258.71 918.469,1254.46 920.557,1250.11 922.644,1245.64 924.732,1241.05 926.82,1236.34 928.908,1231.52 930.996,1226.56 933.084,1221.48 935.172,1216.26 937.259,1210.9 939.347,1205.41 941.435,1199.76 943.523,1193.97 945.611,1188.03 947.699,1181.93 949.786,1175.66 951.874,1169.23 953.962,1162.63 956.05,1155.85 958.138,1148.89 960.226,1141.74 962.314,1134.41 964.401,1126.88 966.489,1119.15 968.577,1111.21 970.665,1103.06 972.753,1094.7 974.841,1086.12 976.928,1077.31 979.016,1068.27 981.104,1058.99 983.192,1049.47 985.28,1039.7 987.368,1029.68 989.456,1019.4 991.543,1008.86 993.631,998.051 995.719,986.969 997.807,975.609 999.895,963.968 1001.98,952.041 1004.07,939.825 1006.16,927.315 1008.25,914.508 1010.33,901.402 1012.42,887.995 1014.51,874.284 1016.6,860.269 1018.69,845.948 1020.77,831.322 1022.86,816.393 1024.95,801.161 1027.04,785.629 1029.12,769.801 1031.21,753.682 1033.3,737.278 1035.39,720.595 1037.48,703.643 1039.56,686.431 1041.65,668.97 1043.74,651.274 1045.83,633.357 1047.92,615.236 1050,596.928 1052.09,578.453 1054.18,559.833 1056.27,541.091 1058.35,522.254 1060.44,503.349 1062.53,484.406 1064.62,465.455 1066.71,446.53 1068.79,427.667 1070.88,408.903 1072.97,390.275 1075.06,371.824 1077.15,353.592 1079.23,335.621 1081.32,317.954 1083.41,300.637 1085.5,283.713 1087.58,267.228 1089.67,251.228 1091.76,235.755 1093.85,220.856 1095.94,206.571 1098.02,192.943 1100.11,180.012 1102.2,167.816 1104.29,156.39 1106.37,145.766 1108.46,135.976 1110.55,127.045 1112.64,118.997 1114.73,111.852 1116.81,105.626 1118.9,100.332 1120.99,95.9764 1123.08,92.565 1125.17,90.0975 1127.25,88.5705 1129.34,87.9763 1131.43,88.3037 1133.52,89.5381 1135.6,91.6611 1137.69,94.6516 1139.78,98.4852 1141.87,103.135 1143.96,108.572 1146.04,114.764 1148.13,121.68 1150.22,129.283 1152.31,137.538 1154.4,146.408 1156.48,155.856 1158.57,165.844 1160.66,176.334 1162.75,187.289 1164.83,198.67 1166.92,210.441 1169.01,222.565 1171.1,235.008 1173.19,247.733 1175.27,260.709 1177.36,273.903 1179.45,287.283 1181.54,300.821 1183.63,314.487 1185.71,328.256 1187.8,342.102 1189.89,356.001 1191.98,369.93 1194.06,383.869 1196.15,397.798 1198.24,411.698 1200.33,425.553 1202.42,439.346 1204.5,453.064 1206.59,466.693 1208.68,480.222 1210.77,493.638 1212.85,506.934 1214.94,520.098 1217.03,533.124 1219.12,546.004 1221.21,558.733 1223.29,571.304 1225.38,583.713 1227.47,595.956 1229.56,608.029 1231.65,619.93 1233.73,631.655 1235.82,643.205 1237.91,654.576 1240,665.768 1242.08,676.782 1244.17,687.615 1246.26,698.269 1248.35,708.745 1250.44,719.042 1252.52,729.162 1254.61,739.106 1256.7,748.876 1258.79,758.473 1260.88,767.898 1262.96,777.154 1265.05,786.243 1267.14,795.166 1269.23,803.927 1271.31,812.526 1273.4,820.968 1275.49,829.253 1277.58,837.384 1279.67,845.365 1281.75,853.197 1283.84,860.883 1285.93,868.425 1288.02,875.826 1290.11,883.089 1292.19,890.217 1294.28,897.21 1296.37,904.074 1298.46,910.808 1300.54,917.418 1302.63,923.903 1304.72,930.268 1306.81,936.515 1308.9,942.645 1310.98,948.662 1313.07,954.568 1315.16,960.365 1317.25,966.054 1319.34,971.639 1321.42,977.122 1323.51,982.505 1325.6,987.789 1327.69,992.978 1329.77,998.072 1331.86,1003.07 1333.95,1007.99 1336.04,1012.81 1338.13,1017.55 1340.21,1022.2 1342.3,1026.77 1344.39,1031.26 1346.48,1035.67 1348.56,1040.01 1350.65,1044.26 1352.74,1048.45 1354.83,1052.56 1356.92,1056.6 1359,1060.57 1361.09,1064.47 1363.18,1068.3 1365.27,1072.07 1367.36,1075.78 1369.44,1079.42 1371.53,1083.01 1373.62,1086.53 1375.71,1089.99 1377.79,1093.4 1379.88,1096.75 1381.97,1100.04 1384.06,1103.28 1386.15,1106.47 1388.23,1109.61 1390.32,1112.7 1392.41,1115.73 1394.5,1118.72 1396.59,1121.66 1398.67,1124.55 1400.76,1127.4 1402.85,1130.21 1404.94,1132.96 1407.02,1135.68 1409.11,1138.36 1411.2,1140.99 1413.29,1143.58 1415.38,1146.13 1417.46,1148.65 1419.55,1151.13 1421.64,1153.56 1423.73,1155.97 1425.82,1158.33 1427.9,1160.67 1429.99,1162.96 1432.08,1165.23 1434.17,1167.46 1436.25,1169.65 1438.34,1171.82 1440.43,1173.95 1442.52,1176.06 1444.61,1178.13 1446.69,1180.17 1448.78,1182.19 1450.87,1184.17 1452.96,1186.13 1455.05,1188.06 1457.13,1189.97 1459.22,1191.85 1461.31,1193.7 1463.4,1195.52 1465.48,1197.33 1467.57,1199.1 1469.66,1200.86 1471.75,1202.59 1473.84,1204.29 1475.92,1205.97 1478.01,1207.64 1480.1,1209.27 1482.19,1210.89 1484.27,1212.49 1486.36,1214.06 1488.45,1215.62 1490.54,1217.15 1492.63,1218.67 1494.71,1220.16 1496.8,1221.64 1498.89,1223.1 1500.98,1224.53 1503.07,1225.95 1505.15,1227.36 1507.24,1228.74 1509.33,1230.11 1511.42,1231.46 1513.5,1232.8 1515.59,1234.12 1517.68,1235.42 1519.77,1236.7 1521.86,1237.97 1523.94,1239.23 1526.03,1240.47 1528.12,1241.69 1530.21,1242.91 1532.3,1244.1 1534.38,1245.28 1536.47,1246.45 1538.56,1247.61 1540.65,1248.75 1542.73,1249.88 1544.82,1250.99 1546.91,1252.09 1549,1253.18 1551.09,1254.26 1553.17,1255.32 1555.26,1256.38 1557.35,1257.42 1559.44,1258.45 1561.53,1259.46 1563.61,1260.47 1565.7,1261.46 1567.79,1262.45 1569.88,1263.42 1571.96,1264.38 1574.05,1265.34 1576.14,1266.28 1578.23,1267.21 1580.32,1268.13 1582.4,1269.04 1584.49,1269.94 1586.58,1270.83 1588.67,1271.72 1590.75,1272.59 1592.84,1273.45 1594.93,1274.31 1597.02,1275.16 1599.11,1275.99 1601.19,1276.82 1603.28,1277.64 1605.37,1278.45 1607.46,1279.26 1609.55,1280.05 1611.63,1280.84 1613.72,1281.62 1615.81,1282.39 1617.9,1283.15 1619.98,1283.91 1622.07,1284.65 1624.16,1285.39 1626.25,1286.13 1628.34,1286.85 1630.42,1287.57 1632.51,1288.28 1634.6,1288.99 1636.69,1289.69 1638.78,1290.38 1640.86,1291.06 1642.95,1291.74 1645.04,1292.41 1647.13,1293.08 1649.21,1293.74 1651.3,1294.39 1653.39,1295.03 1655.48,1295.67 1657.57,1296.31 1659.65,1296.94 1661.74,1297.56 1663.83,1298.18 1665.92,1298.79 1668.01,1299.39 1670.09,1299.99 1672.18,1300.59 1674.27,1301.17 1676.36,1301.76 1678.44,1302.34 1680.53,1302.91 1682.62,1303.48 1684.71,1304.04 1686.8,1304.6 1688.88,1305.15 1690.97,1305.7 1693.06,1306.24 1695.15,1306.78 1697.24,1307.31 1699.32,1307.84 1701.41,1308.36 1703.5,1308.88 1705.59,1309.4 1707.67,1309.91 1709.76,1310.41 1711.85,1310.92 1713.94,1311.41 1716.03,1311.91 1718.11,1312.4 1720.2,1312.88 1722.29,1313.36 1724.38,1313.84 1726.46,1314.31 1728.55,1314.78 1730.64,1315.24 1732.73,1315.71 1734.82,1316.16 1736.9,1316.62 1738.99,1317.07 1741.08,1317.51 1743.17,1317.95 1745.26,1318.39 1747.34,1318.83 1749.43,1319.26 1751.52,1319.69 1753.61,1320.11 1755.69,1320.53 1757.78,1320.95 1759.87,1321.37 1761.96,1321.78 1764.05,1322.19 1766.13,1322.59 1768.22,1322.99 1770.31,1323.39 1772.4,1323.79 1774.49,1324.18 1776.57,1324.57 1778.66,1324.95 1780.75,1325.34 1782.84,1325.72 1784.92,1326.09 1787.01,1326.47 1789.1,1326.84 1791.19,1327.21 1793.28,1327.57 1795.36,1327.94 1797.45,1328.3 1799.54,1328.65 1801.63,1329.01 1803.72,1329.36 1805.8,1329.71 1807.89,1330.06 1809.98,1330.4 1812.07,1330.74 1814.15,1331.08 1816.24,1331.42 1818.33,1331.75 1820.42,1332.09 1822.51,1332.42 1824.59,1332.74 1826.68,1333.07 1828.77,1333.39 1830.86,1333.71 1832.95,1334.03 1835.03,1334.34 1837.12,1334.66 1839.21,1334.97 1841.3,1335.28 1843.38,1335.58 1845.47,1335.89 1847.56,1336.19 1849.65,1336.49 1851.74,1336.79 1853.82,1337.08 1855.91,1337.38 1858,1337.67 1860.09,1337.96 1862.17,1338.24 1864.26,1338.53 1866.35,1338.81 1868.44,1339.09 1870.53,1339.37 1872.61,1339.65 1874.7,1339.93 1876.79,1340.2 1878.88,1340.47 1880.97,1340.74 1883.05,1341.01 1885.14,1341.28 1887.23,1341.54 1889.32,1341.81 1891.4,1342.07 1893.49,1342.33 1895.58,1342.59 1897.67,1342.84 1899.76,1343.1 1901.84,1343.35 1903.93,1343.6 1906.02,1343.85 1908.11,1344.1 1910.2,1344.34 1912.28,1344.59 1914.37,1344.83 1916.46,1345.07 1918.55,1345.31 1920.63,1345.55 1922.72,1345.79 1924.81,1346.02 1926.9,1346.26 1928.99,1346.49 1931.07,1346.72 1933.16,1346.95 1935.25,1347.18 1937.34,1347.4 1939.43,1347.63 1941.51,1347.85 1943.6,1348.07 1945.69,1348.29 1947.78,1348.51 1949.86,1348.73 1951.95,1348.95 1954.04,1349.16 1956.13,1349.38 1958.22,1349.59 1960.3,1349.8 1962.39,1350.01 1964.48,1350.22 1966.57,1350.42 1968.65,1350.63 1970.74,1350.84 1972.83,1351.04 1974.92,1351.24 1977.01,1351.44 1979.09,1351.64 1981.18,1351.84 1983.27,1352.04 1985.36,1352.23 1987.45,1352.43 1989.53,1352.62 1991.62,1352.82 1993.71,1353.01 1995.8,1353.2 1997.88,1353.39 1999.97,1353.57 2002.06,1353.76 2004.15,1353.95 2006.24,1354.13 2008.32,1354.32 2010.41,1354.5 2012.5,1354.68 2014.59,1354.86 2016.68,1355.04 2018.76,1355.22 2020.85,1355.39 2022.94,1355.57 2025.03,1355.75 2027.11,1355.92 2029.2,1356.09 2031.29,1356.27 2033.38,1356.44 2035.47,1356.61 2037.55,1356.78 2039.64,1356.94 2041.73,1357.11 2043.82,1357.28 2045.91,1357.44 2047.99,1357.61 2050.08,1357.77 2052.17,1357.93 2054.26,1358.1 2056.34,1358.26 2058.43,1358.42 2060.52,1358.58 2062.61,1358.73 2064.7,1358.89 2066.78,1359.05 2068.87,1359.2 2070.96,1359.36 2073.05,1359.51 2075.14,1359.66 2077.22,1359.82 2079.31,1359.97 2081.4,1360.12 2083.49,1360.27 2085.57,1360.42 2087.66,1360.56 2089.75,1360.71 2091.84,1360.86 2093.93,1361 2096.01,1361.15 2098.1,1361.29 2100.19,1361.43 2102.28,1361.58 2104.36,1361.72 2106.45,1361.86 2108.54,1362 2110.63,1362.14 2112.72,1362.28 2114.8,1362.42 2116.89,1362.55 2118.98,1362.69 2121.07,1362.82 2123.16,1362.96 2125.24,1363.09 2127.33,1363.23 2129.42,1363.36 2131.51,1363.49 2133.59,1363.62 2135.68,1363.75 2137.77,1363.88 2139.86,1364.01 2141.95,1364.14 2144.03,1364.27 2146.12,1364.4 2148.21,1364.52 2150.3,1364.65 2152.39,1364.77 2154.47,1364.9 2156.56,1365.02 2158.65,1365.15 2160.74,1365.27 2162.82,1365.39 2164.91,1365.51 2167,1365.63 2169.09,1365.75 2171.18,1365.87 2173.26,1365.99 2175.35,1366.11 2177.44,1366.23 2179.53,1366.35 2181.62,1366.46 2183.7,1366.58 2185.79,1366.69 2187.88,1366.81 2189.97,1366.92 2192.05,1367.04 2194.14,1367.15 2196.23,1367.26 2198.32,1367.37 2200.41,1367.48 2202.49,1367.6 2204.58,1367.71 2206.67,1367.82 2208.76,1367.92 2210.85,1368.03 2212.93,1368.14 2215.02,1368.25 2217.11,1368.36 2219.2,1368.46 2221.28,1368.57 2223.37,1368.67 2225.46,1368.78 2227.55,1368.88 2229.64,1368.99 2231.72,1369.09 2233.81,1369.19 2235.9,1369.29 2237.99,1369.4 2240.07,1369.5 2242.16,1369.6 2244.25,1369.7 2246.34,1369.8 2248.43,1369.9 2250.51,1370 2252.6,1370.1 2254.69,1370.19 2256.78,1370.29 2258.87,1370.39 2260.95,1370.48 2263.04,1370.58 2265.13,1370.68 2267.22,1370.77 2269.3,1370.87 2271.39,1370.96 2273.48,1371.05 2275.57,1371.15 2277.66,1371.24 2279.74,1371.33 2281.83,1371.42 2283.92,1371.51 2286.01,1371.61 2288.1,1371.7 2290.18,1371.79 "/>
<polyline clip-path="url(#clip881)" style="stroke:#3da44d; stroke-linecap:round; stroke-linejoin:round; stroke-width:4; stroke-opacity:1; fill:none" points="204.426,1445.72 206.514,1445.72 208.601,1445.72 210.689,1445.72 212.777,1445.72 214.865,1445.72 216.953,1445.72 219.041,1445.72 221.128,1445.72 223.216,1445.72 225.304,1445.72 227.392,1445.72 229.48,1445.72 231.568,1445.72 233.656,1445.72 235.743,1445.72 237.831,1445.72 239.919,1445.72 242.007,1445.72 244.095,1445.72 246.183,1445.72 248.27,1445.72 250.358,1445.72 252.446,1445.72 254.534,1445.72 256.622,1445.72 258.71,1445.72 260.797,1445.72 262.885,1445.72 264.973,1445.72 267.061,1445.72 269.149,1445.72 271.237,1445.72 273.325,1445.72 275.412,1445.72 277.5,1445.72 279.588,1445.72 281.676,1445.72 283.764,1445.72 285.852,1445.72 287.939,1445.72 290.027,1445.72 292.115,1445.72 294.203,1445.72 296.291,1445.72 298.379,1445.72 300.467,1445.72 302.554,1445.72 304.642,1445.72 306.73,1445.72 308.818,1445.72 310.906,1445.72 312.994,1445.72 315.081,1445.72 317.169,1445.72 319.257,1445.72 321.345,1445.72 323.433,1445.72 325.521,1445.72 327.609,1445.72 329.696,1445.72 331.784,1445.72 333.872,1445.72 335.96,1445.72 338.048,1445.72 340.136,1445.72 342.223,1445.72 344.311,1445.72 346.399,1445.72 348.487,1445.72 350.575,1445.72 352.663,1445.72 354.751,1445.72 356.838,1445.72 358.926,1445.72 361.014,1445.72 363.102,1445.72 365.19,1445.72 367.278,1445.72 369.365,1445.72 371.453,1445.72 373.541,1445.72 375.629,1445.72 377.717,1445.72 379.805,1445.72 381.893,1445.72 383.98,1445.72 386.068,1445.72 388.156,1445.72 390.244,1445.72 392.332,1445.72 394.42,1445.72 396.507,1445.72 398.595,1445.72 400.683,1445.72 402.771,1445.72 404.859,1445.72 406.947,1445.72 409.035,1445.72 411.122,1445.72 413.21,1445.72 415.298,1445.72 417.386,1445.72 419.474,1445.72 421.562,1445.72 423.649,1445.72 425.737,1445.72 427.825,1445.72 429.913,1445.72 432.001,1445.72 434.089,1445.72 436.177,1445.72 438.264,1445.72 440.352,1445.72 442.44,1445.72 444.528,1445.72 446.616,1445.72 448.704,1445.72 450.791,1445.72 452.879,1445.72 454.967,1445.72 457.055,1445.72 459.143,1445.72 461.231,1445.72 463.318,1445.72 465.406,1445.72 467.494,1445.72 469.582,1445.72 471.67,1445.72 473.758,1445.72 475.846,1445.72 477.933,1445.72 480.021,1445.72 482.109,1445.72 484.197,1445.72 486.285,1445.72 488.373,1445.72 490.46,1445.72 492.548,1445.72 494.636,1445.72 496.724,1445.72 498.812,1445.72 500.9,1445.72 502.988,1445.72 505.075,1445.72 507.163,1445.72 509.251,1445.72 511.339,1445.72 513.427,1445.72 515.515,1445.72 517.602,1445.72 519.69,1445.72 521.778,1445.72 523.866,1445.72 525.954,1445.72 528.042,1445.72 530.13,1445.72 532.217,1445.72 534.305,1445.72 536.393,1445.72 538.481,1445.72 540.569,1445.72 542.657,1445.72 544.744,1445.72 546.832,1445.72 548.92,1445.72 551.008,1445.72 553.096,1445.72 555.184,1445.72 557.272,1445.72 559.359,1445.72 561.447,1445.72 563.535,1445.72 565.623,1445.72 567.711,1445.72 569.799,1445.72 571.886,1445.72 573.974,1445.72 576.062,1445.72 578.15,1445.72 580.238,1445.72 582.326,1445.72 584.414,1445.72 586.501,1445.72 588.589,1445.72 590.677,1445.72 592.765,1445.72 594.853,1445.72 596.941,1445.72 599.028,1445.72 601.116,1445.72 603.204,1445.72 605.292,1445.72 607.38,1445.72 609.468,1445.72 611.556,1445.72 613.643,1445.72 615.731,1445.72 617.819,1445.72 619.907,1445.72 621.995,1445.72 624.083,1445.72 626.17,1445.72 628.258,1445.72 630.346,1445.72 632.434,1445.72 634.522,1445.72 636.61,1445.72 638.698,1445.72 640.785,1445.72 642.873,1445.72 644.961,1445.72 647.049,1445.72 649.137,1445.72 651.225,1445.72 653.312,1445.72 655.4,1445.72 657.488,1445.72 659.576,1445.72 661.664,1445.72 663.752,1445.72 665.839,1445.72 667.927,1445.72 670.015,1445.72 672.103,1445.72 674.191,1445.72 676.279,1445.72 678.367,1445.72 680.454,1445.72 682.542,1445.72 684.63,1445.72 686.718,1445.72 688.806,1445.72 690.894,1445.72 692.981,1445.72 695.069,1445.72 697.157,1445.72 699.245,1445.72 701.333,1445.72 703.421,1445.72 705.509,1445.72 707.596,1445.72 709.684,1445.72 711.772,1445.72 713.86,1445.72 715.948,1445.72 718.036,1445.72 720.123,1445.72 722.211,1445.72 724.299,1445.72 726.387,1445.72 728.475,1445.72 730.563,1445.72 732.651,1445.72 734.738,1445.72 736.826,1445.72 738.914,1445.72 741.002,1445.72 743.09,1445.72 745.178,1445.72 747.265,1445.72 749.353,1445.72 751.441,1445.72 753.529,1445.72 755.617,1445.72 757.705,1445.72 759.793,1445.72 761.88,1445.72 763.968,1445.72 766.056,1445.72 768.144,1445.72 770.232,1445.72 772.32,1445.72 774.407,1445.72 776.495,1445.72 778.583,1445.72 780.671,1445.72 782.759,1445.72 784.847,1445.72 786.935,1445.72 789.022,1445.72 791.11,1445.72 793.198,1445.72 795.286,1445.72 797.374,1445.72 799.462,1445.72 801.549,1445.72 803.637,1445.72 805.725,1445.72 807.813,1445.72 809.901,1445.72 811.989,1445.72 814.077,1445.72 816.164,1445.72 818.252,1445.72 820.34,1445.72 822.428,1445.72 824.516,1445.72 826.604,1445.72 828.691,1445.72 830.779,1445.72 832.867,1445.72 834.955,1445.72 837.043,1445.72 839.131,1445.72 841.219,1445.72 843.306,1445.72 845.394,1445.72 847.482,1445.72 849.57,1445.72 851.658,1445.72 853.746,1445.72 855.833,1445.72 857.921,1445.72 860.009,1445.72 862.097,1445.72 864.185,1445.72 866.273,1445.72 868.36,1445.72 870.448,1445.72 872.536,1445.72 874.624,1445.72 876.712,1445.72 878.8,1445.72 880.888,1445.72 882.975,1445.72 885.063,1445.72 887.151,1445.72 889.239,1445.72 891.327,1445.72 893.415,1445.72 895.502,1445.72 897.59,1445.72 899.678,1445.72 901.766,1445.72 903.854,1445.72 905.942,1445.72 908.03,1445.72 910.117,1445.72 912.205,1445.72 914.293,1445.72 916.381,1445.72 918.469,1445.72 920.557,1445.72 922.644,1445.72 924.732,1445.72 926.82,1445.72 928.908,1445.72 930.996,1445.72 933.084,1445.72 935.172,1445.72 937.259,1445.72 939.347,1445.72 941.435,1445.72 943.523,1445.72 945.611,1445.72 947.699,1445.72 949.786,1445.72 951.874,1445.72 953.962,1445.72 956.05,1445.72 958.138,1445.72 960.226,1445.72 962.314,1445.72 964.401,1445.72 966.489,1445.72 968.577,1445.72 970.665,1445.72 972.753,1445.72 974.841,1445.72 976.928,1445.72 979.016,1445.72 981.104,1445.72 983.192,1445.72 985.28,1445.72 987.368,1445.72 989.456,1445.72 991.543,1445.72 993.631,1445.72 995.719,1445.72 997.807,1445.72 999.895,1445.72 1001.98,1445.72 1004.07,1445.72 1006.16,1445.72 1008.25,1445.72 1010.33,1445.72 1012.42,1445.72 1014.51,1445.72 1016.6,1445.72 1018.69,1445.72 1020.77,1445.72 1022.86,1445.72 1024.95,1445.72 1027.04,1445.72 1029.12,1445.72 1031.21,1445.72 1033.3,1445.72 1035.39,1445.72 1037.48,1445.72 1039.56,1445.72 1041.65,1445.72 1043.74,1445.72 1045.83,1445.72 1047.92,1445.72 1050,1445.72 1052.09,1445.72 1054.18,1445.72 1056.27,1445.72 1058.35,1445.72 1060.44,1445.72 1062.53,1445.72 1064.62,1445.72 1066.71,1445.72 1068.79,1445.72 1070.88,1445.72 1072.97,1445.72 1075.06,1445.72 1077.15,1445.72 1079.23,1445.72 1081.32,1445.72 1083.41,1445.72 1085.5,1445.72 1087.58,1445.72 1089.67,1445.72 1091.76,1445.72 1093.85,1445.72 1095.94,1445.72 1098.02,1445.72 1100.11,1445.72 1102.2,1445.72 1104.29,1445.72 1106.37,1445.72 1108.46,1445.72 1110.55,1445.72 1112.64,1445.72 1114.73,1445.72 1116.81,1445.72 1118.9,1445.72 1120.99,1445.72 1123.08,1445.72 1125.17,1445.72 1127.25,1445.72 1129.34,1445.72 1131.43,1445.72 1133.52,1445.72 1135.6,1445.72 1137.69,1445.72 1139.78,1445.72 1141.87,1445.72 1143.96,1445.72 1146.04,1445.72 1148.13,1445.72 1150.22,1445.72 1152.31,1445.72 1154.4,1445.72 1156.48,1445.72 1158.57,1445.72 1160.66,1445.72 1162.75,1445.72 1164.83,1445.72 1166.92,1445.72 1169.01,1445.72 1171.1,1445.72 1173.19,1445.72 1175.27,1445.72 1177.36,1445.72 1179.45,1445.72 1181.54,1445.72 1183.63,1445.72 1185.71,1445.72 1187.8,1445.72 1189.89,1445.72 1191.98,1445.72 1194.06,1445.72 1196.15,1445.72 1198.24,1445.72 1200.33,1445.72 1202.42,1445.72 1204.5,1445.72 1206.59,1445.72 1208.68,1445.72 1210.77,1445.72 1212.85,1445.72 1214.94,1445.72 1217.03,1445.72 1219.12,1445.72 1221.21,1445.72 1223.29,1445.72 1225.38,1445.72 1227.47,1445.72 1229.56,1445.72 1231.65,1445.72 1233.73,1445.72 1235.82,1445.72 1237.91,1445.72 1240,1445.72 1242.08,1445.72 1244.17,1445.72 1246.26,1445.72 1248.35,1445.72 1250.44,1445.72 1252.52,1445.72 1254.61,1445.72 1256.7,1445.72 1258.79,1445.72 1260.88,1445.72 1262.96,1445.72 1265.05,1445.72 1267.14,1445.72 1269.23,1445.72 1271.31,1445.72 1273.4,1445.72 1275.49,1445.72 1277.58,1445.72 1279.67,1445.72 1281.75,1445.72 1283.84,1445.72 1285.93,1445.72 1288.02,1445.72 1290.11,1445.72 1292.19,1445.72 1294.28,1445.72 1296.37,1445.72 1298.46,1445.72 1300.54,1445.72 1302.63,1445.72 1304.72,1445.72 1306.81,1445.72 1308.9,1445.72 1310.98,1445.72 1313.07,1445.72 1315.16,1445.72 1317.25,1445.72 1319.34,1445.72 1321.42,1445.72 1323.51,1445.72 1325.6,1445.72 1327.69,1445.72 1329.77,1445.72 1331.86,1445.72 1333.95,1445.72 1336.04,1445.72 1338.13,1445.72 1340.21,1445.72 1342.3,1445.72 1344.39,1445.72 1346.48,1445.72 1348.56,1445.72 1350.65,1445.72 1352.74,1445.72 1354.83,1445.72 1356.92,1445.72 1359,1445.72 1361.09,1445.72 1363.18,1445.72 1365.27,1445.72 1367.36,1445.72 1369.44,1445.72 1371.53,1445.72 1373.62,1445.72 1375.71,1445.72 1377.79,1445.72 1379.88,1445.72 1381.97,1445.72 1384.06,1445.72 1386.15,1445.72 1388.23,1445.72 1390.32,1445.72 1392.41,1445.72 1394.5,1445.72 1396.59,1445.72 1398.67,1445.72 1400.76,1445.72 1402.85,1445.72 1404.94,1445.72 1407.02,1445.72 1409.11,1445.72 1411.2,1445.72 1413.29,1445.72 1415.38,1445.72 1417.46,1445.72 1419.55,1445.72 1421.64,1445.72 1423.73,1445.72 1425.82,1445.72 1427.9,1445.72 1429.99,1445.72 1432.08,1445.72 1434.17,1445.72 1436.25,1445.72 1438.34,1445.72 1440.43,1445.72 1442.52,1445.72 1444.61,1445.72 1446.69,1445.72 1448.78,1445.72 1450.87,1445.72 1452.96,1445.72 1455.05,1445.72 1457.13,1445.72 1459.22,1445.72 1461.31,1445.72 1463.4,1445.72 1465.48,1445.72 1467.57,1445.72 1469.66,1445.72 1471.75,1445.72 1473.84,1445.72 1475.92,1445.72 1478.01,1445.72 1480.1,1445.72 1482.19,1445.72 1484.27,1445.72 1486.36,1445.72 1488.45,1445.72 1490.54,1445.72 1492.63,1445.72 1494.71,1445.72 1496.8,1445.72 1498.89,1445.72 1500.98,1445.72 1503.07,1445.72 1505.15,1445.72 1507.24,1445.72 1509.33,1445.72 1511.42,1445.72 1513.5,1445.72 1515.59,1445.72 1517.68,1445.72 1519.77,1445.72 1521.86,1445.72 1523.94,1445.72 1526.03,1445.72 1528.12,1445.72 1530.21,1445.72 1532.3,1445.72 1534.38,1445.72 1536.47,1445.72 1538.56,1445.72 1540.65,1445.72 1542.73,1445.72 1544.82,1445.72 1546.91,1445.72 1549,1445.72 1551.09,1445.72 1553.17,1445.72 1555.26,1445.72 1557.35,1445.72 1559.44,1445.72 1561.53,1445.72 1563.61,1445.72 1565.7,1445.72 1567.79,1445.72 1569.88,1445.72 1571.96,1445.72 1574.05,1445.72 1576.14,1445.72 1578.23,1445.72 1580.32,1445.72 1582.4,1445.72 1584.49,1445.72 1586.58,1445.72 1588.67,1445.72 1590.75,1445.72 1592.84,1445.72 1594.93,1445.72 1597.02,1445.72 1599.11,1445.72 1601.19,1445.72 1603.28,1445.72 1605.37,1445.72 1607.46,1445.72 1609.55,1445.72 1611.63,1445.72 1613.72,1445.72 1615.81,1445.72 1617.9,1445.72 1619.98,1445.72 1622.07,1445.72 1624.16,1445.72 1626.25,1445.72 1628.34,1445.72 1630.42,1445.72 1632.51,1445.72 1634.6,1445.72 1636.69,1445.72 1638.78,1445.72 1640.86,1445.72 1642.95,1445.72 1645.04,1445.72 1647.13,1445.72 1649.21,1445.72 1651.3,1445.72 1653.39,1445.72 1655.48,1445.72 1657.57,1445.72 1659.65,1445.72 1661.74,1445.72 1663.83,1445.72 1665.92,1445.72 1668.01,1445.72 1670.09,1445.72 1672.18,1445.72 1674.27,1445.72 1676.36,1445.72 1678.44,1445.72 1680.53,1445.72 1682.62,1445.72 1684.71,1445.72 1686.8,1445.72 1688.88,1445.72 1690.97,1445.72 1693.06,1445.72 1695.15,1445.72 1697.24,1445.72 1699.32,1445.72 1701.41,1445.72 1703.5,1445.72 1705.59,1445.72 1707.67,1445.72 1709.76,1445.72 1711.85,1445.72 1713.94,1445.72 1716.03,1445.72 1718.11,1445.72 1720.2,1445.72 1722.29,1445.72 1724.38,1445.72 1726.46,1445.72 1728.55,1445.72 1730.64,1445.72 1732.73,1445.72 1734.82,1445.72 1736.9,1445.72 1738.99,1445.72 1741.08,1445.72 1743.17,1445.72 1745.26,1445.72 1747.34,1445.72 1749.43,1445.72 1751.52,1445.72 1753.61,1445.72 1755.69,1445.72 1757.78,1445.72 1759.87,1445.72 1761.96,1445.72 1764.05,1445.72 1766.13,1445.72 1768.22,1445.72 1770.31,1445.72 1772.4,1445.72 1774.49,1445.72 1776.57,1445.72 1778.66,1445.72 1780.75,1445.72 1782.84,1445.72 1784.92,1445.72 1787.01,1445.72 1789.1,1445.72 1791.19,1445.72 1793.28,1445.72 1795.36,1445.72 1797.45,1445.72 1799.54,1445.72 1801.63,1445.72 1803.72,1445.72 1805.8,1445.72 1807.89,1445.72 1809.98,1445.72 1812.07,1445.72 1814.15,1445.72 1816.24,1445.72 1818.33,1445.72 1820.42,1445.72 1822.51,1445.72 1824.59,1445.72 1826.68,1445.72 1828.77,1445.72 1830.86,1445.72 1832.95,1445.72 1835.03,1445.72 1837.12,1445.72 1839.21,1445.72 1841.3,1445.72 1843.38,1445.72 1845.47,1445.72 1847.56,1445.72 1849.65,1445.72 1851.74,1445.72 1853.82,1445.72 1855.91,1445.72 1858,1445.72 1860.09,1445.72 1862.17,1445.72 1864.26,1445.72 1866.35,1445.72 1868.44,1445.72 1870.53,1445.72 1872.61,1445.72 1874.7,1445.72 1876.79,1445.72 1878.88,1445.72 1880.97,1445.72 1883.05,1445.72 1885.14,1445.72 1887.23,1445.72 1889.32,1445.72 1891.4,1445.72 1893.49,1445.72 1895.58,1445.72 1897.67,1445.72 1899.76,1445.72 1901.84,1445.72 1903.93,1445.72 1906.02,1445.72 1908.11,1445.72 1910.2,1445.72 1912.28,1445.72 1914.37,1445.72 1916.46,1445.72 1918.55,1445.72 1920.63,1445.72 1922.72,1445.72 1924.81,1445.72 1926.9,1445.72 1928.99,1445.72 1931.07,1445.72 1933.16,1445.72 1935.25,1445.72 1937.34,1445.72 1939.43,1445.72 1941.51,1445.72 1943.6,1445.72 1945.69,1445.72 1947.78,1445.72 1949.86,1445.72 1951.95,1445.72 1954.04,1445.72 1956.13,1445.72 1958.22,1445.72 1960.3,1445.72 1962.39,1445.72 1964.48,1445.72 1966.57,1445.72 1968.65,1445.72 1970.74,1445.72 1972.83,1445.72 1974.92,1445.72 1977.01,1445.72 1979.09,1445.72 1981.18,1445.72 1983.27,1445.72 1985.36,1445.72 1987.45,1445.72 1989.53,1445.72 1991.62,1445.72 1993.71,1445.72 1995.8,1445.72 1997.88,1445.72 1999.97,1445.72 2002.06,1445.72 2004.15,1445.72 2006.24,1445.72 2008.32,1445.72 2010.41,1445.72 2012.5,1445.72 2014.59,1445.72 2016.68,1445.72 2018.76,1445.72 2020.85,1445.72 2022.94,1445.72 2025.03,1445.72 2027.11,1445.72 2029.2,1445.72 2031.29,1445.72 2033.38,1445.72 2035.47,1445.72 2037.55,1445.72 2039.64,1445.72 2041.73,1445.72 2043.82,1445.72 2045.91,1445.72 2047.99,1445.72 2050.08,1445.72 2052.17,1445.72 2054.26,1445.72 2056.34,1445.72 2058.43,1445.72 2060.52,1445.72 2062.61,1445.72 2064.7,1445.72 2066.78,1445.72 2068.87,1445.72 2070.96,1445.72 2073.05,1445.72 2075.14,1445.72 2077.22,1445.72 2079.31,1445.72 2081.4,1445.72 2083.49,1445.72 2085.57,1445.72 2087.66,1445.72 2089.75,1445.72 2091.84,1445.72 2093.93,1445.72 2096.01,1445.72 2098.1,1445.72 2100.19,1445.72 2102.28,1445.72 2104.36,1445.72 2106.45,1445.72 2108.54,1445.72 2110.63,1445.72 2112.72,1445.72 2114.8,1445.72 2116.89,1445.72 2118.98,1445.72 2121.07,1445.72 2123.16,1445.72 2125.24,1445.72 2127.33,1445.72 2129.42,1445.72 2131.51,1445.72 2133.59,1445.72 2135.68,1445.72 2137.77,1445.72 2139.86,1445.72 2141.95,1445.72 2144.03,1445.72 2146.12,1445.72 2148.21,1445.72 2150.3,1445.72 2152.39,1445.72 2154.47,1445.72 2156.56,1445.72 2158.65,1445.72 2160.74,1445.72 2162.82,1445.72 2164.91,1445.72 2167,1445.72 2169.09,1445.72 2171.18,1445.72 2173.26,1445.72 2175.35,1445.72 2177.44,1445.72 2179.53,1445.72 2181.62,1445.72 2183.7,1445.72 2185.79,1445.72 2187.88,1445.72 2189.97,1445.72 2192.05,1445.72 2194.14,1445.72 2196.23,1445.72 2198.32,1445.72 2200.41,1445.72 2202.49,1445.72 2204.58,1445.72 2206.67,1445.72 2208.76,1445.72 2210.85,1445.72 2212.93,1445.72 2215.02,1445.72 2217.11,1445.72 2219.2,1445.72 2221.28,1445.72 2223.37,1445.72 2225.46,1445.72 2227.55,1445.72 2229.64,1445.72 2231.72,1445.72 2233.81,1445.72 2235.9,1445.72 2237.99,1445.72 2240.07,1445.72 2242.16,1445.72 2244.25,1445.72 2246.34,1445.72 2248.43,1445.72 2250.51,1445.72 2252.6,1445.72 2254.69,1445.72 2256.78,1445.72 2258.87,1445.72 2260.95,1445.72 2263.04,1445.72 2265.13,1445.72 2267.22,1445.72 2269.3,1445.72 2271.39,1445.72 2273.48,1445.72 2275.57,1445.72 2277.66,1445.72 2279.74,1445.72 2281.83,1445.72 2283.92,1445.72 2286.01,1445.72 2288.1,1445.72 2290.18,1445.72 "/>
<path clip-path="url(#clip880)" d="M1923.43 302.578 L2279.06 302.578 L2279.06 95.2176 L1923.43 95.2176  Z" fill="#ffffff" fill-rule="evenodd" fill-opacity="1"/>
<polyline clip-path="url(#clip880)" style="stroke:#000000; stroke-linecap:round; stroke-linejoin:round; stroke-width:4; stroke-opacity:1; fill:none" points="1923.43,302.578 2279.06,302.578 2279.06,95.2176 1923.43,95.2176 1923.43,302.578 "/>
<polyline clip-path="url(#clip880)" style="stroke:#009af9; stroke-linecap:round; stroke-linejoin:round; stroke-width:4; stroke-opacity:1; fill:none" points="1948,147.058 2095.39,147.058 "/>
<path clip-path="url(#clip880)" d="M2119.96 129.778 L2124.63 129.778 L2124.63 160.402 L2141.46 160.402 L2141.46 164.338 L2119.96 164.338 L2119.96 129.778 Z" fill="#000000" fill-rule="nonzero" fill-opacity="1" /><path clip-path="url(#clip880)" d="M2150.81 160.402 L2167.13 160.402 L2167.13 164.338 L2145.19 164.338 L2145.19 160.402 Q2147.85 157.648 2152.43 153.018 Q2157.04 148.365 2158.22 147.023 Q2160.47 144.5 2161.35 142.764 Q2162.25 141.004 2162.25 139.315 Q2162.25 136.56 2160.3 134.824 Q2158.38 133.088 2155.28 133.088 Q2153.08 133.088 2150.63 133.852 Q2148.2 134.615 2145.42 136.166 L2145.42 131.444 Q2148.24 130.31 2150.7 129.731 Q2153.15 129.153 2155.19 129.153 Q2160.56 129.153 2163.75 131.838 Q2166.95 134.523 2166.95 139.014 Q2166.95 141.143 2166.14 143.065 Q2165.35 144.963 2163.24 147.555 Q2162.67 148.227 2159.56 151.444 Q2156.46 154.639 2150.81 160.402 Z" fill="#000000" fill-rule="nonzero" fill-opacity="1" /><path clip-path="url(#clip880)" d="M2176.9 142.81 L2206.58 142.81 L2206.58 146.699 L2176.9 146.699 L2176.9 142.81 M2176.9 152.254 L2206.58 152.254 L2206.58 156.189 L2176.9 156.189 L2176.9 152.254 Z" fill="#000000" fill-rule="nonzero" fill-opacity="1" /><path clip-path="url(#clip880)" d="M2213.92 149.453 L2226.39 149.453 L2226.39 153.25 L2213.92 153.25 L2213.92 149.453 Z" fill="#000000" fill-rule="nonzero" fill-opacity="1" /><path clip-path="url(#clip880)" d="M2234.59 160.402 L2242.23 160.402 L2242.23 134.037 L2233.91 135.703 L2233.91 131.444 L2242.18 129.778 L2246.85 129.778 L2246.85 160.402 L2254.49 160.402 L2254.49 164.338 L2234.59 164.338 L2234.59 160.402 Z" fill="#000000" fill-rule="nonzero" fill-opacity="1" /><polyline clip-path="url(#clip880)" style="stroke:#e26f46; stroke-linecap:round; stroke-linejoin:round; stroke-width:4; stroke-opacity:1; fill:none" points="1948,198.898 2095.39,198.898 "/>
<path clip-path="url(#clip880)" d="M2119.96 181.618 L2124.63 181.618 L2124.63 212.242 L2141.46 212.242 L2141.46 216.178 L2119.96 216.178 L2119.96 181.618 Z" fill="#000000" fill-rule="nonzero" fill-opacity="1" /><path clip-path="url(#clip880)" d="M2150.81 212.242 L2167.13 212.242 L2167.13 216.178 L2145.19 216.178 L2145.19 212.242 Q2147.85 209.488 2152.43 204.858 Q2157.04 200.205 2158.22 198.863 Q2160.47 196.34 2161.35 194.604 Q2162.25 192.844 2162.25 191.155 Q2162.25 188.4 2160.3 186.664 Q2158.38 184.928 2155.28 184.928 Q2153.08 184.928 2150.63 185.692 Q2148.2 186.455 2145.42 188.006 L2145.42 183.284 Q2148.24 182.15 2150.7 181.571 Q2153.15 180.993 2155.19 180.993 Q2160.56 180.993 2163.75 183.678 Q2166.95 186.363 2166.95 190.854 Q2166.95 192.983 2166.14 194.905 Q2165.35 196.803 2163.24 199.395 Q2162.67 200.067 2159.56 203.284 Q2156.46 206.479 2150.81 212.242 Z" fill="#000000" fill-rule="nonzero" fill-opacity="1" /><path clip-path="url(#clip880)" d="M2176.9 194.65 L2206.58 194.65 L2206.58 198.539 L2176.9 198.539 L2176.9 194.65 M2176.9 204.094 L2206.58 204.094 L2206.58 208.029 L2176.9 208.029 L2176.9 204.094 Z" fill="#000000" fill-rule="nonzero" fill-opacity="1" /><path clip-path="url(#clip880)" d="M2241.74 184.696 Q2238.13 184.696 2236.3 188.261 Q2234.49 191.803 2234.49 198.932 Q2234.49 206.039 2236.3 209.604 Q2238.13 213.145 2241.74 213.145 Q2245.37 213.145 2247.18 209.604 Q2249.01 206.039 2249.01 198.932 Q2249.01 191.803 2247.18 188.261 Q2245.37 184.696 2241.74 184.696 M2241.74 180.993 Q2247.55 180.993 2250.6 185.599 Q2253.68 190.182 2253.68 198.932 Q2253.68 207.659 2250.6 212.266 Q2247.55 216.849 2241.74 216.849 Q2235.93 216.849 2232.85 212.266 Q2229.79 207.659 2229.79 198.932 Q2229.79 190.182 2232.85 185.599 Q2235.93 180.993 2241.74 180.993 Z" fill="#000000" fill-rule="nonzero" fill-opacity="1" /><polyline clip-path="url(#clip880)" style="stroke:#3da44d; stroke-linecap:round; stroke-linejoin:round; stroke-width:4; stroke-opacity:1; fill:none" points="1948,250.738 2095.39,250.738 "/>
<path clip-path="url(#clip880)" d="M2119.96 233.458 L2124.63 233.458 L2124.63 264.082 L2141.46 264.082 L2141.46 268.018 L2119.96 268.018 L2119.96 233.458 Z" fill="#000000" fill-rule="nonzero" fill-opacity="1" /><path clip-path="url(#clip880)" d="M2150.81 264.082 L2167.13 264.082 L2167.13 268.018 L2145.19 268.018 L2145.19 264.082 Q2147.85 261.328 2152.43 256.698 Q2157.04 252.045 2158.22 250.703 Q2160.47 248.18 2161.35 246.444 Q2162.25 244.684 2162.25 242.995 Q2162.25 240.24 2160.3 238.504 Q2158.38 236.768 2155.28 236.768 Q2153.08 236.768 2150.63 237.532 Q2148.2 238.295 2145.42 239.846 L2145.42 235.124 Q2148.24 233.99 2150.7 233.411 Q2153.15 232.833 2155.19 232.833 Q2160.56 232.833 2163.75 235.518 Q2166.95 238.203 2166.95 242.694 Q2166.95 244.823 2166.14 246.745 Q2165.35 248.643 2163.24 251.235 Q2162.67 251.907 2159.56 255.124 Q2156.46 258.319 2150.81 264.082 Z" fill="#000000" fill-rule="nonzero" fill-opacity="1" /><path clip-path="url(#clip880)" d="M2176.9 246.49 L2206.58 246.49 L2206.58 250.379 L2176.9 250.379 L2176.9 246.49 M2176.9 255.934 L2206.58 255.934 L2206.58 259.869 L2176.9 259.869 L2176.9 255.934 Z" fill="#000000" fill-rule="nonzero" fill-opacity="1" /><path clip-path="url(#clip880)" d="M2232.55 264.082 L2240.19 264.082 L2240.19 237.717 L2231.88 239.383 L2231.88 235.124 L2240.14 233.458 L2244.82 233.458 L2244.82 264.082 L2252.46 264.082 L2252.46 268.018 L2232.55 268.018 L2232.55 264.082 Z" fill="#000000" fill-rule="nonzero" fill-opacity="1" /></svg>
