<?xml version="1.0" encoding="utf-8"?>
<svg xmlns="http://www.w3.org/2000/svg" xmlns:xlink="http://www.w3.org/1999/xlink" width="600" height="400" viewBox="0 0 2400 1600">
<defs>
  <clipPath id="clip360">
    <rect x="0" y="0" width="2400" height="1600"/>
  </clipPath>
</defs>
<path clip-path="url(#clip360)" d="M0 1600 L2400 1600 L2400 0 L0 0  Z" fill="#ffffff" fill-rule="evenodd" fill-opacity="1"/>
<defs>
  <clipPath id="clip361">
    <rect x="141" y="47" width="2212" height="1440"/>
  </clipPath>
</defs>
<path clip-path="url(#clip360)" d="M141.853 1486.45 L2352.76 1486.45 L2352.76 47.2441 L141.853 47.2441  Z" fill="#ffffff" fill-rule="evenodd" fill-opacity="1"/>
<polyline clip-path="url(#clip361)" style="stroke:#000000; stroke-linecap:round; stroke-linejoin:round; stroke-width:2; stroke-opacity:0.1; fill:none" points="204.426,1486.45 204.426,47.2441 "/>
<polyline clip-path="url(#clip361)" style="stroke:#000000; stroke-linecap:round; stroke-linejoin:round; stroke-width:2; stroke-opacity:0.1; fill:none" points="552.052,1486.45 552.052,47.2441 "/>
<polyline clip-path="url(#clip361)" style="stroke:#000000; stroke-linecap:round; stroke-linejoin:round; stroke-width:2; stroke-opacity:0.1; fill:none" points="899.678,1486.45 899.678,47.2441 "/>
<polyline clip-path="url(#clip361)" style="stroke:#000000; stroke-linecap:round; stroke-linejoin:round; stroke-width:2; stroke-opacity:0.1; fill:none" points="1247.3,1486.45 1247.3,47.2441 "/>
<polyline clip-path="url(#clip361)" style="stroke:#000000; stroke-linecap:round; stroke-linejoin:round; stroke-width:2; stroke-opacity:0.1; fill:none" points="1594.93,1486.45 1594.93,47.2441 "/>
<polyline clip-path="url(#clip361)" style="stroke:#000000; stroke-linecap:round; stroke-linejoin:round; stroke-width:2; stroke-opacity:0.1; fill:none" points="1942.56,1486.45 1942.56,47.2441 "/>
<polyline clip-path="url(#clip361)" style="stroke:#000000; stroke-linecap:round; stroke-linejoin:round; stroke-width:2; stroke-opacity:0.1; fill:none" points="2290.18,1486.45 2290.18,47.2441 "/>
<polyline clip-path="url(#clip361)" style="stroke:#000000; stroke-linecap:round; stroke-linejoin:round; stroke-width:2; stroke-opacity:0.1; fill:none" points="141.853,1445.72 2352.76,1445.72 "/>
<polyline clip-path="url(#clip361)" style="stroke:#000000; stroke-linecap:round; stroke-linejoin:round; stroke-width:2; stroke-opacity:0.1; fill:none" points="141.853,1128.69 2352.76,1128.69 "/>
<polyline clip-path="url(#clip361)" style="stroke:#000000; stroke-linecap:round; stroke-linejoin:round; stroke-width:2; stroke-opacity:0.1; fill:none" points="141.853,811.658 2352.76,811.658 "/>
<polyline clip-path="url(#clip361)" style="stroke:#000000; stroke-linecap:round; stroke-linejoin:round; stroke-width:2; stroke-opacity:0.1; fill:none" points="141.853,494.628 2352.76,494.628 "/>
<polyline clip-path="url(#clip361)" style="stroke:#000000; stroke-linecap:round; stroke-linejoin:round; stroke-width:2; stroke-opacity:0.1; fill:none" points="141.853,177.599 2352.76,177.599 "/>
<polyline clip-path="url(#clip360)" style="stroke:#000000; stroke-linecap:round; stroke-linejoin:round; stroke-width:4; stroke-opacity:1; fill:none" points="141.853,1486.45 2352.76,1486.45 "/>
<polyline clip-path="url(#clip360)" style="stroke:#000000; stroke-linecap:round; stroke-linejoin:round; stroke-width:4; stroke-opacity:1; fill:none" points="204.426,1486.45 204.426,1467.55 "/>
<polyline clip-path="url(#clip360)" style="stroke:#000000; stroke-linecap:round; stroke-linejoin:round; stroke-width:4; stroke-opacity:1; fill:none" points="552.052,1486.45 552.052,1467.55 "/>
<polyline clip-path="url(#clip360)" style="stroke:#000000; stroke-linecap:round; stroke-linejoin:round; stroke-width:4; stroke-opacity:1; fill:none" points="899.678,1486.45 899.678,1467.55 "/>
<polyline clip-path="url(#clip360)" style="stroke:#000000; stroke-linecap:round; stroke-linejoin:round; stroke-width:4; stroke-opacity:1; fill:none" points="1247.3,1486.45 1247.3,1467.55 "/>
<polyline clip-path="url(#clip360)" style="stroke:#000000; stroke-linecap:round; stroke-linejoin:round; stroke-width:4; stroke-opacity:1; fill:none" points="1594.93,1486.45 1594.93,1467.55 "/>
<polyline clip-path="url(#clip360)" style="stroke:#000000; stroke-linecap:round; stroke-linejoin:round; stroke-width:4; stroke-opacity:1; fill:none" points="1942.56,1486.45 1942.56,1467.55 "/>
<polyline clip-path="url(#clip360)" style="stroke:#000000; stroke-linecap:round; stroke-linejoin:round; stroke-width:4; stroke-opacity:1; fill:none" points="2290.18,1486.45 2290.18,1467.55 "/>
<path clip-path="url(#clip360)" d="M179.16 1544.91 L186.798 1544.91 L186.798 1518.55 L178.488 1520.21 L178.488 1515.95 L186.752 1514.29 L191.428 1514.29 L191.428 1544.91 L199.067 1544.91 L199.067 1548.85 L179.16 1548.85 L179.16 1544.91 Z" fill="#000000" fill-rule="nonzero" fill-opacity="1" /><path clip-path="url(#clip360)" d="M218.511 1532.44 Q215.178 1532.44 213.257 1534.22 Q211.359 1536 211.359 1539.13 Q211.359 1542.25 213.257 1544.03 Q215.178 1545.82 218.511 1545.82 Q221.845 1545.82 223.766 1544.03 Q225.687 1542.23 225.687 1539.13 Q225.687 1536 223.766 1534.22 Q221.868 1532.44 218.511 1532.44 M213.835 1530.45 Q210.826 1529.7 209.136 1527.64 Q207.47 1525.58 207.47 1522.62 Q207.47 1518.48 210.409 1516.07 Q213.372 1513.66 218.511 1513.66 Q223.673 1513.66 226.613 1516.07 Q229.553 1518.48 229.553 1522.62 Q229.553 1525.58 227.863 1527.64 Q226.196 1529.7 223.21 1530.45 Q226.59 1531.23 228.465 1533.52 Q230.363 1535.82 230.363 1539.13 Q230.363 1544.15 227.284 1546.83 Q224.229 1549.52 218.511 1549.52 Q212.794 1549.52 209.715 1546.83 Q206.659 1544.15 206.659 1539.13 Q206.659 1535.82 208.558 1533.52 Q210.456 1531.23 213.835 1530.45 M212.122 1523.06 Q212.122 1525.75 213.789 1527.25 Q215.479 1528.76 218.511 1528.76 Q221.52 1528.76 223.21 1527.25 Q224.923 1525.75 224.923 1523.06 Q224.923 1520.38 223.21 1518.87 Q221.52 1517.37 218.511 1517.37 Q215.479 1517.37 213.789 1518.87 Q212.122 1520.38 212.122 1523.06 Z" fill="#000000" fill-rule="nonzero" fill-opacity="1" /><path clip-path="url(#clip360)" d="M526.832 1544.91 L534.471 1544.91 L534.471 1518.55 L526.161 1520.21 L526.161 1515.95 L534.425 1514.29 L539.101 1514.29 L539.101 1544.91 L546.739 1544.91 L546.739 1548.85 L526.832 1548.85 L526.832 1544.91 Z" fill="#000000" fill-rule="nonzero" fill-opacity="1" /><path clip-path="url(#clip360)" d="M556.323 1548.13 L556.323 1543.87 Q558.082 1544.7 559.888 1545.14 Q561.693 1545.58 563.429 1545.58 Q568.059 1545.58 570.489 1542.48 Q572.943 1539.36 573.29 1533.01 Q571.948 1535.01 569.887 1536.07 Q567.827 1537.13 565.327 1537.13 Q560.142 1537.13 557.11 1534.01 Q554.101 1530.86 554.101 1525.42 Q554.101 1520.1 557.249 1516.88 Q560.397 1513.66 565.628 1513.66 Q571.624 1513.66 574.772 1518.27 Q577.943 1522.85 577.943 1531.6 Q577.943 1539.77 574.054 1544.66 Q570.188 1549.52 563.638 1549.52 Q561.878 1549.52 560.073 1549.17 Q558.267 1548.82 556.323 1548.13 M565.628 1533.48 Q568.776 1533.48 570.605 1531.32 Q572.457 1529.17 572.457 1525.42 Q572.457 1521.7 570.605 1519.54 Q568.776 1517.37 565.628 1517.37 Q562.48 1517.37 560.628 1519.54 Q558.8 1521.7 558.8 1525.42 Q558.8 1529.17 560.628 1531.32 Q562.48 1533.48 565.628 1533.48 Z" fill="#000000" fill-rule="nonzero" fill-opacity="1" /><path clip-path="url(#clip360)" d="M878.451 1544.91 L894.771 1544.91 L894.771 1548.85 L872.826 1548.85 L872.826 1544.91 Q875.488 1542.16 880.072 1537.53 Q884.678 1532.88 885.859 1531.53 Q888.104 1529.01 888.984 1527.27 Q889.887 1525.51 889.887 1523.82 Q889.887 1521.07 887.942 1519.33 Q886.021 1517.6 882.919 1517.6 Q880.72 1517.6 878.266 1518.36 Q875.836 1519.13 873.058 1520.68 L873.058 1515.95 Q875.882 1514.82 878.336 1514.24 Q880.789 1513.66 882.826 1513.66 Q888.197 1513.66 891.391 1516.35 Q894.586 1519.03 894.586 1523.52 Q894.586 1525.65 893.775 1527.57 Q892.988 1529.47 890.882 1532.07 Q890.303 1532.74 887.201 1535.95 Q884.1 1539.15 878.451 1544.91 Z" fill="#000000" fill-rule="nonzero" fill-opacity="1" /><path clip-path="url(#clip360)" d="M914.585 1517.37 Q910.974 1517.37 909.146 1520.93 Q907.34 1524.47 907.34 1531.6 Q907.34 1538.71 909.146 1542.27 Q910.974 1545.82 914.585 1545.82 Q918.22 1545.82 920.025 1542.27 Q921.854 1538.71 921.854 1531.6 Q921.854 1524.47 920.025 1520.93 Q918.22 1517.37 914.585 1517.37 M914.585 1513.66 Q920.396 1513.66 923.451 1518.27 Q926.53 1522.85 926.53 1531.6 Q926.53 1540.33 923.451 1544.94 Q920.396 1549.52 914.585 1549.52 Q908.775 1549.52 905.697 1544.94 Q902.641 1540.33 902.641 1531.6 Q902.641 1522.85 905.697 1518.27 Q908.775 1513.66 914.585 1513.66 Z" fill="#000000" fill-rule="nonzero" fill-opacity="1" /><path clip-path="url(#clip360)" d="M1226.69 1544.91 L1243.01 1544.91 L1243.01 1548.85 L1221.07 1548.85 L1221.07 1544.91 Q1223.73 1542.16 1228.31 1537.53 Q1232.92 1532.88 1234.1 1531.53 Q1236.34 1529.01 1237.22 1527.27 Q1238.13 1525.51 1238.13 1523.82 Q1238.13 1521.07 1236.18 1519.33 Q1234.26 1517.6 1231.16 1517.6 Q1228.96 1517.6 1226.51 1518.36 Q1224.08 1519.13 1221.3 1520.68 L1221.3 1515.95 Q1224.12 1514.82 1226.58 1514.24 Q1229.03 1513.66 1231.07 1513.66 Q1236.44 1513.66 1239.63 1516.35 Q1242.83 1519.03 1242.83 1523.52 Q1242.83 1525.65 1242.02 1527.57 Q1241.23 1529.47 1239.12 1532.07 Q1238.54 1532.74 1235.44 1535.95 Q1232.34 1539.15 1226.69 1544.91 Z" fill="#000000" fill-rule="nonzero" fill-opacity="1" /><path clip-path="url(#clip360)" d="M1253.64 1544.91 L1261.27 1544.91 L1261.27 1518.55 L1252.96 1520.21 L1252.96 1515.95 L1261.23 1514.29 L1265.9 1514.29 L1265.9 1544.91 L1273.54 1544.91 L1273.54 1548.85 L1253.64 1548.85 L1253.64 1544.91 Z" fill="#000000" fill-rule="nonzero" fill-opacity="1" /><path clip-path="url(#clip360)" d="M1574.5 1544.91 L1590.82 1544.91 L1590.82 1548.85 L1568.88 1548.85 L1568.88 1544.91 Q1571.54 1542.16 1576.12 1537.53 Q1580.73 1532.88 1581.91 1531.53 Q1584.16 1529.01 1585.03 1527.27 Q1585.94 1525.51 1585.94 1523.82 Q1585.94 1521.07 1583.99 1519.33 Q1582.07 1517.6 1578.97 1517.6 Q1576.77 1517.6 1574.32 1518.36 Q1571.89 1519.13 1569.11 1520.68 L1569.11 1515.95 Q1571.93 1514.82 1574.39 1514.24 Q1576.84 1513.66 1578.88 1513.66 Q1584.25 1513.66 1587.44 1516.35 Q1590.64 1519.03 1590.64 1523.52 Q1590.64 1525.65 1589.83 1527.57 Q1589.04 1529.47 1586.93 1532.07 Q1586.35 1532.74 1583.25 1535.95 Q1580.15 1539.15 1574.5 1544.91 Z" fill="#000000" fill-rule="nonzero" fill-opacity="1" /><path clip-path="url(#clip360)" d="M1604.66 1544.91 L1620.98 1544.91 L1620.98 1548.85 L1599.04 1548.85 L1599.04 1544.91 Q1601.7 1542.16 1606.28 1537.53 Q1610.89 1532.88 1612.07 1531.53 Q1614.32 1529.01 1615.2 1527.27 Q1616.1 1525.51 1616.1 1523.82 Q1616.1 1521.07 1614.16 1519.33 Q1612.23 1517.6 1609.13 1517.6 Q1606.93 1517.6 1604.48 1518.36 Q1602.05 1519.13 1599.27 1520.68 L1599.27 1515.95 Q1602.09 1514.82 1604.55 1514.24 Q1607 1513.66 1609.04 1513.66 Q1614.41 1513.66 1617.6 1516.35 Q1620.8 1519.03 1620.8 1523.52 Q1620.8 1525.65 1619.99 1527.57 Q1619.2 1529.47 1617.09 1532.07 Q1616.52 1532.74 1613.41 1535.95 Q1610.31 1539.15 1604.66 1544.91 Z" fill="#000000" fill-rule="nonzero" fill-opacity="1" /><path clip-path="url(#clip360)" d="M1921.65 1544.91 L1937.97 1544.91 L1937.97 1548.85 L1916.03 1548.85 L1916.03 1544.91 Q1918.69 1542.16 1923.27 1537.53 Q1927.88 1532.88 1929.06 1531.53 Q1931.31 1529.01 1932.19 1527.27 Q1933.09 1525.51 1933.09 1523.82 Q1933.09 1521.07 1931.14 1519.33 Q1929.22 1517.6 1926.12 1517.6 Q1923.92 1517.6 1921.47 1518.36 Q1919.04 1519.13 1916.26 1520.68 L1916.26 1515.95 Q1919.08 1514.82 1921.54 1514.24 Q1923.99 1513.66 1926.03 1513.66 Q1931.4 1513.66 1934.59 1516.35 Q1937.79 1519.03 1937.79 1523.52 Q1937.79 1525.65 1936.98 1527.57 Q1936.19 1529.47 1934.08 1532.07 Q1933.51 1532.74 1930.4 1535.95 Q1927.3 1539.15 1921.65 1544.91 Z" fill="#000000" fill-rule="nonzero" fill-opacity="1" /><path clip-path="url(#clip360)" d="M1961.95 1530.21 Q1965.31 1530.93 1967.19 1533.2 Q1969.08 1535.47 1969.08 1538.8 Q1969.08 1543.92 1965.57 1546.72 Q1962.05 1549.52 1955.57 1549.52 Q1953.39 1549.52 1951.08 1549.08 Q1948.78 1548.66 1946.33 1547.81 L1946.33 1543.29 Q1948.27 1544.43 1950.59 1545.01 Q1952.9 1545.58 1955.43 1545.58 Q1959.83 1545.58 1962.12 1543.85 Q1964.43 1542.11 1964.43 1538.8 Q1964.43 1535.75 1962.28 1534.03 Q1960.15 1532.3 1956.33 1532.3 L1952.3 1532.3 L1952.3 1528.45 L1956.52 1528.45 Q1959.96 1528.45 1961.79 1527.09 Q1963.62 1525.7 1963.62 1523.11 Q1963.62 1520.45 1961.72 1519.03 Q1959.85 1517.6 1956.33 1517.6 Q1954.41 1517.6 1952.21 1518.01 Q1950.01 1518.43 1947.37 1519.31 L1947.37 1515.14 Q1950.03 1514.4 1952.35 1514.03 Q1954.69 1513.66 1956.75 1513.66 Q1962.07 1513.66 1965.17 1516.09 Q1968.27 1518.5 1968.27 1522.62 Q1968.27 1525.49 1966.63 1527.48 Q1964.99 1529.45 1961.95 1530.21 Z" fill="#000000" fill-rule="nonzero" fill-opacity="1" /><path clip-path="url(#clip360)" d="M2268.71 1544.91 L2285.03 1544.91 L2285.03 1548.85 L2263.09 1548.85 L2263.09 1544.91 Q2265.75 1542.16 2270.33 1537.53 Q2274.94 1532.88 2276.12 1531.53 Q2278.37 1529.01 2279.25 1527.27 Q2280.15 1525.51 2280.15 1523.82 Q2280.15 1521.07 2278.2 1519.33 Q2276.28 1517.6 2273.18 1517.6 Q2270.98 1517.6 2268.53 1518.36 Q2266.1 1519.13 2263.32 1520.68 L2263.32 1515.95 Q2266.14 1514.82 2268.6 1514.24 Q2271.05 1513.66 2273.09 1513.66 Q2278.46 1513.66 2281.65 1516.35 Q2284.85 1519.03 2284.85 1523.52 Q2284.85 1525.65 2284.04 1527.57 Q2283.25 1529.47 2281.14 1532.07 Q2280.57 1532.74 2277.46 1535.95 Q2274.36 1539.15 2268.71 1544.91 Z" fill="#000000" fill-rule="nonzero" fill-opacity="1" /><path clip-path="url(#clip360)" d="M2307.69 1518.36 L2295.89 1536.81 L2307.69 1536.81 L2307.69 1518.36 M2306.47 1514.29 L2312.35 1514.29 L2312.35 1536.81 L2317.28 1536.81 L2317.28 1540.7 L2312.35 1540.7 L2312.35 1548.85 L2307.69 1548.85 L2307.69 1540.7 L2292.09 1540.7 L2292.09 1536.19 L2306.47 1514.29 Z" fill="#000000" fill-rule="nonzero" fill-opacity="1" /><polyline clip-path="url(#clip360)" style="stroke:#000000; stroke-linecap:round; stroke-linejoin:round; stroke-width:4; stroke-opacity:1; fill:none" points="141.853,1486.45 141.853,47.2441 "/>
<polyline clip-path="url(#clip360)" style="stroke:#000000; stroke-linecap:round; stroke-linejoin:round; stroke-width:4; stroke-opacity:1; fill:none" points="141.853,1445.72 160.751,1445.72 "/>
<polyline clip-path="url(#clip360)" style="stroke:#000000; stroke-linecap:round; stroke-linejoin:round; stroke-width:4; stroke-opacity:1; fill:none" points="141.853,1128.69 160.751,1128.69 "/>
<polyline clip-path="url(#clip360)" style="stroke:#000000; stroke-linecap:round; stroke-linejoin:round; stroke-width:4; stroke-opacity:1; fill:none" points="141.853,811.658 160.751,811.658 "/>
<polyline clip-path="url(#clip360)" style="stroke:#000000; stroke-linecap:round; stroke-linejoin:round; stroke-width:4; stroke-opacity:1; fill:none" points="141.853,494.628 160.751,494.628 "/>
<polyline clip-path="url(#clip360)" style="stroke:#000000; stroke-linecap:round; stroke-linejoin:round; stroke-width:4; stroke-opacity:1; fill:none" points="141.853,177.599 160.751,177.599 "/>
<path clip-path="url(#clip360)" d="M93.9086 1431.51 Q90.2975 1431.51 88.4688 1435.08 Q86.6632 1438.62 86.6632 1445.75 Q86.6632 1452.86 88.4688 1456.42 Q90.2975 1459.96 93.9086 1459.96 Q97.5428 1459.96 99.3483 1456.42 Q101.177 1452.86 101.177 1445.75 Q101.177 1438.62 99.3483 1435.08 Q97.5428 1431.51 93.9086 1431.51 M93.9086 1427.81 Q99.7187 1427.81 102.774 1432.42 Q105.853 1437 105.853 1445.75 Q105.853 1454.48 102.774 1459.08 Q99.7187 1463.67 93.9086 1463.67 Q88.0984 1463.67 85.0197 1459.08 Q81.9642 1454.48 81.9642 1445.75 Q81.9642 1437 85.0197 1432.42 Q88.0984 1427.81 93.9086 1427.81 Z" fill="#000000" fill-rule="nonzero" fill-opacity="1" /><path clip-path="url(#clip360)" d="M54.5569 1142.03 L62.1958 1142.03 L62.1958 1115.67 L53.8856 1117.33 L53.8856 1113.07 L62.1495 1111.41 L66.8254 1111.41 L66.8254 1142.03 L74.4642 1142.03 L74.4642 1145.97 L54.5569 1145.97 L54.5569 1142.03 Z" fill="#000000" fill-rule="nonzero" fill-opacity="1" /><path clip-path="url(#clip360)" d="M93.9086 1114.49 Q90.2975 1114.49 88.4688 1118.05 Q86.6632 1121.59 86.6632 1128.72 Q86.6632 1135.83 88.4688 1139.39 Q90.2975 1142.93 93.9086 1142.93 Q97.5428 1142.93 99.3483 1139.39 Q101.177 1135.83 101.177 1128.72 Q101.177 1121.59 99.3483 1118.05 Q97.5428 1114.49 93.9086 1114.49 M93.9086 1110.78 Q99.7187 1110.78 102.774 1115.39 Q105.853 1119.97 105.853 1128.72 Q105.853 1137.45 102.774 1142.05 Q99.7187 1146.64 93.9086 1146.64 Q88.0984 1146.64 85.0197 1142.05 Q81.9642 1137.45 81.9642 1128.72 Q81.9642 1119.97 85.0197 1115.39 Q88.0984 1110.78 93.9086 1110.78 Z" fill="#000000" fill-rule="nonzero" fill-opacity="1" /><path clip-path="url(#clip360)" d="M57.7745 825.002 L74.0939 825.002 L74.0939 828.938 L52.1495 828.938 L52.1495 825.002 Q54.8115 822.248 59.3949 817.618 Q64.0013 812.965 65.1819 811.623 Q67.4272 809.1 68.3068 807.364 Q69.2096 805.604 69.2096 803.915 Q69.2096 801.16 67.2652 799.424 Q65.3439 797.688 62.2421 797.688 Q60.043 797.688 57.5893 798.452 Q55.1588 799.215 52.381 800.766 L52.381 796.044 Q55.2051 794.91 57.6588 794.331 Q60.1124 793.753 62.1495 793.753 Q67.5198 793.753 70.7142 796.438 Q73.9087 799.123 73.9087 803.614 Q73.9087 805.743 73.0985 807.664 Q72.3115 809.563 70.205 812.155 Q69.6263 812.827 66.5245 816.044 Q63.4226 819.239 57.7745 825.002 Z" fill="#000000" fill-rule="nonzero" fill-opacity="1" /><path clip-path="url(#clip360)" d="M93.9086 797.456 Q90.2975 797.456 88.4688 801.021 Q86.6632 804.563 86.6632 811.692 Q86.6632 818.799 88.4688 822.363 Q90.2975 825.905 93.9086 825.905 Q97.5428 825.905 99.3483 822.363 Q101.177 818.799 101.177 811.692 Q101.177 804.563 99.3483 801.021 Q97.5428 797.456 93.9086 797.456 M93.9086 793.753 Q99.7187 793.753 102.774 798.359 Q105.853 802.942 105.853 811.692 Q105.853 820.419 102.774 825.026 Q99.7187 829.609 93.9086 829.609 Q88.0984 829.609 85.0197 825.026 Q81.9642 820.419 81.9642 811.692 Q81.9642 802.942 85.0197 798.359 Q88.0984 793.753 93.9086 793.753 Z" fill="#000000" fill-rule="nonzero" fill-opacity="1" /><path clip-path="url(#clip360)" d="M67.9133 493.274 Q71.2698 493.992 73.1448 496.26 Q75.0429 498.529 75.0429 501.862 Q75.0429 506.978 71.5244 509.779 Q68.0059 512.58 61.5245 512.58 Q59.3486 512.58 57.0338 512.14 Q54.7421 511.723 52.2884 510.867 L52.2884 506.353 Q54.2328 507.487 56.5477 508.066 Q58.8625 508.645 61.3856 508.645 Q65.7837 508.645 68.0754 506.908 Q70.3902 505.172 70.3902 501.862 Q70.3902 498.807 68.2374 497.094 Q66.1078 495.358 62.2884 495.358 L58.2606 495.358 L58.2606 491.515 L62.4735 491.515 Q65.9226 491.515 67.7513 490.149 Q69.58 488.76 69.58 486.168 Q69.58 483.506 67.6819 482.094 Q65.8069 480.659 62.2884 480.659 Q60.3671 480.659 58.168 481.075 Q55.969 481.492 53.3301 482.372 L53.3301 478.205 Q55.9921 477.464 58.3069 477.094 Q60.6449 476.723 62.705 476.723 Q68.0291 476.723 71.1309 479.154 Q74.2327 481.561 74.2327 485.682 Q74.2327 488.552 72.5892 490.543 Q70.9457 492.51 67.9133 493.274 Z" fill="#000000" fill-rule="nonzero" fill-opacity="1" /><path clip-path="url(#clip360)" d="M93.9086 480.427 Q90.2975 480.427 88.4688 483.992 Q86.6632 487.534 86.6632 494.663 Q86.6632 501.77 88.4688 505.334 Q90.2975 508.876 93.9086 508.876 Q97.5428 508.876 99.3483 505.334 Q101.177 501.77 101.177 494.663 Q101.177 487.534 99.3483 483.992 Q97.5428 480.427 93.9086 480.427 M93.9086 476.723 Q99.7187 476.723 102.774 481.33 Q105.853 485.913 105.853 494.663 Q105.853 503.39 102.774 507.996 Q99.7187 512.58 93.9086 512.58 Q88.0984 512.58 85.0197 507.996 Q81.9642 503.39 81.9642 494.663 Q81.9642 485.913 85.0197 481.33 Q88.0984 476.723 93.9086 476.723 Z" fill="#000000" fill-rule="nonzero" fill-opacity="1" /><path clip-path="url(#clip360)" d="M66.5939 164.393 L54.7884 182.842 L66.5939 182.842 L66.5939 164.393 M65.367 160.319 L71.2466 160.319 L71.2466 182.842 L76.1772 182.842 L76.1772 186.731 L71.2466 186.731 L71.2466 194.879 L66.5939 194.879 L66.5939 186.731 L50.9921 186.731 L50.9921 182.217 L65.367 160.319 Z" fill="#000000" fill-rule="nonzero" fill-opacity="1" /><path clip-path="url(#clip360)" d="M93.9086 163.398 Q90.2975 163.398 88.4688 166.963 Q86.6632 170.504 86.6632 177.634 Q86.6632 184.741 88.4688 188.305 Q90.2975 191.847 93.9086 191.847 Q97.5428 191.847 99.3483 188.305 Q101.177 184.741 101.177 177.634 Q101.177 170.504 99.3483 166.963 Q97.5428 163.398 93.9086 163.398 M93.9086 159.694 Q99.7187 159.694 102.774 164.301 Q105.853 168.884 105.853 177.634 Q105.853 186.361 102.774 190.967 Q99.7187 195.551 93.9086 195.551 Q88.0984 195.551 85.0197 190.967 Q81.9642 186.361 81.9642 177.634 Q81.9642 168.884 85.0197 164.301 Q88.0984 159.694 93.9086 159.694 Z" fill="#000000" fill-rule="nonzero" fill-opacity="1" /><polyline clip-path="url(#clip361)" style="stroke:#009af9; stroke-linecap:round; stroke-linejoin:round; stroke-width:4; stroke-opacity:1; fill:none" points="204.426,1445.18 206.514,1445.18 208.601,1445.18 210.689,1445.18 212.777,1445.18 214.865,1445.18 216.953,1445.18 219.041,1445.18 221.128,1445.18 223.216,1445.18 225.304,1445.18 227.392,1445.18 229.48,1445.18 231.568,1445.18 233.656,1445.18 235.743,1445.18 237.831,1445.18 239.919,1445.18 242.007,1445.18 244.095,1445.18 246.183,1445.19 248.27,1445.19 250.358,1445.19 252.446,1445.19 254.534,1445.19 256.622,1445.19 258.71,1445.19 260.797,1445.19 262.885,1445.19 264.973,1445.19 267.061,1445.19 269.149,1445.19 271.237,1445.19 273.325,1445.19 275.412,1445.19 277.5,1445.19 279.588,1445.19 281.676,1445.19 283.764,1445.19 285.852,1445.2 287.939,1445.2 290.027,1445.2 292.115,1445.2 294.203,1445.2 296.291,1445.2 298.379,1445.2 300.467,1445.2 302.554,1445.2 304.642,1445.2 306.73,1445.2 308.818,1445.2 310.906,1445.2 312.994,1445.2 315.081,1445.2 317.169,1445.2 319.257,1445.2 321.345,1445.21 323.433,1445.21 325.521,1445.21 327.609,1445.21 329.696,1445.21 331.784,1445.21 333.872,1445.21 335.96,1445.21 338.048,1445.21 340.136,1445.21 342.223,1445.21 344.311,1445.21 346.399,1445.21 348.487,1445.21 350.575,1445.21 352.663,1445.22 354.751,1445.22 356.838,1445.22 358.926,1445.22 361.014,1445.22 363.102,1445.22 365.19,1445.22 367.278,1445.22 369.365,1445.22 371.453,1445.22 373.541,1445.22 375.629,1445.22 377.717,1445.22 379.805,1445.22 381.893,1445.22 383.98,1445.23 386.068,1445.23 388.156,1445.23 390.244,1445.23 392.332,1445.23 394.42,1445.23 396.507,1445.23 398.595,1445.23 400.683,1445.23 402.771,1445.23 404.859,1445.23 406.947,1445.23 409.035,1445.23 411.122,1445.23 413.21,1445.24 415.298,1445.24 417.386,1445.24 419.474,1445.24 421.562,1445.24 423.649,1445.24 425.737,1445.24 427.825,1445.24 429.913,1445.24 432.001,1445.24 434.089,1445.24 436.177,1445.24 438.264,1445.24 440.352,1445.25 442.44,1445.25 444.528,1445.25 446.616,1445.25 448.704,1445.25 450.791,1445.25 452.879,1445.25 454.967,1445.25 457.055,1445.25 459.143,1445.25 461.231,1445.25 463.318,1445.25 465.406,1445.26 467.494,1445.26 469.582,1445.26 471.67,1445.26 473.758,1445.26 475.846,1445.26 477.933,1445.26 480.021,1445.26 482.109,1445.26 484.197,1445.26 486.285,1445.26 488.373,1445.27 490.46,1445.27 492.548,1445.27 494.636,1445.27 496.724,1445.27 498.812,1445.27 500.9,1445.27 502.988,1445.27 505.075,1445.27 507.163,1445.27 509.251,1445.27 511.339,1445.28 513.427,1445.28 515.515,1445.28 517.602,1445.28 519.69,1445.28 521.778,1445.28 523.866,1445.28 525.954,1445.28 528.042,1445.28 530.13,1445.28 532.217,1445.28 534.305,1445.29 536.393,1445.29 538.481,1445.29 540.569,1445.29 542.657,1445.29 544.744,1445.29 546.832,1445.29 548.92,1445.29 551.008,1445.29 553.096,1445.29 555.184,1445.3 557.272,1445.3 559.359,1445.3 561.447,1445.3 563.535,1445.3 565.623,1445.3 567.711,1445.3 569.799,1445.3 571.886,1445.3 573.974,1445.31 576.062,1445.31 578.15,1445.31 580.238,1445.31 582.326,1445.31 584.414,1445.31 586.501,1445.31 588.589,1445.31 590.677,1445.31 592.765,1445.31 594.853,1445.32 596.941,1445.32 599.028,1445.32 601.116,1445.32 603.204,1445.32 605.292,1445.32 607.38,1445.32 609.468,1445.32 611.556,1445.32 613.643,1445.33 615.731,1445.33 617.819,1445.33 619.907,1445.33 621.995,1445.33 624.083,1445.33 626.17,1445.33 628.258,1445.33 630.346,1445.34 632.434,1445.34 634.522,1445.34 636.61,1445.34 638.698,1445.34 640.785,1445.34 642.873,1445.34 644.961,1445.34 647.049,1445.35 649.137,1445.35 651.225,1445.35 653.312,1445.35 655.4,1445.35 657.488,1445.35 659.576,1445.35 661.664,1445.35 663.752,1445.35 665.839,1445.36 667.927,1445.36 670.015,1445.36 672.103,1445.36 674.191,1445.36 676.279,1445.36 678.367,1445.36 680.454,1445.37 682.542,1445.37 684.63,1445.37 686.718,1445.37 688.806,1445.37 690.894,1445.37 692.981,1445.37 695.069,1445.37 697.157,1445.38 699.245,1445.38 701.333,1445.38 703.421,1445.38 705.509,1445.38 707.596,1445.38 709.684,1445.38 711.772,1445.39 713.86,1445.39 715.948,1445.39 718.036,1445.39 720.123,1445.39 722.211,1445.39 724.299,1445.39 726.387,1445.39 728.475,1445.4 730.563,1445.4 732.651,1445.4 734.738,1445.4 736.826,1445.4 738.914,1445.4 741.002,1445.4 743.09,1445.41 745.178,1445.41 747.265,1445.41 749.353,1445.41 751.441,1445.41 753.529,1445.41 755.617,1445.41 757.705,1445.42 759.793,1445.42 761.88,1445.42 763.968,1445.42 766.056,1445.42 768.144,1445.42 770.232,1445.43 772.32,1445.43 774.407,1445.43 776.495,1445.43 778.583,1445.43 780.671,1445.43 782.759,1445.43 784.847,1445.44 786.935,1445.44 789.022,1445.44 791.11,1445.44 793.198,1445.44 795.286,1445.44 797.374,1445.45 799.462,1445.45 801.549,1445.45 803.637,1445.45 805.725,1445.45 807.813,1445.45 809.901,1445.45 811.989,1445.46 814.077,1445.46 816.164,1445.46 818.252,1445.46 820.34,1445.46 822.428,1445.46 824.516,1445.47 826.604,1445.47 828.691,1445.47 830.779,1445.47 832.867,1445.47 834.955,1445.47 837.043,1445.48 839.131,1445.48 841.219,1445.48 843.306,1445.48 845.394,1445.48 847.482,1445.48 849.57,1445.49 851.658,1445.49 853.746,1445.49 855.833,1445.49 857.921,1445.49 860.009,1445.49 862.097,1445.5 864.185,1445.5 866.273,1445.5 868.36,1445.5 870.448,1445.5 872.536,1445.5 874.624,1445.51 876.712,1445.51 878.8,1445.51 880.888,1445.51 882.975,1445.51 885.063,1445.51 887.151,1445.52 889.239,1445.52 891.327,1445.52 893.415,1445.52 895.502,1445.52 897.59,1445.52 899.678,1445.53 901.766,1445.53 903.854,1445.53 905.942,1445.53 908.03,1445.53 910.117,1445.54 912.205,1445.54 914.293,1445.54 916.381,1445.54 918.469,1445.54 920.557,1445.54 922.644,1445.55 924.732,1445.55 926.82,1445.55 928.908,1445.55 930.996,1445.55 933.084,1445.55 935.172,1445.56 937.259,1445.56 939.347,1445.56 941.435,1445.56 943.523,1445.56 945.611,1445.57 947.699,1445.57 949.786,1445.57 951.874,1445.57 953.962,1445.57 956.05,1445.57 958.138,1445.58 960.226,1445.58 962.314,1445.58 964.401,1445.58 966.489,1445.58 968.577,1445.59 970.665,1445.59 972.753,1445.59 974.841,1445.59 976.928,1445.59 979.016,1445.59 981.104,1445.6 983.192,1445.6 985.28,1445.6 987.368,1445.6 989.456,1445.6 991.543,1445.61 993.631,1445.61 995.719,1445.61 997.807,1445.61 999.895,1445.61 1001.98,1445.61 1004.07,1445.62 1006.16,1445.62 1008.25,1445.62 1010.33,1445.62 1012.42,1445.62 1014.51,1445.62 1016.6,1445.63 1018.69,1445.63 1020.77,1445.63 1022.86,1445.63 1024.95,1445.63 1027.04,1445.64 1029.12,1445.64 1031.21,1445.64 1033.3,1445.64 1035.39,1445.64 1037.48,1445.64 1039.56,1445.65 1041.65,1445.65 1043.74,1445.65 1045.83,1445.65 1047.92,1445.65 1050,1445.65 1052.09,1445.66 1054.18,1445.66 1056.27,1445.66 1058.35,1445.66 1060.44,1445.66 1062.53,1445.66 1064.62,1445.66 1066.71,1445.67 1068.79,1445.67 1070.88,1445.67 1072.97,1445.67 1075.06,1445.67 1077.15,1445.67 1079.23,1445.68 1081.32,1445.68 1083.41,1445.68 1085.5,1445.68 1087.58,1445.68 1089.67,1445.68 1091.76,1445.68 1093.85,1445.68 1095.94,1445.69 1098.02,1445.69 1100.11,1445.69 1102.2,1445.69 1104.29,1445.69 1106.37,1445.69 1108.46,1445.69 1110.55,1445.69 1112.64,1445.7 1114.73,1445.7 1116.81,1445.7 1118.9,1445.7 1120.99,1445.7 1123.08,1445.7 1125.17,1445.7 1127.25,1445.7 1129.34,1445.7 1131.43,1445.71 1133.52,1445.71 1135.6,1445.71 1137.69,1445.71 1139.78,1445.71 1141.87,1445.71 1143.96,1445.71 1146.04,1445.71 1148.13,1445.71 1150.22,1445.71 1152.31,1445.71 1154.4,1445.71 1156.48,1445.71 1158.57,1445.71 1160.66,1445.71 1162.75,1445.71 1164.83,1445.71 1166.92,1445.72 1169.01,1445.72 1171.1,1445.72 1173.19,1445.72 1175.27,1445.72 1177.36,1445.72 1179.45,1445.72 1181.54,1445.72 1183.63,1445.72 1185.71,1445.72 1187.8,1445.71 1189.89,1445.71 1191.98,1445.71 1194.06,1445.71 1196.15,1445.71 1198.24,1445.71 1200.33,1445.71 1202.42,1445.71 1204.5,1445.71 1206.59,1445.71 1208.68,1445.71 1210.77,1445.71 1212.85,1445.71 1214.94,1445.7 1217.03,1445.7 1219.12,1445.7 1221.21,1445.7 1223.29,1445.7 1225.38,1445.7 1227.47,1445.7 1229.56,1445.69 1231.65,1445.69 1233.73,1445.69 1235.82,1445.69 1237.91,1445.68 1240,1445.68 1242.08,1445.68 1244.17,1445.68 1246.26,1445.67 1248.35,1445.67 1250.44,1445.67 1252.52,1445.66 1254.61,1445.66 1256.7,1445.66 1258.79,1445.65 1260.88,1445.65 1262.96,1445.65 1265.05,1445.64 1267.14,1445.64 1269.23,1445.63 1271.31,1445.63 1273.4,1445.62 1275.49,1445.62 1277.58,1445.61 1279.67,1445.61 1281.75,1445.6 1283.84,1445.6 1285.93,1445.59 1288.02,1445.59 1290.11,1445.58 1292.19,1445.57 1294.28,1445.57 1296.37,1445.56 1298.46,1445.55 1300.54,1445.55 1302.63,1445.54 1304.72,1445.53 1306.81,1445.52 1308.9,1445.51 1310.98,1445.5 1313.07,1445.5 1315.16,1445.49 1317.25,1445.48 1319.34,1445.47 1321.42,1445.46 1323.51,1445.45 1325.6,1445.44 1327.69,1445.42 1329.77,1445.41 1331.86,1445.4 1333.95,1445.39 1336.04,1445.38 1338.13,1445.36 1340.21,1445.35 1342.3,1445.34 1344.39,1445.32 1346.48,1445.31 1348.56,1445.29 1350.65,1445.28 1352.74,1445.26 1354.83,1445.25 1356.92,1445.23 1359,1445.21 1361.09,1445.2 1363.18,1445.18 1365.27,1445.16 1367.36,1445.14 1369.44,1445.12 1371.53,1445.1 1373.62,1445.08 1375.71,1445.06 1377.79,1445.03 1379.88,1445.01 1381.97,1444.99 1384.06,1444.96 1386.15,1444.94 1388.23,1444.91 1390.32,1444.89 1392.41,1444.86 1394.5,1444.83 1396.59,1444.8 1398.67,1444.78 1400.76,1444.75 1402.85,1444.71 1404.94,1444.68 1407.02,1444.65 1409.11,1444.62 1411.2,1444.58 1413.29,1444.55 1415.38,1444.51 1417.46,1444.47 1419.55,1444.43 1421.64,1444.39 1423.73,1444.35 1425.82,1444.31 1427.9,1444.27 1429.99,1444.22 1432.08,1444.18 1434.17,1444.13 1436.25,1444.08 1438.34,1444.04 1440.43,1443.98 1442.52,1443.93 1444.61,1443.88 1446.69,1443.82 1448.78,1443.77 1450.87,1443.71 1452.96,1443.65 1455.05,1443.59 1457.13,1443.53 1459.22,1443.46 1461.31,1443.4 1463.4,1443.33 1465.48,1443.26 1467.57,1443.18 1469.66,1443.11 1471.75,1443.03 1473.84,1442.96 1475.92,1442.88 1478.01,1442.79 1480.1,1442.71 1482.19,1442.62 1484.27,1442.53 1486.36,1442.44 1488.45,1442.35 1490.54,1442.25 1492.63,1442.15 1494.71,1442.05 1496.8,1441.95 1498.89,1441.84 1500.98,1441.73 1503.07,1441.62 1505.15,1441.5 1507.24,1441.38 1509.33,1441.26 1511.42,1441.14 1513.5,1441.01 1515.59,1440.88 1517.68,1440.74 1519.77,1440.6 1521.86,1440.46 1523.94,1440.32 1526.03,1440.17 1528.12,1440.01 1530.21,1439.86 1532.3,1439.7 1534.38,1439.53 1536.47,1439.37 1538.56,1439.2 1540.65,1439.02 1542.73,1438.84 1544.82,1438.66 1546.91,1438.47 1549,1438.28 1551.09,1438.08 1553.17,1437.88 1555.26,1437.68 1557.35,1437.47 1559.44,1437.26 1561.53,1437.04 1563.61,1436.82 1565.7,1436.59 1567.79,1436.37 1569.88,1436.13 1571.96,1435.89 1574.05,1435.65 1576.14,1435.41 1578.23,1435.16 1580.32,1434.9 1582.4,1434.65 1584.49,1434.39 1586.58,1434.12 1588.67,1433.86 1590.75,1433.59 1592.84,1433.31 1594.93,1433.04 1597.02,1432.76 1599.11,1432.48 1601.19,1432.19 1603.28,1431.91 1605.37,1431.62 1607.46,1431.33 1609.55,1431.04 1611.63,1430.75 1613.72,1430.46 1615.81,1430.17 1617.9,1429.88 1619.98,1429.59 1622.07,1429.3 1624.16,1429.01 1626.25,1428.72 1628.34,1428.43 1630.42,1428.15 1632.51,1427.87 1634.6,1427.59 1636.69,1427.32 1638.78,1427.05 1640.86,1426.78 1642.95,1426.52 1645.04,1426.27 1647.13,1426.02 1649.21,1425.78 1651.3,1425.54 1653.39,1425.31 1655.48,1425.08 1657.57,1424.87 1659.65,1424.66 1661.74,1424.45 1663.83,1424.26 1665.92,1424.08 1668.01,1423.9 1670.09,1423.73 1672.18,1423.57 1674.27,1423.42 1676.36,1423.28 1678.44,1423.15 1680.53,1423.03 1682.62,1422.92 1684.71,1422.82 1686.8,1422.72 1688.88,1422.64 1690.97,1422.57 1693.06,1422.5 1695.15,1422.45 1697.24,1422.4 1699.32,1422.37 1701.41,1422.34 1703.5,1422.32 1705.59,1422.31 1707.67,1422.31 1709.76,1422.31 1711.85,1422.33 1713.94,1422.35 1716.03,1422.38 1718.11,1422.42 1720.2,1422.46 1722.29,1422.51 1724.38,1422.57 1726.46,1422.63 1728.55,1422.7 1730.64,1422.78 1732.73,1422.86 1734.82,1422.95 1736.9,1423.04 1738.99,1423.13 1741.08,1423.23 1743.17,1423.34 1745.26,1423.44 1747.34,1423.56 1749.43,1423.67 1751.52,1423.79 1753.61,1423.91 1755.69,1424.03 1757.78,1424.16 1759.87,1424.29 1761.96,1424.42 1764.05,1424.55 1766.13,1424.68 1768.22,1424.82 1770.31,1424.96 1772.4,1425.09 1774.49,1425.23 1776.57,1425.37 1778.66,1425.51 1780.75,1425.65 1782.84,1425.79 1784.92,1425.94 1787.01,1426.08 1789.1,1426.22 1791.19,1426.36 1793.28,1426.5 1795.36,1426.64 1797.45,1426.79 1799.54,1426.93 1801.63,1427.07 1803.72,1427.21 1805.8,1427.35 1807.89,1427.48 1809.98,1427.62 1812.07,1427.76 1814.15,1427.89 1816.24,1428.03 1818.33,1428.16 1820.42,1428.3 1822.51,1428.43 1824.59,1428.56 1826.68,1428.69 1828.77,1428.82 1830.86,1428.95 1832.95,1429.07 1835.03,1429.2 1837.12,1429.32 1839.21,1429.45 1841.3,1429.57 1843.38,1429.69 1845.47,1429.81 1847.56,1429.93 1849.65,1430.05 1851.74,1430.16 1853.82,1430.28 1855.91,1430.39 1858,1430.5 1860.09,1430.61 1862.17,1430.72 1864.26,1430.83 1866.35,1430.94 1868.44,1431.05 1870.53,1431.15 1872.61,1431.26 1874.7,1431.36 1876.79,1431.46 1878.88,1431.56 1880.97,1431.66 1883.05,1431.76 1885.14,1431.85 1887.23,1431.95 1889.32,1432.04 1891.4,1432.14 1893.49,1432.23 1895.58,1432.32 1897.67,1432.41 1899.76,1432.5 1901.84,1432.59 1903.93,1432.67 1906.02,1432.76 1908.11,1432.84 1910.2,1432.93 1912.28,1433.01 1914.37,1433.09 1916.46,1433.17 1918.55,1433.25 1920.63,1433.33 1922.72,1433.41 1924.81,1433.48 1926.9,1433.56 1928.99,1433.63 1931.07,1433.71 1933.16,1433.78 1935.25,1433.85 1937.34,1433.92 1939.43,1433.99 1941.51,1434.06 1943.6,1434.13 1945.69,1434.2 1947.78,1434.27 1949.86,1434.33 1951.95,1434.4 1954.04,1434.46 1956.13,1434.53 1958.22,1434.59 1960.3,1434.65 1962.39,1434.71 1964.48,1434.77 1966.57,1434.83 1968.65,1434.89 1970.74,1434.95 1972.83,1435.01 1974.92,1435.07 1977.01,1435.12 1979.09,1435.18 1981.18,1435.24 1983.27,1435.29 1985.36,1435.34 1987.45,1435.4 1989.53,1435.45 1991.62,1435.5 1993.71,1435.55 1995.8,1435.6 1997.88,1435.65 1999.97,1435.7 2002.06,1435.75 2004.15,1435.8 2006.24,1435.85 2008.32,1435.9 2010.41,1435.94 2012.5,1435.99 2014.59,1436.04 2016.68,1436.08 2018.76,1436.13 2020.85,1436.17 2022.94,1436.22 2025.03,1436.26 2027.11,1436.3 2029.2,1436.34 2031.29,1436.39 2033.38,1436.43 2035.47,1436.47 2037.55,1436.51 2039.64,1436.55 2041.73,1436.59 2043.82,1436.63 2045.91,1436.67 2047.99,1436.71 2050.08,1436.74 2052.17,1436.78 2054.26,1436.82 2056.34,1436.86 2058.43,1436.89 2060.52,1436.93 2062.61,1436.96 2064.7,1437 2066.78,1437.03 2068.87,1437.07 2070.96,1437.1 2073.05,1437.14 2075.14,1437.17 2077.22,1437.2 2079.31,1437.24 2081.4,1437.27 2083.49,1437.3 2085.57,1437.33 2087.66,1437.36 2089.75,1437.4 2091.84,1437.43 2093.93,1437.46 2096.01,1437.49 2098.1,1437.52 2100.19,1437.55 2102.28,1437.58 2104.36,1437.61 2106.45,1437.63 2108.54,1437.66 2110.63,1437.69 2112.72,1437.72 2114.8,1437.75 2116.89,1437.77 2118.98,1437.8 2121.07,1437.83 2123.16,1437.86 2125.24,1437.88 2127.33,1437.91 2129.42,1437.93 2131.51,1437.96 2133.59,1437.98 2135.68,1438.01 2137.77,1438.03 2139.86,1438.06 2141.95,1438.08 2144.03,1438.11 2146.12,1438.13 2148.21,1438.16 2150.3,1438.18 2152.39,1438.2 2154.47,1438.23 2156.56,1438.25 2158.65,1438.27 2160.74,1438.29 2162.82,1438.32 2164.91,1438.34 2167,1438.36 2169.09,1438.38 2171.18,1438.4 2173.26,1438.42 2175.35,1438.44 2177.44,1438.47 2179.53,1438.49 2181.62,1438.51 2183.7,1438.53 2185.79,1438.55 2187.88,1438.57 2189.97,1438.59 2192.05,1438.61 2194.14,1438.63 2196.23,1438.65 2198.32,1438.66 2200.41,1438.68 2202.49,1438.7 2204.58,1438.72 2206.67,1438.74 2208.76,1438.76 2210.85,1438.78 2212.93,1438.79 2215.02,1438.81 2217.11,1438.83 2219.2,1438.85 2221.28,1438.86 2223.37,1438.88 2225.46,1438.9 2227.55,1438.92 2229.64,1438.93 2231.72,1438.95 2233.81,1438.97 2235.9,1438.98 2237.99,1439 2240.07,1439.01 2242.16,1439.03 2244.25,1439.05 2246.34,1439.06 2248.43,1439.08 2250.51,1439.09 2252.6,1439.11 2254.69,1439.12 2256.78,1439.14 2258.87,1439.15 2260.95,1439.17 2263.04,1439.18 2265.13,1439.2 2267.22,1439.21 2269.3,1439.23 2271.39,1439.24 2273.48,1439.26 2275.57,1439.27 2277.66,1439.28 2279.74,1439.3 2281.83,1439.31 2283.92,1439.32 2286.01,1439.34 2288.1,1439.35 2290.18,1439.37 "/>
<polyline clip-path="url(#clip361)" style="stroke:#e26f46; stroke-linecap:round; stroke-linejoin:round; stroke-width:4; stroke-opacity:1; fill:none" points="204.426,1445.66 206.514,1445.67 208.601,1445.67 210.689,1445.67 212.777,1445.68 214.865,1445.68 216.953,1445.69 219.041,1445.69 221.128,1445.69 223.216,1445.7 225.304,1445.7 227.392,1445.7 229.48,1445.7 231.568,1445.71 233.656,1445.71 235.743,1445.71 237.831,1445.71 239.919,1445.71 242.007,1445.71 244.095,1445.71 246.183,1445.72 248.27,1445.72 250.358,1445.72 252.446,1445.72 254.534,1445.72 256.622,1445.71 258.71,1445.71 260.797,1445.71 262.885,1445.71 264.973,1445.71 267.061,1445.71 269.149,1445.71 271.237,1445.7 273.325,1445.7 275.412,1445.7 277.5,1445.69 279.588,1445.69 281.676,1445.69 283.764,1445.68 285.852,1445.68 287.939,1445.67 290.027,1445.67 292.115,1445.66 294.203,1445.66 296.291,1445.65 298.379,1445.64 300.467,1445.64 302.554,1445.63 304.642,1445.62 306.73,1445.61 308.818,1445.61 310.906,1445.6 312.994,1445.59 315.081,1445.58 317.169,1445.57 319.257,1445.56 321.345,1445.55 323.433,1445.54 325.521,1445.53 327.609,1445.51 329.696,1445.5 331.784,1445.49 333.872,1445.48 335.96,1445.46 338.048,1445.45 340.136,1445.43 342.223,1445.42 344.311,1445.4 346.399,1445.39 348.487,1445.37 350.575,1445.35 352.663,1445.34 354.751,1445.32 356.838,1445.3 358.926,1445.28 361.014,1445.26 363.102,1445.24 365.19,1445.22 367.278,1445.2 369.365,1445.18 371.453,1445.16 373.541,1445.13 375.629,1445.11 377.717,1445.09 379.805,1445.06 381.893,1445.04 383.98,1445.01 386.068,1444.98 388.156,1444.96 390.244,1444.93 392.332,1444.9 394.42,1444.87 396.507,1444.84 398.595,1444.81 400.683,1444.78 402.771,1444.75 404.859,1444.72 406.947,1444.68 409.035,1444.65 411.122,1444.62 413.21,1444.58 415.298,1444.54 417.386,1444.51 419.474,1444.47 421.562,1444.43 423.649,1444.39 425.737,1444.35 427.825,1444.31 429.913,1444.27 432.001,1444.22 434.089,1444.18 436.177,1444.14 438.264,1444.09 440.352,1444.04 442.44,1444 444.528,1443.95 446.616,1443.9 448.704,1443.85 450.791,1443.8 452.879,1443.74 454.967,1443.69 457.055,1443.64 459.143,1443.58 461.231,1443.52 463.318,1443.47 465.406,1443.41 467.494,1443.35 469.582,1443.29 471.67,1443.22 473.758,1443.16 475.846,1443.1 477.933,1443.03 480.021,1442.96 482.109,1442.89 484.197,1442.82 486.285,1442.75 488.373,1442.68 490.46,1442.61 492.548,1442.53 494.636,1442.46 496.724,1442.38 498.812,1442.3 500.9,1442.22 502.988,1442.13 505.075,1442.05 507.163,1441.97 509.251,1441.88 511.339,1441.79 513.427,1441.7 515.515,1441.61 517.602,1441.51 519.69,1441.42 521.778,1441.32 523.866,1441.22 525.954,1441.12 528.042,1441.02 530.13,1440.92 532.217,1440.81 534.305,1440.7 536.393,1440.59 538.481,1440.48 540.569,1440.37 542.657,1440.25 544.744,1440.13 546.832,1440.01 548.92,1439.89 551.008,1439.77 553.096,1439.64 555.184,1439.51 557.272,1439.38 559.359,1439.25 561.447,1439.11 563.535,1438.97 565.623,1438.83 567.711,1438.69 569.799,1438.54 571.886,1438.39 573.974,1438.24 576.062,1438.09 578.15,1437.93 580.238,1437.77 582.326,1437.61 584.414,1437.45 586.501,1437.28 588.589,1437.11 590.677,1436.93 592.765,1436.76 594.853,1436.58 596.941,1436.39 599.028,1436.21 601.116,1436.02 603.204,1435.82 605.292,1435.63 607.38,1435.43 609.468,1435.22 611.556,1435.02 613.643,1434.81 615.731,1434.59 617.819,1434.37 619.907,1434.15 621.995,1433.92 624.083,1433.69 626.17,1433.46 628.258,1433.22 630.346,1432.98 632.434,1432.73 634.522,1432.48 636.61,1432.22 638.698,1431.96 640.785,1431.7 642.873,1431.43 644.961,1431.15 647.049,1430.87 649.137,1430.58 651.225,1430.29 653.312,1430 655.4,1429.7 657.488,1429.39 659.576,1429.08 661.664,1428.76 663.752,1428.44 665.839,1428.11 667.927,1427.77 670.015,1427.43 672.103,1427.08 674.191,1426.73 676.279,1426.37 678.367,1426 680.454,1425.63 682.542,1425.25 684.63,1424.86 686.718,1424.46 688.806,1424.06 690.894,1423.65 692.981,1423.23 695.069,1422.81 697.157,1422.37 699.245,1421.93 701.333,1421.48 703.421,1421.02 705.509,1420.55 707.596,1420.08 709.684,1419.59 711.772,1419.1 713.86,1418.6 715.948,1418.08 718.036,1417.56 720.123,1417.03 722.211,1416.48 724.299,1415.93 726.387,1415.37 728.475,1414.79 730.563,1414.2 732.651,1413.61 734.738,1413 736.826,1412.38 738.914,1411.74 741.002,1411.1 743.09,1410.44 745.178,1409.77 747.265,1409.08 749.353,1408.38 751.441,1407.67 753.529,1406.94 755.617,1406.2 757.705,1405.45 759.793,1404.68 761.88,1403.89 763.968,1403.09 766.056,1402.27 768.144,1401.43 770.232,1400.58 772.32,1399.71 774.407,1398.83 776.495,1397.92 778.583,1397 780.671,1396.05 782.759,1395.09 784.847,1394.11 786.935,1393.1 789.022,1392.08 791.11,1391.03 793.198,1389.97 795.286,1388.88 797.374,1387.76 799.462,1386.62 801.549,1385.46 803.637,1384.28 805.725,1383.07 807.813,1381.83 809.901,1380.56 811.989,1379.27 814.077,1377.95 816.164,1376.6 818.252,1375.23 820.34,1373.82 822.428,1372.38 824.516,1370.91 826.604,1369.41 828.691,1367.87 830.779,1366.3 832.867,1364.69 834.955,1363.05 837.043,1361.37 839.131,1359.65 841.219,1357.89 843.306,1356.1 845.394,1354.26 847.482,1352.38 849.57,1350.46 851.658,1348.49 853.746,1346.48 855.833,1344.42 857.921,1342.31 860.009,1340.15 862.097,1337.94 864.185,1335.68 866.273,1333.37 868.36,1331 870.448,1328.58 872.536,1326.09 874.624,1323.55 876.712,1320.94 878.8,1318.28 880.888,1315.54 882.975,1312.75 885.063,1309.88 887.151,1306.94 889.239,1303.93 891.327,1300.85 893.415,1297.69 895.502,1294.45 897.59,1291.13 899.678,1287.73 901.766,1284.24 903.854,1280.66 905.942,1277 908.03,1273.24 910.117,1269.38 912.205,1265.43 914.293,1261.37 916.381,1257.22 918.469,1252.95 920.557,1248.58 922.644,1244.09 924.732,1239.48 926.82,1234.76 928.908,1229.91 930.996,1224.94 933.084,1219.83 935.172,1214.6 937.259,1209.22 939.347,1203.71 941.435,1198.04 943.523,1192.23 945.611,1186.27 947.699,1180.14 949.786,1173.86 951.874,1167.41 953.962,1160.78 956.05,1153.98 958.138,1147 960.226,1139.84 962.314,1132.48 964.401,1124.93 966.489,1117.18 968.577,1109.23 970.665,1101.06 972.753,1092.68 974.841,1084.07 976.928,1075.24 979.016,1066.18 981.104,1056.89 983.192,1047.35 985.28,1037.56 987.368,1027.52 989.456,1017.22 991.543,1006.66 993.631,995.835 995.719,984.735 997.807,973.359 999.895,961.702 1001.98,949.759 1004.07,937.527 1006.16,925.002 1008.25,912.182 1010.33,899.063 1012.42,885.643 1014.51,871.92 1016.6,857.894 1018.69,843.564 1020.77,828.93 1022.86,813.992 1024.95,798.754 1027.04,783.217 1029.12,767.385 1031.21,751.264 1033.3,734.859 1035.39,718.177 1037.48,701.227 1039.56,684.019 1041.65,666.564 1043.74,648.876 1045.83,630.968 1047.92,612.858 1050,594.564 1052.09,576.104 1054.18,557.503 1056.27,538.782 1058.35,519.968 1060.44,501.088 1062.53,482.172 1064.62,463.252 1066.71,444.36 1068.79,425.533 1070.88,406.807 1072.97,388.221 1075.06,369.814 1077.15,351.629 1079.23,333.707 1081.32,316.094 1083.41,298.832 1085.5,281.967 1087.58,265.543 1089.67,249.606 1091.76,234.201 1093.85,219.37 1095.94,205.158 1098.02,191.604 1100.11,178.75 1102.2,166.633 1104.29,155.288 1106.37,144.748 1108.46,135.043 1110.55,126.2 1112.64,118.241 1114.73,111.187 1116.81,105.053 1118.9,99.852 1120.99,95.5912 1123.08,92.2751 1125.17,89.9038 1127.25,88.4734 1129.34,87.9763 1131.43,88.401 1133.52,89.7327 1135.6,91.953 1137.69,95.0405 1139.78,98.9706 1141.87,103.716 1143.96,109.249 1146.04,115.536 1148.13,122.544 1150.22,130.239 1152.31,138.585 1154.4,147.545 1156.48,157.081 1158.57,167.156 1160.66,177.731 1162.75,188.769 1164.83,200.231 1166.92,212.082 1169.01,224.284 1171.1,236.802 1173.19,249.601 1175.27,262.649 1177.36,275.912 1179.45,289.36 1181.54,302.963 1183.63,316.693 1185.71,330.523 1187.8,344.429 1189.89,358.385 1191.98,372.37 1194.06,386.362 1196.15,400.342 1198.24,414.291 1200.33,428.193 1202.42,442.033 1204.5,455.794 1206.59,469.466 1208.68,483.035 1210.77,496.49 1212.85,509.822 1214.94,523.022 1217.03,536.082 1219.12,548.995 1221.21,561.754 1223.29,574.355 1225.38,586.792 1227.47,599.061 1229.56,611.16 1231.65,623.084 1233.73,634.833 1235.82,646.404 1237.91,657.796 1240,669.008 1242.08,680.04 1244.17,690.891 1246.26,701.562 1248.35,712.053 1250.44,722.365 1252.52,732.499 1254.61,742.456 1256.7,752.238 1258.79,761.847 1260.88,771.283 1262.96,780.549 1265.05,789.647 1267.14,798.58 1269.23,807.348 1271.31,815.956 1273.4,824.404 1275.49,832.696 1277.58,840.834 1279.67,848.82 1281.75,856.657 1283.84,864.347 1285.93,871.894 1288.02,879.299 1290.11,886.566 1292.19,893.696 1294.28,900.693 1296.37,907.558 1298.46,914.295 1300.54,920.906 1302.63,927.394 1304.72,933.76 1306.81,940.007 1308.9,946.139 1310.98,952.156 1313.07,958.062 1315.16,963.859 1317.25,969.548 1319.34,975.133 1321.42,980.615 1323.51,985.997 1325.6,991.281 1327.69,996.468 1329.77,1001.56 1331.86,1006.56 1333.95,1011.47 1336.04,1016.3 1338.13,1021.03 1340.21,1025.68 1342.3,1030.25 1344.39,1034.74 1346.48,1039.15 1348.56,1043.48 1350.65,1047.74 1352.74,1051.92 1354.83,1056.02 1356.92,1060.06 1359,1064.03 1361.09,1067.93 1363.18,1071.76 1365.27,1075.53 1367.36,1079.23 1369.44,1082.87 1371.53,1086.45 1373.62,1089.97 1375.71,1093.43 1377.79,1096.84 1379.88,1100.18 1381.97,1103.48 1384.06,1106.71 1386.15,1109.9 1388.23,1113.03 1390.32,1116.12 1392.41,1119.15 1394.5,1122.13 1396.59,1125.07 1398.67,1127.96 1400.76,1130.81 1402.85,1133.61 1404.94,1136.37 1407.02,1139.08 1409.11,1141.75 1411.2,1144.38 1413.29,1146.97 1415.38,1149.52 1417.46,1152.03 1419.55,1154.51 1421.64,1156.94 1423.73,1159.34 1425.82,1161.7 1427.9,1164.03 1429.99,1166.33 1432.08,1168.59 1434.17,1170.81 1436.25,1173.01 1438.34,1175.17 1440.43,1177.3 1442.52,1179.4 1444.61,1181.47 1446.69,1183.52 1448.78,1185.53 1450.87,1187.51 1452.96,1189.47 1455.05,1191.4 1457.13,1193.3 1459.22,1195.17 1461.31,1197.02 1463.4,1198.85 1465.48,1200.64 1467.57,1202.42 1469.66,1204.17 1471.75,1205.9 1473.84,1207.6 1475.92,1209.28 1478.01,1210.94 1480.1,1212.58 1482.19,1214.19 1484.27,1215.78 1486.36,1217.36 1488.45,1218.91 1490.54,1220.44 1492.63,1221.95 1494.71,1223.45 1496.8,1224.92 1498.89,1226.38 1500.98,1227.81 1503.07,1229.23 1505.15,1230.63 1507.24,1232.02 1509.33,1233.38 1511.42,1234.73 1513.5,1236.06 1515.59,1237.38 1517.68,1238.68 1519.77,1239.96 1521.86,1241.23 1523.94,1242.49 1526.03,1243.72 1528.12,1244.95 1530.21,1246.16 1532.3,1247.35 1534.38,1248.53 1536.47,1249.7 1538.56,1250.85 1540.65,1251.99 1542.73,1253.12 1544.82,1254.23 1546.91,1255.33 1549,1256.42 1551.09,1257.49 1553.17,1258.56 1555.26,1259.61 1557.35,1260.65 1559.44,1261.67 1561.53,1262.69 1563.61,1263.69 1565.7,1264.69 1567.79,1265.67 1569.88,1266.64 1571.96,1267.6 1574.05,1268.55 1576.14,1269.49 1578.23,1270.42 1580.32,1271.34 1582.4,1272.25 1584.49,1273.16 1586.58,1274.05 1588.67,1274.93 1590.75,1275.8 1592.84,1276.66 1594.93,1277.52 1597.02,1278.36 1599.11,1279.2 1601.19,1280.02 1603.28,1280.84 1605.37,1281.65 1607.46,1282.46 1609.55,1283.25 1611.63,1284.04 1613.72,1284.81 1615.81,1285.58 1617.9,1286.35 1619.98,1287.1 1622.07,1287.85 1624.16,1288.59 1626.25,1289.32 1628.34,1290.05 1630.42,1290.76 1632.51,1291.48 1634.6,1292.18 1636.69,1292.88 1638.78,1293.57 1640.86,1294.25 1642.95,1294.93 1645.04,1295.6 1647.13,1296.26 1649.21,1296.92 1651.3,1297.57 1653.39,1298.22 1655.48,1298.86 1657.57,1299.49 1659.65,1300.12 1661.74,1300.74 1663.83,1301.36 1665.92,1301.97 1668.01,1302.57 1670.09,1303.17 1672.18,1303.77 1674.27,1304.36 1676.36,1304.94 1678.44,1305.52 1680.53,1306.09 1682.62,1306.66 1684.71,1307.22 1686.8,1307.78 1688.88,1308.33 1690.97,1308.88 1693.06,1309.42 1695.15,1309.96 1697.24,1310.49 1699.32,1311.02 1701.41,1311.54 1703.5,1312.06 1705.59,1312.58 1707.67,1313.09 1709.76,1313.59 1711.85,1314.1 1713.94,1314.59 1716.03,1315.09 1718.11,1315.58 1720.2,1316.06 1722.29,1316.54 1724.38,1317.02 1726.46,1317.49 1728.55,1317.96 1730.64,1318.42 1732.73,1318.89 1734.82,1319.34 1736.9,1319.8 1738.99,1320.25 1741.08,1320.69 1743.17,1321.14 1745.26,1321.57 1747.34,1322.01 1749.43,1322.44 1751.52,1322.87 1753.61,1323.29 1755.69,1323.72 1757.78,1324.13 1759.87,1324.55 1761.96,1324.96 1764.05,1325.37 1766.13,1325.77 1768.22,1326.18 1770.31,1326.58 1772.4,1326.97 1774.49,1327.36 1776.57,1327.75 1778.66,1328.14 1780.75,1328.52 1782.84,1328.9 1784.92,1329.28 1787.01,1329.66 1789.1,1330.03 1791.19,1330.4 1793.28,1330.76 1795.36,1331.13 1797.45,1331.49 1799.54,1331.85 1801.63,1332.2 1803.72,1332.55 1805.8,1332.9 1807.89,1333.25 1809.98,1333.6 1812.07,1333.94 1814.15,1334.28 1816.24,1334.62 1818.33,1334.95 1820.42,1335.29 1822.51,1335.62 1824.59,1335.94 1826.68,1336.27 1828.77,1336.59 1830.86,1336.91 1832.95,1337.23 1835.03,1337.55 1837.12,1337.86 1839.21,1338.17 1841.3,1338.48 1843.38,1338.79 1845.47,1339.09 1847.56,1339.4 1849.65,1339.7 1851.74,1340 1853.82,1340.29 1855.91,1340.59 1858,1340.88 1860.09,1341.17 1862.17,1341.46 1864.26,1341.75 1866.35,1342.03 1868.44,1342.31 1870.53,1342.59 1872.61,1342.87 1874.7,1343.15 1876.79,1343.42 1878.88,1343.7 1880.97,1343.97 1883.05,1344.24 1885.14,1344.51 1887.23,1344.77 1889.32,1345.04 1891.4,1345.3 1893.49,1345.56 1895.58,1345.82 1897.67,1346.08 1899.76,1346.33 1901.84,1346.58 1903.93,1346.84 1906.02,1347.09 1908.11,1347.34 1910.2,1347.58 1912.28,1347.83 1914.37,1348.07 1916.46,1348.32 1918.55,1348.56 1920.63,1348.8 1922.72,1349.03 1924.81,1349.27 1926.9,1349.51 1928.99,1349.74 1931.07,1349.97 1933.16,1350.2 1935.25,1350.43 1937.34,1350.66 1939.43,1350.88 1941.51,1351.11 1943.6,1351.33 1945.69,1351.55 1947.78,1351.77 1949.86,1351.99 1951.95,1352.21 1954.04,1352.43 1956.13,1352.64 1958.22,1352.86 1960.3,1353.07 1962.39,1353.28 1964.48,1353.49 1966.57,1353.7 1968.65,1353.91 1970.74,1354.11 1972.83,1354.32 1974.92,1354.52 1977.01,1354.72 1979.09,1354.92 1981.18,1355.12 1983.27,1355.32 1985.36,1355.52 1987.45,1355.72 1989.53,1355.91 1991.62,1356.11 1993.71,1356.3 1995.8,1356.49 1997.88,1356.68 1999.97,1356.87 2002.06,1357.06 2004.15,1357.25 2006.24,1357.43 2008.32,1357.62 2010.41,1357.8 2012.5,1357.99 2014.59,1358.17 2016.68,1358.35 2018.76,1358.53 2020.85,1358.71 2022.94,1358.89 2025.03,1359.06 2027.11,1359.24 2029.2,1359.41 2031.29,1359.59 2033.38,1359.76 2035.47,1359.93 2037.55,1360.1 2039.64,1360.27 2041.73,1360.44 2043.82,1360.61 2045.91,1360.78 2047.99,1360.94 2050.08,1361.11 2052.17,1361.27 2054.26,1361.44 2056.34,1361.6 2058.43,1361.76 2060.52,1361.92 2062.61,1362.08 2064.7,1362.24 2066.78,1362.4 2068.87,1362.56 2070.96,1362.71 2073.05,1362.87 2075.14,1363.02 2077.22,1363.18 2079.31,1363.33 2081.4,1363.48 2083.49,1363.63 2085.57,1363.78 2087.66,1363.93 2089.75,1364.08 2091.84,1364.23 2093.93,1364.38 2096.01,1364.52 2098.1,1364.67 2100.19,1364.81 2102.28,1364.96 2104.36,1365.1 2106.45,1365.25 2108.54,1365.39 2110.63,1365.53 2112.72,1365.67 2114.8,1365.81 2116.89,1365.95 2118.98,1366.09 2121.07,1366.22 2123.16,1366.36 2125.24,1366.5 2127.33,1366.63 2129.42,1366.77 2131.51,1366.9 2133.59,1367.03 2135.68,1367.17 2137.77,1367.3 2139.86,1367.43 2141.95,1367.56 2144.03,1367.69 2146.12,1367.82 2148.21,1367.95 2150.3,1368.08 2152.39,1368.2 2154.47,1368.33 2156.56,1368.46 2158.65,1368.58 2160.74,1368.71 2162.82,1368.83 2164.91,1368.95 2167,1369.08 2169.09,1369.2 2171.18,1369.32 2173.26,1369.44 2175.35,1369.56 2177.44,1369.68 2179.53,1369.8 2181.62,1369.92 2183.7,1370.04 2185.79,1370.16 2187.88,1370.27 2189.97,1370.39 2192.05,1370.5 2194.14,1370.62 2196.23,1370.73 2198.32,1370.85 2200.41,1370.96 2202.49,1371.08 2204.58,1371.19 2206.67,1371.3 2208.76,1371.41 2210.85,1371.52 2212.93,1371.63 2215.02,1371.74 2217.11,1371.85 2219.2,1371.96 2221.28,1372.07 2223.37,1372.18 2225.46,1372.28 2227.55,1372.39 2229.64,1372.49 2231.72,1372.6 2233.81,1372.71 2235.9,1372.81 2237.99,1372.91 2240.07,1373.02 2242.16,1373.12 2244.25,1373.22 2246.34,1373.33 2248.43,1373.43 2250.51,1373.53 2252.6,1373.63 2254.69,1373.73 2256.78,1373.83 2258.87,1373.93 2260.95,1374.03 2263.04,1374.13 2265.13,1374.22 2267.22,1374.32 2269.3,1374.42 2271.39,1374.51 2273.48,1374.61 2275.57,1374.71 2277.66,1374.8 2279.74,1374.9 2281.83,1374.99 2283.92,1375.08 2286.01,1375.18 2288.1,1375.27 2290.18,1375.36 "/>
<polyline clip-path="url(#clip361)" style="stroke:#3da44d; stroke-linecap:round; stroke-linejoin:round; stroke-width:4; stroke-opacity:1; fill:none" points="204.426,1445.71 206.514,1445.71 208.601,1445.71 210.689,1445.71 212.777,1445.71 214.865,1445.71 216.953,1445.71 219.041,1445.71 221.128,1445.71 223.216,1445.71 225.304,1445.71 227.392,1445.72 229.48,1445.72 231.568,1445.72 233.656,1445.72 235.743,1445.72 237.831,1445.72 239.919,1445.72 242.007,1445.72 244.095,1445.72 246.183,1445.72 248.27,1445.71 250.358,1445.71 252.446,1445.71 254.534,1445.71 256.622,1445.71 258.71,1445.71 260.797,1445.71 262.885,1445.71 264.973,1445.71 267.061,1445.71 269.149,1445.71 271.237,1445.71 273.325,1445.7 275.412,1445.7 277.5,1445.7 279.588,1445.7 281.676,1445.7 283.764,1445.7 285.852,1445.69 287.939,1445.69 290.027,1445.69 292.115,1445.69 294.203,1445.69 296.291,1445.68 298.379,1445.68 300.467,1445.68 302.554,1445.67 304.642,1445.67 306.73,1445.67 308.818,1445.66 310.906,1445.66 312.994,1445.66 315.081,1445.65 317.169,1445.65 319.257,1445.64 321.345,1445.64 323.433,1445.63 325.521,1445.63 327.609,1445.62 329.696,1445.62 331.784,1445.61 333.872,1445.61 335.96,1445.6 338.048,1445.59 340.136,1445.59 342.223,1445.58 344.311,1445.57 346.399,1445.57 348.487,1445.56 350.575,1445.55 352.663,1445.54 354.751,1445.53 356.838,1445.52 358.926,1445.51 361.014,1445.5 363.102,1445.49 365.19,1445.48 367.278,1445.47 369.365,1445.46 371.453,1445.45 373.541,1445.43 375.629,1445.42 377.717,1445.41 379.805,1445.39 381.893,1445.38 383.98,1445.36 386.068,1445.35 388.156,1445.33 390.244,1445.31 392.332,1445.3 394.42,1445.28 396.507,1445.26 398.595,1445.24 400.683,1445.22 402.771,1445.2 404.859,1445.18 406.947,1445.16 409.035,1445.13 411.122,1445.11 413.21,1445.08 415.298,1445.06 417.386,1445.03 419.474,1445 421.562,1444.97 423.649,1444.94 425.737,1444.91 427.825,1444.88 429.913,1444.85 432.001,1444.81 434.089,1444.78 436.177,1444.74 438.264,1444.7 440.352,1444.66 442.44,1444.62 444.528,1444.58 446.616,1444.53 448.704,1444.49 450.791,1444.44 452.879,1444.39 454.967,1444.34 457.055,1444.29 459.143,1444.23 461.231,1444.17 463.318,1444.11 465.406,1444.05 467.494,1443.99 469.582,1443.92 471.67,1443.85 473.758,1443.78 475.846,1443.71 477.933,1443.63 480.021,1443.55 482.109,1443.47 484.197,1443.38 486.285,1443.29 488.373,1443.2 490.46,1443.1 492.548,1443 494.636,1442.9 496.724,1442.79 498.812,1442.68 500.9,1442.57 502.988,1442.45 505.075,1442.32 507.163,1442.19 509.251,1442.06 511.339,1441.92 513.427,1441.77 515.515,1441.62 517.602,1441.47 519.69,1441.31 521.778,1441.14 523.866,1440.97 525.954,1440.79 528.042,1440.6 530.13,1440.41 532.217,1440.2 534.305,1440 536.393,1439.78 538.481,1439.56 540.569,1439.33 542.657,1439.09 544.744,1438.84 546.832,1438.58 548.92,1438.32 551.008,1438.05 553.096,1437.76 555.184,1437.47 557.272,1437.17 559.359,1436.86 561.447,1436.54 563.535,1436.21 565.623,1435.87 567.711,1435.52 569.799,1435.16 571.886,1434.8 573.974,1434.42 576.062,1434.04 578.15,1433.64 580.238,1433.24 582.326,1432.83 584.414,1432.41 586.501,1431.99 588.589,1431.56 590.677,1431.12 592.765,1430.68 594.853,1430.24 596.941,1429.79 599.028,1429.34 601.116,1428.89 603.204,1428.44 605.292,1427.99 607.38,1427.55 609.468,1427.11 611.556,1426.67 613.643,1426.25 615.731,1425.83 617.819,1425.42 619.907,1425.02 621.995,1424.64 624.083,1424.27 626.17,1423.91 628.258,1423.58 630.346,1423.26 632.434,1422.96 634.522,1422.68 636.61,1422.42 638.698,1422.19 640.785,1421.98 642.873,1421.79 644.961,1421.63 647.049,1421.49 649.137,1421.37 651.225,1421.28 653.312,1421.21 655.4,1421.16 657.488,1421.14 659.576,1421.14 661.664,1421.16 663.752,1421.21 665.839,1421.27 667.927,1421.35 670.015,1421.45 672.103,1421.57 674.191,1421.7 676.279,1421.85 678.367,1422.01 680.454,1422.19 682.542,1422.37 684.63,1422.57 686.718,1422.78 688.806,1422.99 690.894,1423.21 692.981,1423.44 695.069,1423.68 697.157,1423.92 699.245,1424.16 701.333,1424.41 703.421,1424.66 705.509,1424.92 707.596,1425.17 709.684,1425.43 711.772,1425.68 713.86,1425.94 715.948,1426.19 718.036,1426.45 720.123,1426.7 722.211,1426.95 724.299,1427.2 726.387,1427.44 728.475,1427.69 730.563,1427.93 732.651,1428.17 734.738,1428.41 736.826,1428.64 738.914,1428.87 741.002,1429.1 743.09,1429.32 745.178,1429.54 747.265,1429.75 749.353,1429.97 751.441,1430.18 753.529,1430.38 755.617,1430.58 757.705,1430.78 759.793,1430.98 761.88,1431.17 763.968,1431.35 766.056,1431.54 768.144,1431.72 770.232,1431.9 772.32,1432.07 774.407,1432.24 776.495,1432.41 778.583,1432.57 780.671,1432.73 782.759,1432.89 784.847,1433.04 786.935,1433.19 789.022,1433.34 791.11,1433.49 793.198,1433.63 795.286,1433.77 797.374,1433.91 799.462,1434.04 801.549,1434.17 803.637,1434.3 805.725,1434.43 807.813,1434.55 809.901,1434.67 811.989,1434.79 814.077,1434.91 816.164,1435.02 818.252,1435.13 820.34,1435.24 822.428,1435.35 824.516,1435.46 826.604,1435.56 828.691,1435.66 830.779,1435.76 832.867,1435.86 834.955,1435.95 837.043,1436.05 839.131,1436.14 841.219,1436.23 843.306,1436.32 845.394,1436.41 847.482,1436.49 849.57,1436.58 851.658,1436.66 853.746,1436.74 855.833,1436.82 857.921,1436.9 860.009,1436.97 862.097,1437.05 864.185,1437.12 866.273,1437.2 868.36,1437.27 870.448,1437.34 872.536,1437.41 874.624,1437.47 876.712,1437.54 878.8,1437.6 880.888,1437.67 882.975,1437.73 885.063,1437.79 887.151,1437.86 889.239,1437.91 891.327,1437.97 893.415,1438.03 895.502,1438.09 897.59,1438.14 899.678,1438.2 901.766,1438.25 903.854,1438.31 905.942,1438.36 908.03,1438.41 910.117,1438.46 912.205,1438.51 914.293,1438.56 916.381,1438.61 918.469,1438.66 920.557,1438.7 922.644,1438.75 924.732,1438.8 926.82,1438.84 928.908,1438.88 930.996,1438.93 933.084,1438.97 935.172,1439.01 937.259,1439.05 939.347,1439.1 941.435,1439.14 943.523,1439.18 945.611,1439.21 947.699,1439.25 949.786,1439.29 951.874,1439.33 953.962,1439.37 956.05,1439.4 958.138,1439.44 960.226,1439.47 962.314,1439.51 964.401,1439.54 966.489,1439.58 968.577,1439.61 970.665,1439.64 972.753,1439.67 974.841,1439.71 976.928,1439.74 979.016,1439.77 981.104,1439.8 983.192,1439.83 985.28,1439.86 987.368,1439.89 989.456,1439.92 991.543,1439.95 993.631,1439.98 995.719,1440 997.807,1440.03 999.895,1440.06 1001.98,1440.09 1004.07,1440.11 1006.16,1440.14 1008.25,1440.17 1010.33,1440.19 1012.42,1440.22 1014.51,1440.24 1016.6,1440.27 1018.69,1440.29 1020.77,1440.31 1022.86,1440.34 1024.95,1440.36 1027.04,1440.38 1029.12,1440.41 1031.21,1440.43 1033.3,1440.45 1035.39,1440.47 1037.48,1440.5 1039.56,1440.52 1041.65,1440.54 1043.74,1440.56 1045.83,1440.58 1047.92,1440.6 1050,1440.62 1052.09,1440.64 1054.18,1440.66 1056.27,1440.68 1058.35,1440.7 1060.44,1440.72 1062.53,1440.74 1064.62,1440.76 1066.71,1440.78 1068.79,1440.79 1070.88,1440.81 1072.97,1440.83 1075.06,1440.85 1077.15,1440.87 1079.23,1440.88 1081.32,1440.9 1083.41,1440.92 1085.5,1440.93 1087.58,1440.95 1089.67,1440.97 1091.76,1440.98 1093.85,1441 1095.94,1441.02 1098.02,1441.03 1100.11,1441.05 1102.2,1441.06 1104.29,1441.08 1106.37,1441.09 1108.46,1441.11 1110.55,1441.12 1112.64,1441.14 1114.73,1441.15 1116.81,1441.17 1118.9,1441.18 1120.99,1441.19 1123.08,1441.21 1125.17,1441.22 1127.25,1441.24 1129.34,1441.25 1131.43,1441.26 1133.52,1441.28 1135.6,1441.29 1137.69,1441.3 1139.78,1441.31 1141.87,1441.33 1143.96,1441.34 1146.04,1441.35 1148.13,1441.36 1150.22,1441.38 1152.31,1441.39 1154.4,1441.4 1156.48,1441.41 1158.57,1441.42 1160.66,1441.44 1162.75,1441.45 1164.83,1441.46 1166.92,1441.47 1169.01,1441.48 1171.1,1441.49 1173.19,1441.5 1175.27,1441.52 1177.36,1441.53 1179.45,1441.54 1181.54,1441.55 1183.63,1441.56 1185.71,1441.57 1187.8,1441.58 1189.89,1441.59 1191.98,1441.6 1194.06,1441.61 1196.15,1441.62 1198.24,1441.63 1200.33,1441.64 1202.42,1441.65 1204.5,1441.66 1206.59,1441.67 1208.68,1441.68 1210.77,1441.69 1212.85,1441.7 1214.94,1441.7 1217.03,1441.71 1219.12,1441.72 1221.21,1441.73 1223.29,1441.74 1225.38,1441.75 1227.47,1441.76 1229.56,1441.77 1231.65,1441.78 1233.73,1441.78 1235.82,1441.79 1237.91,1441.8 1240,1441.81 1242.08,1441.82 1244.17,1441.83 1246.26,1441.83 1248.35,1441.84 1250.44,1441.85 1252.52,1441.86 1254.61,1441.87 1256.7,1441.87 1258.79,1441.88 1260.88,1441.89 1262.96,1441.9 1265.05,1441.9 1267.14,1441.91 1269.23,1441.92 1271.31,1441.93 1273.4,1441.93 1275.49,1441.94 1277.58,1441.95 1279.67,1441.95 1281.75,1441.96 1283.84,1441.97 1285.93,1441.98 1288.02,1441.98 1290.11,1441.99 1292.19,1442 1294.28,1442 1296.37,1442.01 1298.46,1442.02 1300.54,1442.02 1302.63,1442.03 1304.72,1442.04 1306.81,1442.04 1308.9,1442.05 1310.98,1442.05 1313.07,1442.06 1315.16,1442.07 1317.25,1442.07 1319.34,1442.08 1321.42,1442.09 1323.51,1442.09 1325.6,1442.1 1327.69,1442.1 1329.77,1442.11 1331.86,1442.11 1333.95,1442.12 1336.04,1442.13 1338.13,1442.13 1340.21,1442.14 1342.3,1442.14 1344.39,1442.15 1346.48,1442.15 1348.56,1442.16 1350.65,1442.17 1352.74,1442.17 1354.83,1442.18 1356.92,1442.18 1359,1442.19 1361.09,1442.19 1363.18,1442.2 1365.27,1442.2 1367.36,1442.21 1369.44,1442.21 1371.53,1442.22 1373.62,1442.22 1375.71,1442.23 1377.79,1442.23 1379.88,1442.24 1381.97,1442.24 1384.06,1442.25 1386.15,1442.25 1388.23,1442.26 1390.32,1442.26 1392.41,1442.27 1394.5,1442.27 1396.59,1442.28 1398.67,1442.28 1400.76,1442.29 1402.85,1442.29 1404.94,1442.29 1407.02,1442.3 1409.11,1442.3 1411.2,1442.31 1413.29,1442.31 1415.38,1442.32 1417.46,1442.32 1419.55,1442.33 1421.64,1442.33 1423.73,1442.33 1425.82,1442.34 1427.9,1442.34 1429.99,1442.35 1432.08,1442.35 1434.17,1442.36 1436.25,1442.36 1438.34,1442.36 1440.43,1442.37 1442.52,1442.37 1444.61,1442.38 1446.69,1442.38 1448.78,1442.38 1450.87,1442.39 1452.96,1442.39 1455.05,1442.39 1457.13,1442.4 1459.22,1442.4 1461.31,1442.41 1463.4,1442.41 1465.48,1442.41 1467.57,1442.42 1469.66,1442.42 1471.75,1442.42 1473.84,1442.43 1475.92,1442.43 1478.01,1442.44 1480.1,1442.44 1482.19,1442.44 1484.27,1442.45 1486.36,1442.45 1488.45,1442.45 1490.54,1442.46 1492.63,1442.46 1494.71,1442.46 1496.8,1442.47 1498.89,1442.47 1500.98,1442.47 1503.07,1442.48 1505.15,1442.48 1507.24,1442.48 1509.33,1442.49 1511.42,1442.49 1513.5,1442.49 1515.59,1442.5 1517.68,1442.5 1519.77,1442.5 1521.86,1442.51 1523.94,1442.51 1526.03,1442.51 1528.12,1442.51 1530.21,1442.52 1532.3,1442.52 1534.38,1442.52 1536.47,1442.53 1538.56,1442.53 1540.65,1442.53 1542.73,1442.54 1544.82,1442.54 1546.91,1442.54 1549,1442.54 1551.09,1442.55 1553.17,1442.55 1555.26,1442.55 1557.35,1442.56 1559.44,1442.56 1561.53,1442.56 1563.61,1442.56 1565.7,1442.57 1567.79,1442.57 1569.88,1442.57 1571.96,1442.57 1574.05,1442.58 1576.14,1442.58 1578.23,1442.58 1580.32,1442.59 1582.4,1442.59 1584.49,1442.59 1586.58,1442.59 1588.67,1442.6 1590.75,1442.6 1592.84,1442.6 1594.93,1442.6 1597.02,1442.61 1599.11,1442.61 1601.19,1442.61 1603.28,1442.61 1605.37,1442.62 1607.46,1442.62 1609.55,1442.62 1611.63,1442.62 1613.72,1442.63 1615.81,1442.63 1617.9,1442.63 1619.98,1442.63 1622.07,1442.63 1624.16,1442.64 1626.25,1442.64 1628.34,1442.64 1630.42,1442.64 1632.51,1442.65 1634.6,1442.65 1636.69,1442.65 1638.78,1442.65 1640.86,1442.66 1642.95,1442.66 1645.04,1442.66 1647.13,1442.66 1649.21,1442.66 1651.3,1442.67 1653.39,1442.67 1655.48,1442.67 1657.57,1442.67 1659.65,1442.67 1661.74,1442.68 1663.83,1442.68 1665.92,1442.68 1668.01,1442.68 1670.09,1442.68 1672.18,1442.69 1674.27,1442.69 1676.36,1442.69 1678.44,1442.69 1680.53,1442.69 1682.62,1442.7 1684.71,1442.7 1686.8,1442.7 1688.88,1442.7 1690.97,1442.7 1693.06,1442.71 1695.15,1442.71 1697.24,1442.71 1699.32,1442.71 1701.41,1442.71 1703.5,1442.72 1705.59,1442.72 1707.67,1442.72 1709.76,1442.72 1711.85,1442.72 1713.94,1442.72 1716.03,1442.73 1718.11,1442.73 1720.2,1442.73 1722.29,1442.73 1724.38,1442.73 1726.46,1442.74 1728.55,1442.74 1730.64,1442.74 1732.73,1442.74 1734.82,1442.74 1736.9,1442.74 1738.99,1442.75 1741.08,1442.75 1743.17,1442.75 1745.26,1442.75 1747.34,1442.75 1749.43,1442.75 1751.52,1442.76 1753.61,1442.76 1755.69,1442.76 1757.78,1442.76 1759.87,1442.76 1761.96,1442.76 1764.05,1442.77 1766.13,1442.77 1768.22,1442.77 1770.31,1442.77 1772.4,1442.77 1774.49,1442.77 1776.57,1442.77 1778.66,1442.78 1780.75,1442.78 1782.84,1442.78 1784.92,1442.78 1787.01,1442.78 1789.1,1442.78 1791.19,1442.78 1793.28,1442.79 1795.36,1442.79 1797.45,1442.79 1799.54,1442.79 1801.63,1442.79 1803.72,1442.79 1805.8,1442.79 1807.89,1442.8 1809.98,1442.8 1812.07,1442.8 1814.15,1442.8 1816.24,1442.8 1818.33,1442.8 1820.42,1442.8 1822.51,1442.81 1824.59,1442.81 1826.68,1442.81 1828.77,1442.81 1830.86,1442.81 1832.95,1442.81 1835.03,1442.81 1837.12,1442.82 1839.21,1442.82 1841.3,1442.82 1843.38,1442.82 1845.47,1442.82 1847.56,1442.82 1849.65,1442.82 1851.74,1442.82 1853.82,1442.83 1855.91,1442.83 1858,1442.83 1860.09,1442.83 1862.17,1442.83 1864.26,1442.83 1866.35,1442.83 1868.44,1442.83 1870.53,1442.84 1872.61,1442.84 1874.7,1442.84 1876.79,1442.84 1878.88,1442.84 1880.97,1442.84 1883.05,1442.84 1885.14,1442.84 1887.23,1442.84 1889.32,1442.85 1891.4,1442.85 1893.49,1442.85 1895.58,1442.85 1897.67,1442.85 1899.76,1442.85 1901.84,1442.85 1903.93,1442.85 1906.02,1442.85 1908.11,1442.86 1910.2,1442.86 1912.28,1442.86 1914.37,1442.86 1916.46,1442.86 1918.55,1442.86 1920.63,1442.86 1922.72,1442.86 1924.81,1442.86 1926.9,1442.86 1928.99,1442.87 1931.07,1442.87 1933.16,1442.87 1935.25,1442.87 1937.34,1442.87 1939.43,1442.87 1941.51,1442.87 1943.6,1442.87 1945.69,1442.87 1947.78,1442.87 1949.86,1442.88 1951.95,1442.88 1954.04,1442.88 1956.13,1442.88 1958.22,1442.88 1960.3,1442.88 1962.39,1442.88 1964.48,1442.88 1966.57,1442.88 1968.65,1442.88 1970.74,1442.89 1972.83,1442.89 1974.92,1442.89 1977.01,1442.89 1979.09,1442.89 1981.18,1442.89 1983.27,1442.89 1985.36,1442.89 1987.45,1442.89 1989.53,1442.89 1991.62,1442.89 1993.71,1442.9 1995.8,1442.9 1997.88,1442.9 1999.97,1442.9 2002.06,1442.9 2004.15,1442.9 2006.24,1442.9 2008.32,1442.9 2010.41,1442.9 2012.5,1442.9 2014.59,1442.9 2016.68,1442.9 2018.76,1442.91 2020.85,1442.91 2022.94,1442.91 2025.03,1442.91 2027.11,1442.91 2029.2,1442.91 2031.29,1442.91 2033.38,1442.91 2035.47,1442.91 2037.55,1442.91 2039.64,1442.91 2041.73,1442.91 2043.82,1442.91 2045.91,1442.92 2047.99,1442.92 2050.08,1442.92 2052.17,1442.92 2054.26,1442.92 2056.34,1442.92 2058.43,1442.92 2060.52,1442.92 2062.61,1442.92 2064.7,1442.92 2066.78,1442.92 2068.87,1442.92 2070.96,1442.92 2073.05,1442.93 2075.14,1442.93 2077.22,1442.93 2079.31,1442.93 2081.4,1442.93 2083.49,1442.93 2085.57,1442.93 2087.66,1442.93 2089.75,1442.93 2091.84,1442.93 2093.93,1442.93 2096.01,1442.93 2098.1,1442.93 2100.19,1442.93 2102.28,1442.93 2104.36,1442.94 2106.45,1442.94 2108.54,1442.94 2110.63,1442.94 2112.72,1442.94 2114.8,1442.94 2116.89,1442.94 2118.98,1442.94 2121.07,1442.94 2123.16,1442.94 2125.24,1442.94 2127.33,1442.94 2129.42,1442.94 2131.51,1442.94 2133.59,1442.94 2135.68,1442.95 2137.77,1442.95 2139.86,1442.95 2141.95,1442.95 2144.03,1442.95 2146.12,1442.95 2148.21,1442.95 2150.3,1442.95 2152.39,1442.95 2154.47,1442.95 2156.56,1442.95 2158.65,1442.95 2160.74,1442.95 2162.82,1442.95 2164.91,1442.95 2167,1442.95 2169.09,1442.95 2171.18,1442.96 2173.26,1442.96 2175.35,1442.96 2177.44,1442.96 2179.53,1442.96 2181.62,1442.96 2183.7,1442.96 2185.79,1442.96 2187.88,1442.96 2189.97,1442.96 2192.05,1442.96 2194.14,1442.96 2196.23,1442.96 2198.32,1442.96 2200.41,1442.96 2202.49,1442.96 2204.58,1442.96 2206.67,1442.96 2208.76,1442.97 2210.85,1442.97 2212.93,1442.97 2215.02,1442.97 2217.11,1442.97 2219.2,1442.97 2221.28,1442.97 2223.37,1442.97 2225.46,1442.97 2227.55,1442.97 2229.64,1442.97 2231.72,1442.97 2233.81,1442.97 2235.9,1442.97 2237.99,1442.97 2240.07,1442.97 2242.16,1442.97 2244.25,1442.97 2246.34,1442.97 2248.43,1442.97 2250.51,1442.98 2252.6,1442.98 2254.69,1442.98 2256.78,1442.98 2258.87,1442.98 2260.95,1442.98 2263.04,1442.98 2265.13,1442.98 2267.22,1442.98 2269.3,1442.98 2271.39,1442.98 2273.48,1442.98 2275.57,1442.98 2277.66,1442.98 2279.74,1442.98 2281.83,1442.98 2283.92,1442.98 2286.01,1442.98 2288.1,1442.98 2290.18,1442.98 "/>
<path clip-path="url(#clip360)" d="M1923.43 302.578 L2279.06 302.578 L2279.06 95.2176 L1923.43 95.2176  Z" fill="#ffffff" fill-rule="evenodd" fill-opacity="1"/>
<polyline clip-path="url(#clip360)" style="stroke:#000000; stroke-linecap:round; stroke-linejoin:round; stroke-width:4; stroke-opacity:1; fill:none" points="1923.43,302.578 2279.06,302.578 2279.06,95.2176 1923.43,95.2176 1923.43,302.578 "/>
<polyline clip-path="url(#clip360)" style="stroke:#009af9; stroke-linecap:round; stroke-linejoin:round; stroke-width:4; stroke-opacity:1; fill:none" points="1948,147.058 2095.39,147.058 "/>
<path clip-path="url(#clip360)" d="M2119.96 129.778 L2124.63 129.778 L2124.63 160.402 L2141.46 160.402 L2141.46 164.338 L2119.96 164.338 L2119.96 129.778 Z" fill="#000000" fill-rule="nonzero" fill-opacity="1" /><path clip-path="url(#clip360)" d="M2150.81 160.402 L2167.13 160.402 L2167.13 164.338 L2145.19 164.338 L2145.19 160.402 Q2147.85 157.648 2152.43 153.018 Q2157.04 148.365 2158.22 147.023 Q2160.47 144.5 2161.35 142.764 Q2162.25 141.004 2162.25 139.315 Q2162.25 136.56 2160.3 134.824 Q2158.38 133.088 2155.28 133.088 Q2153.08 133.088 2150.63 133.852 Q2148.2 134.615 2145.42 136.166 L2145.42 131.444 Q2148.24 130.31 2150.7 129.731 Q2153.15 129.153 2155.19 129.153 Q2160.56 129.153 2163.75 131.838 Q2166.95 134.523 2166.95 139.014 Q2166.95 141.143 2166.14 143.065 Q2165.35 144.963 2163.24 147.555 Q2162.67 148.227 2159.56 151.444 Q2156.46 154.639 2150.81 160.402 Z" fill="#000000" fill-rule="nonzero" fill-opacity="1" /><path clip-path="url(#clip360)" d="M2176.9 142.81 L2206.58 142.81 L2206.58 146.699 L2176.9 146.699 L2176.9 142.81 M2176.9 152.254 L2206.58 152.254 L2206.58 156.189 L2176.9 156.189 L2176.9 152.254 Z" fill="#000000" fill-rule="nonzero" fill-opacity="1" /><path clip-path="url(#clip360)" d="M2213.92 149.453 L2226.39 149.453 L2226.39 153.25 L2213.92 153.25 L2213.92 149.453 Z" fill="#000000" fill-rule="nonzero" fill-opacity="1" /><path clip-path="url(#clip360)" d="M2234.59 160.402 L2242.23 160.402 L2242.23 134.037 L2233.91 135.703 L2233.91 131.444 L2242.18 129.778 L2246.85 129.778 L2246.85 160.402 L2254.49 160.402 L2254.49 164.338 L2234.59 164.338 L2234.59 160.402 Z" fill="#000000" fill-rule="nonzero" fill-opacity="1" /><polyline clip-path="url(#clip360)" style="stroke:#e26f46; stroke-linecap:round; stroke-linejoin:round; stroke-width:4; stroke-opacity:1; fill:none" points="1948,198.898 2095.39,198.898 "/>
<path clip-path="url(#clip360)" d="M2119.96 181.618 L2124.63 181.618 L2124.63 212.242 L2141.46 212.242 L2141.46 216.178 L2119.96 216.178 L2119.96 181.618 Z" fill="#000000" fill-rule="nonzero" fill-opacity="1" /><path clip-path="url(#clip360)" d="M2150.81 212.242 L2167.13 212.242 L2167.13 216.178 L2145.19 216.178 L2145.19 212.242 Q2147.85 209.488 2152.43 204.858 Q2157.04 200.205 2158.22 198.863 Q2160.47 196.34 2161.35 194.604 Q2162.25 192.844 2162.25 191.155 Q2162.25 188.4 2160.3 186.664 Q2158.38 184.928 2155.28 184.928 Q2153.08 184.928 2150.63 185.692 Q2148.2 186.455 2145.42 188.006 L2145.42 183.284 Q2148.24 182.15 2150.7 181.571 Q2153.15 180.993 2155.19 180.993 Q2160.56 180.993 2163.75 183.678 Q2166.95 186.363 2166.95 190.854 Q2166.95 192.983 2166.14 194.905 Q2165.35 196.803 2163.24 199.395 Q2162.67 200.067 2159.56 203.284 Q2156.46 206.479 2150.81 212.242 Z" fill="#000000" fill-rule="nonzero" fill-opacity="1" /><path clip-path="url(#clip360)" d="M2176.9 194.65 L2206.58 194.65 L2206.58 198.539 L2176.9 198.539 L2176.9 194.65 M2176.9 204.094 L2206.58 204.094 L2206.58 208.029 L2176.9 208.029 L2176.9 204.094 Z" fill="#000000" fill-rule="nonzero" fill-opacity="1" /><path clip-path="url(#clip360)" d="M2241.74 184.696 Q2238.13 184.696 2236.3 188.261 Q2234.49 191.803 2234.49 198.932 Q2234.49 206.039 2236.3 209.604 Q2238.13 213.145 2241.74 213.145 Q2245.37 213.145 2247.18 209.604 Q2249.01 206.039 2249.01 198.932 Q2249.01 191.803 2247.18 188.261 Q2245.37 184.696 2241.74 184.696 M2241.74 180.993 Q2247.55 180.993 2250.6 185.599 Q2253.68 190.182 2253.68 198.932 Q2253.68 207.659 2250.6 212.266 Q2247.55 216.849 2241.74 216.849 Q2235.93 216.849 2232.85 212.266 Q2229.79 207.659 2229.79 198.932 Q2229.79 190.182 2232.85 185.599 Q2235.93 180.993 2241.74 180.993 Z" fill="#000000" fill-rule="nonzero" fill-opacity="1" /><polyline clip-path="url(#clip360)" style="stroke:#3da44d; stroke-linecap:round; stroke-linejoin:round; stroke-width:4; stroke-opacity:1; fill:none" points="1948,250.738 2095.39,250.738 "/>
<path clip-path="url(#clip360)" d="M2119.96 233.458 L2124.63 233.458 L2124.63 264.082 L2141.46 264.082 L2141.46 268.018 L2119.96 268.018 L2119.96 233.458 Z" fill="#000000" fill-rule="nonzero" fill-opacity="1" /><path clip-path="url(#clip360)" d="M2150.81 264.082 L2167.13 264.082 L2167.13 268.018 L2145.19 268.018 L2145.19 264.082 Q2147.85 261.328 2152.43 256.698 Q2157.04 252.045 2158.22 250.703 Q2160.47 248.18 2161.35 246.444 Q2162.25 244.684 2162.25 242.995 Q2162.25 240.24 2160.3 238.504 Q2158.38 236.768 2155.28 236.768 Q2153.08 236.768 2150.63 237.532 Q2148.2 238.295 2145.42 239.846 L2145.42 235.124 Q2148.24 233.99 2150.7 233.411 Q2153.15 232.833 2155.19 232.833 Q2160.56 232.833 2163.75 235.518 Q2166.95 238.203 2166.95 242.694 Q2166.95 244.823 2166.14 246.745 Q2165.35 248.643 2163.24 251.235 Q2162.67 251.907 2159.56 255.124 Q2156.46 258.319 2150.81 264.082 Z" fill="#000000" fill-rule="nonzero" fill-opacity="1" /><path clip-path="url(#clip360)" d="M2176.9 246.49 L2206.58 246.49 L2206.58 250.379 L2176.9 250.379 L2176.9 246.49 M2176.9 255.934 L2206.58 255.934 L2206.58 259.869 L2176.9 259.869 L2176.9 255.934 Z" fill="#000000" fill-rule="nonzero" fill-opacity="1" /><path clip-path="url(#clip360)" d="M2232.55 264.082 L2240.19 264.082 L2240.19 237.717 L2231.88 239.383 L2231.88 235.124 L2240.14 233.458 L2244.82 233.458 L2244.82 264.082 L2252.46 264.082 L2252.46 268.018 L2232.55 268.018 L2232.55 264.082 Z" fill="#000000" fill-rule="nonzero" fill-opacity="1" /></svg>
